<svg width="126" height="79" viewBox="0 0 126 79" fill="none" xmlns="http://www.w3.org/2000/svg">
<path d="M102.948 2.2515H23.1358L2.1001 21.1861V57.8089L23.1358 76.7443L23.1385 76.7414H63.0406L63.0417 76.7443L63.0446 76.7414H102.947L102.95 76.7443L123.9 57.8089V21.1861L102.948 2.2515Z" fill="black"/>
<path d="M43.0487 58.7479L60.7296 74.6635H25.4397L43.0487 58.7479ZM65.346 74.6635H100.636L82.9552 58.7479L65.346 74.6635ZM100.662 4.30883H65.3185L82.9539 20.2479L100.662 4.30883ZM43.0764 20.2219L60.7573 4.30883H25.4189L43.0764 20.2219Z" fill="white"/>
<path d="M23.14 73.8673L4.16797 57.021V22.1133L23.1362 5.0244L41.9728 22.1133V57.0207" fill="#D23139"/>
<path d="M21.3883 45.2088L24.2525 52.7437H18.4097L21.3883 45.2088ZM21.9952 39.0306L15.922 53.8886C15.1998 55.668 13.9549 59.525 11.3516 59.6454V61.2437H19.6531V59.6454C18.2652 59.6454 16.7603 59.2837 16.7603 57.5661C16.7603 56.5415 17.5128 55.004 17.5999 54.6125C17.5999 54.5817 25.0035 54.6125 25.0035 54.6125L26.4212 58.5301C26.7387 59.4043 25.6402 59.6454 25.4373 59.6454H24.2519V61.2437H34.3741V59.6764C33.159 59.6159 32.2921 59.3747 31.8583 58.2594L24.1647 39.0308L21.9952 39.0306Z" fill="white"/>
<path d="M21.3883 20.0909L24.2525 27.6259H18.4097L21.3883 20.0909ZM21.9952 13.9127L15.922 28.7708C15.1998 30.5499 13.9549 34.4072 11.3516 34.5278V36.1259H19.6531V34.5278C18.2652 34.5278 16.7603 34.1658 16.7603 32.4482C16.7603 31.4239 17.5128 29.8861 17.5999 29.4946C17.5999 29.4639 25.0035 29.4946 25.0035 29.4946L26.4212 33.4122C26.7387 34.2864 25.6402 34.5278 25.4373 34.5278H24.2519V36.1259H34.3741V34.5586C33.159 34.4983 32.2921 34.2569 31.8583 33.1415L24.1647 13.9127H21.9952Z" fill="white"/>
<path d="M63.0462 73.9193L44.0742 57.021V22.1133L63.0462 5.07721L81.879 22.1133V57.0207" fill="#FFF200"/>
<path d="M76.8136 24.5503L77.4405 36.3477H75.3524C74.8512 32.3869 72.7604 26.6839 68.1243 26.6839C66.9128 26.6839 66.6616 27.0311 66.6616 28.4248V51.9336C66.6616 53.5009 67.1217 53.6759 71.4248 53.6759V55.9833H54.5473V53.6759C57.8891 53.5882 59.2255 53.937 59.2255 51.4546V28.5134C59.2255 27.3375 59.2664 26.6407 57.6373 26.6407C53.1676 26.6407 51.0781 32.5615 50.5771 36.3487H48.5312L49.1995 24.5513L76.8136 24.5503Z" fill="black"/>
<path d="M102.952 73.9193L83.98 57.021V22.1133L102.952 5.07721L121.785 22.1133V57.0207" fill="#005DA6"/>
<path d="M108.222 41.9324L109.841 40.3048H111.056L111.316 48.9551L109.841 49.1052C109.06 45.7896 107.15 41.7808 103.247 41.7808C98.1851 41.7808 97.7224 47.7484 97.7224 51.5174C97.7224 55.2543 98.2722 61.0712 103.478 61.0712C107.382 61.0712 109.435 57.8764 110.044 54.531L111.721 54.9532C110.737 60.1369 107.846 62.9094 102.35 62.9094C96.1033 62.9094 91.9951 58.1779 91.9951 51.8778C91.9951 45.1269 96.6514 40.2443 102.697 40.2443C105.56 40.2443 106.458 40.8168 108.222 41.9324Z" fill="white"/>
<path d="M108.222 16.8145L109.841 15.1869H111.056L111.316 23.8372L109.841 23.9875C109.06 20.6718 107.15 16.6632 103.247 16.6632C98.1851 16.6632 97.7224 22.6308 97.7224 26.3995C97.7224 30.1362 98.2722 35.9535 103.478 35.9535C107.382 35.9535 109.435 32.7586 110.044 29.4134L111.721 29.8356C110.737 35.019 107.846 37.7915 102.35 37.7915C96.1033 37.7915 91.9951 33.06 91.9951 26.76C91.9951 20.0095 96.6514 15.1264 102.697 15.1264C105.56 15.1264 106.458 15.699 108.222 16.8145Z" fill="white"/>
<path d="M122.832 73.1363C122.832 73.8941 122.641 74.6034 122.259 75.2646C121.876 75.9261 121.351 76.4462 120.683 76.825C120.014 77.2036 119.298 77.3928 118.533 77.3928C117.752 77.3928 117.025 77.1955 116.353 76.8011C115.681 76.4065 115.16 75.8826 114.789 75.2288C114.418 74.5752 114.233 73.8775 114.233 73.1359C114.233 72.3783 114.426 71.6698 114.81 71.0104C115.195 70.351 115.72 69.8308 116.386 69.4499C117.052 69.0695 117.768 68.8791 118.533 68.8791C119.303 68.8791 120.021 69.0703 120.689 69.4533C121.358 69.8358 121.882 70.3549 122.262 71.0104C122.643 71.6661 122.832 72.3748 122.832 73.1363ZM122.286 73.1363C122.286 72.4734 122.119 71.8578 121.786 71.2906C121.453 70.7233 120.996 70.2728 120.415 69.9393C119.834 69.6059 119.207 69.4389 118.533 69.4389C117.867 69.4389 117.244 69.605 116.665 69.9368C116.086 70.2684 115.63 70.7208 115.297 71.2938C114.964 71.8667 114.798 72.481 114.798 73.1363C114.798 73.7993 114.965 74.4178 115.3 74.991C115.636 75.5641 116.091 76.0157 116.665 76.3454C117.24 76.6751 117.863 76.84 118.533 76.84C119.203 76.84 119.829 76.6751 120.412 76.3454C120.995 76.0157 121.453 75.5641 121.786 74.991C122.119 74.4178 122.286 73.7993 122.286 73.1363ZM119.728 75.5974L118.544 73.6191H117.587V75.5974H116.832V70.705H118.657C119.22 70.705 119.651 70.8285 119.95 71.0757C120.25 71.3229 120.4 71.6644 120.4 72.1002C120.4 72.5006 120.297 72.8218 120.09 73.0629C119.884 73.3045 119.613 73.4625 119.276 73.5367L120.59 75.5974H119.728ZM119.645 72.1118C119.645 71.8409 119.551 71.6349 119.363 71.4933C119.174 71.352 118.92 71.2813 118.598 71.2813H117.587V73.0532H118.67C118.987 73.0532 119.229 72.97 119.395 72.8031C119.562 72.637 119.645 72.4062 119.645 72.1118Z" fill="black"/>
</svg>
