<svg width="455" height="131" viewBox="0 0 455 131" fill="none" xmlns="http://www.w3.org/2000/svg">
<path d="M392.382 59.3539L450.665 59.4144C451.802 59.4144 452.893 58.9603 453.696 58.158C454.5 57.3557 454.955 56.2659 454.955 55.1305V31.5919C454.955 29.2153 453.045 27.308 450.68 27.2929L392.397 27.2323H392.367C383.211 27.2323 374.602 30.7291 368.099 37.0565C361.581 43.4293 357.973 51.9063 357.973 60.913C357.973 79.5018 373.389 94.6392 392.352 94.6543L420.394 94.6846C421.243 94.6846 422.183 95.4566 422.274 96.274C422.274 96.8038 422.016 97.1671 421.804 97.379C421.607 97.5607 421.197 97.8786 420.53 97.8786L353.289 97.818C353.835 96.5162 354.32 95.1992 354.744 93.8672C356.321 88.9324 357.124 83.7856 357.124 78.5784L357.155 31.5011C357.155 29.1245 355.23 27.2172 352.865 27.202H328.779V27.1869C327.642 27.1869 326.55 27.641 325.747 28.4433C324.944 29.2456 324.489 30.3355 324.489 31.4708L324.459 78.4573C324.459 78.4573 324.459 78.533 324.459 78.5784C324.459 79.2293 324.428 79.8802 324.353 80.516L324.322 80.7128C324.292 80.8641 324.262 81.0306 324.246 81.1669L324.201 81.515C324.155 81.8178 324.125 82.1054 324.065 82.393C324.034 82.5292 324.004 82.6503 323.958 82.7866L323.731 83.6343C323.686 83.8311 323.64 84.0279 323.579 84.2246C323.519 84.3911 323.458 84.5577 323.398 84.7242L323.079 85.5567C323.034 85.7081 322.973 85.8443 322.913 85.9957C322.822 86.1925 322.715 86.3893 322.624 86.5861L322.261 87.3278C322.2 87.4489 322.155 87.5549 322.094 87.6608C321.973 87.8879 321.836 88.0998 321.685 88.3117L321.26 88.9929C321.215 89.0837 321.154 89.1594 321.109 89.2351C320.927 89.4925 320.745 89.7346 320.548 89.9768L319.972 90.7186C319.744 90.991 319.487 91.2484 319.229 91.5209L319.108 91.642C319.002 91.7479 318.896 91.869 318.805 91.975L318.699 92.0809C318.395 92.3837 318.062 92.6562 317.683 92.9892L317.304 93.3373C316.94 93.625 316.561 93.8974 316.182 94.1548C316.061 94.2305 315.94 94.3213 315.788 94.4424C315.394 94.6997 314.97 94.9419 314.56 95.1841C314.439 95.2447 314.318 95.3203 314.166 95.4263C313.742 95.6534 313.302 95.8502 312.863 96.0469C312.741 96.1075 312.605 96.168 312.453 96.2437C311.999 96.4254 311.529 96.5919 311.089 96.7433C310.953 96.7887 310.816 96.8341 310.634 96.9098C310.165 97.046 309.695 97.1671 309.194 97.2731L308.74 97.3942C308.27 97.485 307.785 97.5455 307.315 97.6061C307.163 97.6212 307.027 97.6515 306.784 97.6818C306.314 97.7272 305.814 97.7423 305.329 97.7575C305.162 97.7575 304.996 97.7575 304.829 97.7877H304.632C293.718 97.7877 284.851 89.1443 284.851 78.533L284.881 31.4557C284.881 30.3203 284.426 29.2305 283.623 28.413C282.819 27.5956 281.758 27.1718 280.637 27.1566C280.576 27.1566 280.5 27.1566 280.44 27.1566L120.87 27.0053H120.825C106.849 27.0053 93.7072 32.3336 83.809 41.9913C73.8653 51.6944 68.3932 64.6066 68.3781 78.3362C68.3781 84.9512 69.6817 91.4906 72.1828 97.591L32.6505 97.5607L32.696 31.2135C32.696 28.8369 30.7709 26.9296 28.4062 26.9144H4.35037V26.8993C3.21351 26.8993 2.12213 27.3534 1.31875 28.1557C0.515375 28.958 0.0606323 30.0479 0.0606323 31.1832L0 125.338C0 127.714 1.92508 129.622 4.28974 129.637L120.84 129.743H120.886C134.861 129.743 148.003 124.414 157.902 114.757C167.845 105.054 173.317 92.1566 173.333 78.4119C173.333 71.7817 172.029 65.2423 169.528 59.1571H194.205L194.16 125.519C194.16 127.896 196.085 129.803 198.45 129.818H222.536V129.834C223.673 129.834 224.764 129.38 225.567 128.577C226.371 127.775 226.825 126.685 226.825 125.55L226.856 59.2176L252.215 59.2479V78.4876C252.185 106.81 275.71 129.879 304.632 129.909L420.515 130.015H420.546C429.701 130.015 438.311 126.519 444.814 120.191C451.332 113.818 454.939 105.341 454.939 96.3346C454.939 77.7458 439.524 62.6084 420.561 62.5933L392.503 62.563C391.654 62.563 390.715 61.791 390.639 61.125V60.9736C390.639 60.4438 390.896 60.0805 391.109 59.8686C391.306 59.6869 391.715 59.369 392.367 59.369L392.382 59.3539ZM106.849 64.7731C110.593 61.125 115.565 59.1117 120.855 59.1117H120.87C131.784 59.1117 140.652 67.7703 140.652 78.3816C140.652 83.498 138.605 88.3269 134.877 91.9447C131.133 95.5928 126.161 97.6061 120.87 97.6061H120.855C109.942 97.6061 101.074 88.9475 101.074 78.3362C101.074 73.2197 103.12 68.3909 106.849 64.7579V64.7731Z" fill="black"/>
<path d="M107.243 23.6145H124.069C125.479 23.6145 126.782 22.9333 127.586 21.7828L138.075 6.76654C138.984 5.44959 139.106 3.73906 138.363 2.33128C137.62 0.908366 136.15 0.0303969 134.558 0.0152595H115.626V0.00012207C114.065 0.00012207 112.64 0.847817 111.867 2.19505L103.469 17.2113C102.726 18.5434 102.741 20.1631 103.514 21.4801C104.288 22.797 105.697 23.5993 107.213 23.5993L107.243 23.6145Z" fill="black"/>
<path d="M79.1403 101.86L28.3911 101.814L28.4366 31.1832H4.35037L4.28973 125.338L120.84 125.444C103.029 125.429 87.4621 115.937 79.1403 101.86Z" fill="#F8F8F7"/>
<path d="M169.043 78.4119C169.043 104.403 147.443 125.474 120.855 125.444C103.045 125.429 87.4772 115.937 79.1555 101.86L120.87 101.905C134.164 101.905 144.957 91.3846 144.972 78.3816C144.987 65.3786 134.21 54.8278 120.901 54.8127L162.616 54.8581C166.724 61.791 169.058 69.829 169.058 78.4119H169.043Z" fill="url(#paint0_linear_73_65)"/>
<path d="M96.7843 78.3362C96.7843 91.3241 107.562 101.89 120.855 101.905L79.1403 101.86C75.0476 94.9268 72.6981 86.8888 72.6981 78.3059C72.6981 52.315 94.3135 31.2286 120.886 31.2589C138.712 31.274 154.279 40.7651 162.586 54.8429L120.87 54.7975C107.577 54.7975 96.7843 65.318 96.7691 78.321L96.7843 78.3362Z" fill="url(#paint1_linear_73_65)"/>
<path d="M392.412 31.5162L450.695 31.5767V55.1154L392.397 55.0548C389.062 55.0548 386.364 57.6888 386.364 60.9433C386.364 61.0947 386.364 61.352 386.394 61.5034C386.758 64.44 389.517 66.8166 392.533 66.8166C392.564 66.8166 392.624 66.8166 392.655 66.8166L420.576 66.8469C437.189 66.862 450.665 80.0618 450.665 96.3043C450.665 112.547 437.159 125.716 420.546 125.701L304.662 125.595V102.056L420.561 102.162C423.896 102.162 426.594 99.5285 426.594 96.274C426.594 96.1226 426.594 95.8653 426.563 95.7139C426.2 92.7773 423.441 90.4007 420.424 90.4007C420.394 90.4007 420.333 90.4007 420.303 90.4007L392.382 90.3704C375.769 90.3553 362.293 77.1555 362.293 60.913C362.293 44.6706 375.799 31.501 392.412 31.5162Z" fill="url(#paint2_linear_73_65)"/>
<path d="M328.794 31.4708H352.88L352.85 78.5784C352.85 104.569 331.249 125.641 304.662 125.61C278.075 125.58 256.505 104.478 256.52 78.4875L256.55 31.4102H280.637L280.606 78.5178C280.606 91.5057 291.384 102.072 304.677 102.087C317.971 102.087 328.764 91.5662 328.779 78.5632L328.809 31.4859L328.794 31.4708Z" fill="url(#paint3_linear_73_65)"/>
<path d="M328.794 31.4708L328.764 78.5481C328.764 91.4754 318.062 101.966 304.874 102.056C304.435 108.672 303.283 115.12 301.934 121.508C302.343 122.87 302.616 124.218 302.752 125.55C303.389 125.58 304.026 125.595 304.677 125.595C331.265 125.625 352.85 104.539 352.865 78.5632L352.895 31.4859H328.809L328.794 31.4708Z" fill="#F8F8F7"/>
<path d="M120.901 31.274C138.727 31.2891 154.294 40.7803 162.601 54.8581L198.51 54.8883L198.465 125.519H222.551L222.596 54.9186L280.47 54.9792V31.4254L120.916 31.274H120.901Z" fill="#F8F8F7"/>
<path d="M134.573 4.32941L124.069 19.3457L107.259 19.3306L115.641 4.29913L134.573 4.32941Z" fill="#F8F8F7"/>
<defs>
<linearGradient id="paint0_linear_73_65" x1="107.642" y1="41.2882" x2="108.731" y2="94.2654" gradientUnits="userSpaceOnUse">
<stop offset="0.18" stop-color="#1F140F"/>
<stop offset="0.25" stop-color="#3C332F"/>
<stop offset="0.45" stop-color="#8C8683"/>
<stop offset="0.62" stop-color="#C6C3C1"/>
<stop offset="0.74" stop-color="#EAE9E8"/>
<stop offset="0.8" stop-color="#F8F8F7"/>
</linearGradient>
<linearGradient id="paint1_linear_73_65" x1="100.409" y1="117.423" x2="106.911" y2="42.2478" gradientUnits="userSpaceOnUse">
<stop offset="0.13" stop-color="#1F140F"/>
<stop offset="0.17" stop-color="#39302B"/>
<stop offset="0.26" stop-color="#6B6460"/>
<stop offset="0.36" stop-color="#96918E"/>
<stop offset="0.45" stop-color="#B9B6B4"/>
<stop offset="0.54" stop-color="#D4D3D1"/>
<stop offset="0.63" stop-color="#E8E7E6"/>
<stop offset="0.72" stop-color="#F4F3F2"/>
<stop offset="0.8" stop-color="#F8F8F7"/>
</linearGradient>
<linearGradient id="paint2_linear_73_65" x1="285.539" y1="78.5611" x2="373.217" y2="77.5497" gradientUnits="userSpaceOnUse">
<stop offset="0.06" stop-color="#1F140F"/>
<stop offset="0.13" stop-color="#2A1F1A"/>
<stop offset="0.25" stop-color="#473E3A"/>
<stop offset="0.41" stop-color="#77706D"/>
<stop offset="0.6" stop-color="#B8B5B3"/>
<stop offset="0.77" stop-color="#F8F8F7"/>
</linearGradient>
<linearGradient id="paint3_linear_73_65" x1="294.516" y1="42.74" x2="295.975" y2="88.2145" gradientUnits="userSpaceOnUse">
<stop offset="0.11" stop-color="#1F140F"/>
<stop offset="0.21" stop-color="#3C332F"/>
<stop offset="0.49" stop-color="#8C8683"/>
<stop offset="0.71" stop-color="#C6C3C1"/>
<stop offset="0.88" stop-color="#EAE9E8"/>
<stop offset="0.97" stop-color="#F8F8F7"/>
</linearGradient>
</defs>
</svg>
