<?xml version="1.0" encoding="UTF-8"?>
<svg id="Camada_2" data-name="Camada 2" xmlns="http://www.w3.org/2000/svg" xmlns:xlink="http://www.w3.org/1999/xlink" viewBox="0 0 293.53 59.74">
  <defs>
    <style>
      .cls-1 {
        fill: #fff;
      }

      .cls-1, .cls-2 {
        stroke-width: 0px;
      }

      .cls-2 {
        fill: url(#Gradiente_sem_nome);
      }
    </style>
    <linearGradient id="Gradiente_sem_nome" data-name="Gradiente sem nome" x1="293.32" y1="236.13" x2="178.57" y2="236.13" gradientTransform="translate(0 266) scale(1 -1)" gradientUnits="userSpaceOnUse">
      <stop offset=".11" stop-color="#000"/>
      <stop offset="1" stop-color="#000" stop-opacity="0"/>
    </linearGradient>
  </defs>
  <g id="Layer_2" data-name="Layer 2">
    <g id="Layer_5" data-name="Layer 5">
      <g>
        <path class="cls-2" d="m293.53,29.8c0-16.71-13.53-29.8-30.79-29.8-.29,0-.58,0-.87.02h-56.17c-.29,0-.58-.02-.87-.02-17.27,0-30.79,13.09-30.79,29.8s13.53,29.88,30.79,29.88h.03v.06h57.9v-.06c17.25-.02,30.76-13.14,30.76-29.88h0Z"/>
        <path class="cls-1" d="m262.44,5.03c-15.09,0-26.91,11.1-26.91,25.26s11.82,25.33,26.91,25.33,26.91-11.13,26.91-25.33-11.82-25.26-26.91-25.26Zm-.03,38.58c-7.92,0-13.89-5.72-13.89-13.3s5.97-13.3,13.89-13.3,13.89,5.72,13.89,13.3-5.97,13.3-13.89,13.3Z"/>
        <polygon class="cls-1" points="12.93 4.95 0 4.95 0 54.68 36.74 54.68 36.74 42.7 12.87 42.7 12.93 4.95"/>
        <rect class="cls-1" x="42.08" y="4.95" width="12.93" height="49.73"/>
        <polygon class="cls-1" points="108.69 30.02 108.69 54.68 121.56 54.68 121.56 4.95 109.47 4.95 93.43 33.78 77.66 4.95 65.3 4.95 65.3 54.68 78.16 54.68 78.16 29.86 92.01 54.76 95.06 54.76 108.69 30.02"/>
        <path class="cls-1" d="m155.08,4.95h-23.23v49.73h12.93v-15.67h10.9c11.36,0,18.42-6.52,18.42-17.02s-7.46-17.04-19.02-17.04h0Zm.09,22.3h-10.4v-10.49h10.4c3.68,0,5.79,1.9,5.79,5.22s-2.06,5.27-5.79,5.27Z"/>
        <path class="cls-1" d="m204.74,4.05c-14.92,0-26.61,11.31-26.61,25.75s11.69,25.82,26.61,25.82,26.61-11.34,26.61-25.82-11.69-25.75-26.61-25.75Zm-.03,39.33c-7.83,0-13.73-5.83-13.73-13.56s5.9-13.56,13.73-13.56,13.73,5.83,13.73,13.56-5.9,13.56-13.73,13.56Z"/>
      </g>
    </g>
  </g>
</svg>