<svg width="480" height="98" viewBox="0 0 480 98" fill="none" xmlns="http://www.w3.org/2000/svg">
<g clip-path="url(#clip0_134_2)">
<path d="M429.233 27.9086C416.309 27.9086 406.566 37.2935 406.566 49.7301C406.566 62.1668 416.309 71.5517 429.233 71.5517C442.157 71.5517 451.899 62.1668 451.899 49.7301C451.899 37.2935 442.157 27.9086 429.233 27.9086Z" fill="url(#paint0_linear_134_2)"/>
<path d="M429.755 0C429.282 0 428.809 0.0164072 428.335 0.0328143H336.674C336.201 0.0328143 335.727 0 335.254 0C307.072 0 285.009 21.477 285.009 48.8934C285.009 76.3097 307.088 97.918 335.254 97.918C335.27 97.918 335.287 97.918 335.303 97.918V98.0164H429.788V97.918C457.937 97.8851 479.984 76.3589 479.984 48.8934C479.984 21.4278 457.937 0 429.755 0ZM429.266 91.2731C404.641 91.2731 385.352 73.0119 385.352 49.7137C385.352 26.4155 404.641 8.26921 429.266 8.26921C453.89 8.26921 473.179 26.4812 473.179 49.7137C473.179 72.9463 453.89 91.2731 429.266 91.2731Z" fill="url(#paint1_linear_134_2)"/>
<path d="M22.1 8.12155H1V89.7144H60.9546V70.0586H22.002L22.1 8.12155Z" fill="black"/>
<path d="M90.7687 8.12155H69.6687V89.7144H90.7687V8.12155Z" fill="black"/>
<path d="M178.367 49.2543V89.7144H199.369V8.12155H179.64L153.465 55.4234L127.73 8.12155H107.561V89.7144H128.546V48.9918L151.148 89.8456H156.125L178.367 49.2543Z" fill="black"/>
<path d="M254.069 8.12155H216.161V89.7144H237.261V64.0044H255.048C273.586 64.0044 285.107 53.3069 285.107 36.0794C285.107 18.8518 272.933 8.12155 254.069 8.12155ZM254.216 44.7095H237.245V27.4984H254.216C260.221 27.4984 263.664 30.6158 263.664 36.063C263.664 41.5101 260.303 44.7095 254.216 44.7095Z" fill="black"/>
<path d="M335.107 6.6449C310.76 6.6449 291.683 25.2014 291.683 48.8934C291.683 72.5853 310.76 91.2567 335.107 91.2567C359.455 91.2567 378.531 72.6509 378.531 48.8934C378.531 25.1358 359.455 6.6449 335.107 6.6449ZM335.058 71.1743C322.281 71.1743 312.653 61.6089 312.653 48.9262C312.653 36.2434 322.281 26.678 335.058 26.678C347.836 26.678 357.464 36.2434 357.464 48.9262C357.464 61.6089 347.836 71.1743 335.058 71.1743Z" fill="black"/>
</g>
<defs>
<linearGradient id="paint0_linear_134_2" x1="478.287" y1="49.7301" x2="293.054" y2="49.7301" gradientUnits="userSpaceOnUse">
<stop offset="0.11"/>
<stop offset="1" stop-opacity="0"/>
</linearGradient>
<linearGradient id="paint1_linear_134_2" x1="479.657" y1="49.0082" x2="292.401" y2="49.0082" gradientUnits="userSpaceOnUse">
<stop offset="0.11"/>
<stop offset="1" stop-opacity="0"/>
</linearGradient>
<clipPath id="clip0_134_2">
<rect width="480" height="98" fill="white"/>
</clipPath>
</defs>
</svg>
