<?xml version="1.0" encoding="UTF-8"?>
<svg id="Camada_2" data-name="Camada 2" xmlns="http://www.w3.org/2000/svg" viewBox="0 0 123.55 32.71">
  <defs>
    <style>
      .cls-1 {
        fill: #fbc06b;
        stroke-width: 0px;
      }
    </style>
  </defs>
  <g id="Layer_3" data-name="Layer 3">
    <g>
      <path class="cls-1" d="m.03.29h14.84s0,3.08,0,3.08H3.39s0,4.55,0,4.55h9.74s0,2.9,0,2.9H3.38s-.01,6.84-.01,6.84H0S.03.29.03.29Z"/>
      <path class="cls-1" d="m17.59.28h3.39s-.03,17.38-.03,17.38h-3.39s.03-17.38.03-17.38Z"/>
      <path class="cls-1" d="m30.21,8.82L23.85.27h4.12s4.39,5.98,4.39,5.98L36.8.27h4.06s-6.51,8.52-6.51,8.52l6.7,8.86h-4.13s-4.71-6.25-4.71-6.25l-4.84,6.25h-4.07s6.92-8.83,6.92-8.83Z"/>
      <path class="cls-1" d="m41,7.57h9.73s0,2.46,0,2.46h-9.73s0-2.46,0-2.46Z"/>
      <path class="cls-1" d="m54.75.26h14.84s0,3.08,0,3.08h-11.47s0,4.55,0,4.55h9.74s0,2.9,0,2.9h-9.74s-.01,6.84-.01,6.84h-3.37s.03-17.38.03-17.38Z"/>
      <path class="cls-1" d="m72.51.25h3.37s-.03,14.29-.03,14.29h9.65s0,3.09,0,3.09h-13.01s.03-17.38.03-17.38Z"/>
      <path class="cls-1" d="m87.12,8.88c0-1.31.23-2.51.7-3.6.46-1.09,1.11-2.03,1.94-2.81.83-.78,1.83-1.39,3-1.82,1.17-.43,2.46-.65,3.87-.65,1.41,0,2.7.21,3.86.64,1.17.43,2.17,1.04,3,1.82.83.78,1.47,1.72,1.93,2.81.46,1.09.69,2.29.68,3.6,0,1.32-.23,2.53-.7,3.63-.46,1.1-1.11,2.05-1.94,2.84-.83.79-1.83,1.41-3,1.85-1.17.44-2.46.66-3.87.66-1.42,0-2.7-.22-3.87-.66-1.16-.44-2.16-1.06-2.99-1.85s-1.47-1.74-1.93-2.84c-.46-1.1-.69-2.31-.68-3.63Zm3.37,0c0,.9.15,1.71.46,2.42.31.72.73,1.33,1.28,1.84.55.51,1.19.9,1.94,1.17.75.27,1.56.41,2.43.41.88,0,1.69-.14,2.44-.41.75-.27,1.39-.67,1.94-1.17s.98-1.12,1.29-1.84c.31-.72.47-1.53.47-2.42,0-.9-.15-1.7-.46-2.41-.31-.71-.74-1.31-1.28-1.81s-1.19-.87-1.93-1.13c-.75-.26-1.56-.39-2.44-.39-.88,0-1.69.13-2.44.39-.75.26-1.4.64-1.94,1.13-.55.49-.98,1.09-1.29,1.81-.31.71-.46,1.52-.47,2.42Z"/>
      <path class="cls-1" d="m114.05,3.32h-6.12s0-3.09,0-3.09h15.61s0,3.08,0,3.08h-6.12s-.03,14.29-.03,14.29h-3.37s.03-14.29.03-14.29Z"/>
    </g>
    <g>
      <g>
        <path class="cls-1" d="m12.89,26.12h-1.88v4.83h-1.18v-4.83h-1.88v-1.01h4.95v1.01Z"/>
        <path class="cls-1" d="m16.59,30.76c-.61.18-1.15.28-1.78.28-1.47,0-2.25-.72-2.25-2.32s.83-2.32,2.15-2.32c1.55,0,1.96,1,1.96,2.12v.51h-2.91c0,.75.51,1.01,1.34,1.01.39,0,1-.11,1.49-.27v.98Zm-1.09-2.55c0-.41-.14-.92-.86-.92-.58,0-.88.42-.88.92h1.74Z"/>
        <path class="cls-1" d="m20.91,29.86v.99c-.46.14-.89.19-1.4.19-1.1,0-2.24-.49-2.24-2.32s1.14-2.32,2.24-2.32c.51,0,.94.06,1.4.19v1c-.41-.12-.82-.19-1.22-.19-.8,0-1.26.37-1.26,1.32,0,.78.37,1.33,1.26,1.33.4,0,.81-.08,1.22-.19Z"/>
        <path class="cls-1" d="m24.55,30.95v-2.99c0-.34-.13-.52-.5-.52-.33,0-.77.19-1.16.39v3.12h-1.14v-4.45h1.07v.47h.03c.54-.33,1.08-.57,1.55-.57.8,0,1.3.39,1.3,1.33v3.21h-1.14Z"/>
        <path class="cls-1" d="m28.71,31.05c-1.27,0-2.26-.7-2.26-2.32s.99-2.32,2.26-2.32,2.26.72,2.26,2.32-.99,2.32-2.26,2.32Zm0-3.66c-.77,0-1.1.49-1.1,1.34s.32,1.35,1.1,1.35,1.09-.49,1.09-1.35-.32-1.34-1.09-1.34Z"/>
        <path class="cls-1" d="m32.93,30.95h-1.14v-6.19h1.14v6.19Z"/>
        <path class="cls-1" d="m35.99,31.05c-1.27,0-2.26-.7-2.26-2.32s.99-2.32,2.26-2.32,2.26.72,2.26,2.32-.99,2.32-2.26,2.32Zm0-3.66c-.77,0-1.1.49-1.1,1.34s.32,1.35,1.1,1.35,1.09-.49,1.09-1.35-.32-1.34-1.09-1.34Z"/>
        <path class="cls-1" d="m40.78,26.4c.45,0,.97.1,1.53.1.32,0,.66-.02.98-.09v.9c-.24,0-.55,0-.84,0,.19.18.31.44.31.75,0,1.07-.87,1.47-1.93,1.47-.14,0-.37,0-.58-.03-.06.09-.1.2-.1.32,0,.17.09.3.32.3h1.3c.75,0,1.41.2,1.41,1.15,0,1-.93,1.44-2.47,1.44-1.34,0-1.95-.36-1.95-1.08,0-.41.17-.78.74-.96v-.05c-.24-.14-.35-.39-.35-.58,0-.26.13-.57.44-.75-.46-.22-.76-.64-.76-1.25,0-1,.72-1.63,1.96-1.63Zm-.23,4.58c-.32.02-.62.15-.62.51s.3.43.92.43c.74,0,1.14-.13,1.14-.54,0-.28-.19-.4-.47-.4h-.97Zm.24-3.69c-.58,0-.81.28-.81.73s.23.72.81.72.8-.26.8-.73c0-.44-.23-.72-.8-.72Z"/>
        <path class="cls-1" d="m45.09,25.96h-1.18v-1.07h1.18v1.07Zm-.02,4.99h-1.14v-4.45h1.14v4.45Z"/>
        <path class="cls-1" d="m48.56,28.24v-.29c0-.36-.22-.6-.92-.6-.37,0-1.01.07-1.44.2v-.96c.56-.12,1.24-.19,1.73-.19,1.11,0,1.79.54,1.79,1.61v2.93h-.98l-.08-.46h-.03c-.48.34-.96.53-1.41.53-.77,0-1.39-.47-1.39-1.41,0-.84.61-1.36,1.7-1.36h1.05Zm0,.75h-.86c-.5,0-.73.19-.73.52,0,.37.26.55.62.55s.71-.14.97-.31v-.76Z"/>
      </g>
      <g>
        <polygon class="cls-1" points="54.44 25.17 53.43 25.17 53.43 30.94 57.09 30.94 57.09 30.06 54.44 30.06 54.44 25.17"/>
        <polygon class="cls-1" points="60.73 24.78 59.7 24.78 59.2 26.01 59.96 26.01 60.73 24.78"/>
        <path class="cls-1" d="m59.63,26.47c-1.2,0-2.19.66-2.19,2.28s.99,2.28,2.19,2.28,2.2-.67,2.2-2.28-1-2.28-2.2-2.28Zm0,3.72c-.84,0-1.19-.54-1.19-1.44s.35-1.43,1.19-1.43,1.18.54,1.18,1.43-.34,1.44-1.18,1.44Z"/>
        <path class="cls-1" d="m63.84,25.6h-.32l-1.24,1.19v.61h.57v2.61c0,.83.49,1.01,1.03,1.01.34,0,.78-.06,1.12-.13v-.84c-.19.06-.42.1-.62.1-.28,0-.54-.11-.54-.48v-2.27h1.34v-.83h-1.33v-.97Z"/>
        <path class="cls-1" d="m68.67,29.71c-.43.24-.91.43-1.27.43-.42,0-.58-.21-.58-.58v-3h-.98v3.19c0,.88.48,1.28,1.27,1.28.49,0,1.03-.23,1.6-.58h.03l.08.48h.83v-4.37h-.98v3.15Z"/>
        <path class="cls-1" d="m72.45,28.3c-.52-.08-.89-.15-.89-.51,0-.33.26-.48.92-.48.34,0,.82.06,1.15.12l.03-.85c-.38-.06-.86-.11-1.29-.11-1.05,0-1.82.35-1.82,1.37,0,.96.74,1.17,1.36,1.27.55.09.97.14.97.54,0,.37-.26.56-.85.56-.37,0-.91-.06-1.42-.14l-.03.87c.39.05,1.03.1,1.5.1,1.19,0,1.81-.48,1.81-1.43,0-1.03-.77-1.19-1.44-1.3Z"/>
        <path class="cls-1" d="m90.15,26.66c-.53,0-1.04.25-1.58.62-.19-.42-.6-.62-1.1-.62s-1.01.26-1.48.57h-.03v-.48h-.9v4.29h.97v-3.08c.41-.26.78-.43,1.12-.43.41,0,.59.2.59.57v2.94h.96v-3.08c.36-.26.86-.43,1.13-.43.41,0,.58.2.58.57v2.94h.97v-3.11c0-.89-.51-1.27-1.22-1.27Z"/>
        <path class="cls-1" d="m94.93,26.66c-.48,0-1.02.24-1.57.57h-.03v-.48h-.89v4.29h.96v-3.08c.43-.24.89-.43,1.25-.43.42,0,.57.2.57.57v2.94h.96v-3.12c0-.87-.46-1.26-1.24-1.26Z"/>
        <rect class="cls-1" x="97.21" y="25.22" width=".99" height=".96"/>
        <rect class="cls-1" x="97.23" y="26.76" width=".97" height="4.29"/>
        <path class="cls-1" d="m85.63,25.14s.08.02.12.02c.12,0,.23-.05.32-.13l1.03-1.02c.12-.11.16-.28.12-.44l-.37-1.41c-.04-.16-.16-.28-.32-.32l-1.4-.38s-.08-.02-.12-.02c-.12,0-.23.05-.32.13l-1.02,1.01-1.05-.41s0-.07-.01-.1l-.24-.92c-.05-.18-.18-.31-.36-.36l-.92-.25s-.09-.02-.13-.02c-.13,0-.26.05-.36.15l-.68.67c-.13.13-.18.31-.13.49l.24.92c.05.18.18.31.36.36l.92.25s.09.02.13.02c.13,0,.26-.05.36-.15l.66-.66,1.08.42s0,.02,0,.04l.31,1.18-1.21,1.03-2.77-.76s-.08-.02-.12-.02c-.12,0-.23.05-.32.13l-2.26,2.24c-.11.11-.16.28-.12.44l.81,3.08c.04.16.16.28.32.32l3.07.84s.08.02.12.02c.12,0,.23-.05.32-.13l2.26-2.24c.11-.11.16-.28.12-.44l-.75-2.84,1.22-1.04,1.09.3Zm-3.43-2.85l-.68.67s-.06.04-.09.04c-.01,0-.02,0-.04,0l-.92-.25s-.08-.05-.09-.1l-.24-.92s0-.1.04-.13l.68-.67s.06-.04.09-.04c.01,0,.02,0,.04,0l.92.25s.08.05.09.1l.24.92s0,.1-.04.13Zm-.98,8.25l-2.54-.69-.67-2.54,1.87-1.85,2.54.69.67,2.54-1.87,1.85Zm2.94-7.57l.9-.89,1.22.33.32,1.22-.9.89-1.22-.33-.32-1.22Z"/>
        <path class="cls-1" d="m99.7,24.24h0c.11-.02.17-.1.17-.19s-.05-.2-.3-.2c-.07,0-.16,0-.22.02v.72h.09v-.32h.14c.1,0,.14.05.16.14.03.11.04.16.06.18h.1s-.04-.11-.07-.22c-.02-.06-.06-.12-.13-.13Zm-.11-.04h-.15v-.26s.07-.01.13-.01c.13,0,.21.05.21.14,0,.08-.06.14-.19.14Z"/>
        <path class="cls-1" d="m99.6,23.52c-.38,0-.69.31-.69.69s.31.69.69.69.69-.31.69-.69-.31-.69-.69-.69Zm0,1.34c-.36,0-.64-.29-.64-.64s.29-.64.64-.64.64.29.64.64-.29.64-.64.64Z"/>
      </g>
      <g>
        <path class="cls-1" d="m107.14,25.24v1.01h-2.81v1.58h2.44v1.01h-2.44v2.24h-1.18v-5.84h3.99Z"/>
        <path class="cls-1" d="m107.93,25.24h1.18v5.84h-1.18v-5.84Z"/>
        <path class="cls-1" d="m111.23,25.24l1.18,2,1.12-2h1.38l-1.75,2.83,1.86,3.01h-1.4l-1.25-2.07-1.23,2.07h-1.4l1.89-3.04-1.78-2.8h1.39Z"/>
      </g>
    </g>
  </g>
</svg>