<svg width="506" height="123" viewBox="0 0 506 123" fill="none" xmlns="http://www.w3.org/2000/svg">
<path d="M121.524 86.1625C120.034 86.0725 118.554 86.0325 117.074 85.8925C116.114 85.8025 115.164 85.5825 114.214 85.3625C113.054 85.0825 111.904 84.7725 110.764 84.4225C108.444 83.6925 106.284 82.6125 104.224 81.3425C101.354 79.5725 98.7638 77.4425 96.6339 74.8325C94.2738 71.9425 92.2338 68.8325 90.9639 65.2825C90.5238 64.0525 90.1439 62.7925 89.8039 61.5225C89.5439 60.5725 89.3639 59.5925 89.2139 58.6125C89.0639 57.6325 88.9639 56.6425 88.9239 55.6525C88.8738 54.5425 88.8839 53.4325 88.9239 52.3225C88.9438 51.6625 89.0339 51.0025 89.1139 50.3525C89.2439 49.3025 89.3439 48.2525 89.5539 47.2225C90.2739 43.6125 91.4239 40.1325 92.9139 36.7625C94.5539 33.0325 96.5039 29.4725 98.7539 26.0825C100.294 23.7625 101.864 21.4725 103.534 19.2525C105.174 17.0825 106.934 14.9925 108.714 12.9225C110.304 11.0825 111.974 9.29253 113.664 7.53253C115.254 5.88253 116.914 4.30253 118.554 2.71253C118.984 2.29253 119.444 1.91253 119.914 1.53253C120.774 0.822526 121.634 0.812526 122.454 1.56253C124.044 3.01253 125.614 4.47253 127.154 5.98253C128.524 7.32253 129.864 8.68253 131.144 10.1125C133.034 12.2225 134.894 14.3625 136.694 16.5525C138.244 18.4525 139.724 20.4225 141.174 22.4125C143.494 25.6225 145.594 28.9725 147.414 32.4925C148.964 35.4725 150.354 38.5225 151.324 41.7525C151.754 43.1625 152.154 44.5825 152.504 46.0025C152.944 47.7925 153.224 49.6225 153.324 51.4725C153.374 52.4425 153.454 53.4125 153.434 54.3825C153.414 55.3225 153.314 56.2525 153.214 57.1925C153.124 58.0725 153.014 58.9525 152.874 59.8225C152.774 60.4425 152.634 61.0525 152.464 61.6625C152.214 62.5625 151.974 63.4725 151.664 64.3625C151.004 66.2425 150.234 68.0925 149.234 69.8225C147.954 72.0525 146.444 74.1025 144.684 75.9725C141.434 79.4225 137.634 82.0925 133.214 83.8225C131.744 84.3925 130.244 84.9025 128.714 85.2725C127.284 85.6225 125.804 85.7925 124.334 85.9825C123.404 86.1025 122.464 86.1125 121.524 86.1825V86.1625ZM33.6339 86.1625C32.1439 86.0725 30.6639 86.0325 29.1839 85.8925C28.2239 85.8025 27.2739 85.5825 26.3239 85.3625C25.1639 85.0825 24.0139 84.7725 22.8739 84.4225C20.5539 83.6925 18.3939 82.6125 16.3339 81.3425C13.4639 79.5725 10.8739 77.4425 8.74385 74.8325C6.38385 71.9425 4.34385 68.8325 3.07385 65.2825C2.63385 64.0525 2.25385 62.7925 1.91385 61.5225C1.65385 60.5725 1.47385 59.5925 1.32385 58.6125C1.17385 57.6325 1.07385 56.6425 1.03385 55.6525C0.983854 54.5425 0.993854 53.4325 1.03385 52.3225C1.05385 51.6625 1.14385 51.0025 1.22385 50.3525C1.35385 49.3025 1.45385 48.2525 1.66385 47.2225C2.38385 43.6125 3.53385 40.1325 5.02385 36.7625C6.66385 33.0325 8.61385 29.4725 10.8639 26.0825C12.4039 23.7625 13.9739 21.4725 15.6439 19.2525C17.2839 17.0825 19.0439 14.9925 20.8239 12.9225C22.4139 11.0825 24.0839 9.29253 25.7739 7.53253C27.3639 5.88253 29.0239 4.30253 30.6639 2.71253C31.0939 2.29253 31.5539 1.91253 32.0239 1.53253C32.8839 0.822526 33.7439 0.812526 34.5639 1.56253C36.1539 3.01253 37.7239 4.47253 39.2639 5.98253C40.6339 7.32253 41.9739 8.68253 43.2539 10.1125C45.1439 12.2225 47.0039 14.3625 48.8039 16.5525C50.3539 18.4525 51.8339 20.4225 53.2839 22.4125C55.6039 25.6225 57.7039 28.9725 59.5239 32.4925C61.0739 35.4725 62.4639 38.5225 63.4339 41.7525C63.8639 43.1625 64.2639 44.5825 64.6139 46.0025C65.0539 47.7925 65.3339 49.6225 65.4339 51.4725C65.4839 52.4425 65.5639 53.4125 65.5439 54.3825C65.5239 55.3225 65.4239 56.2525 65.3239 57.1925C65.2339 58.0725 65.1239 58.9525 64.9839 59.8225C64.8839 60.4425 64.7439 61.0525 64.5739 61.6625C64.3239 62.5625 64.0839 63.4725 63.7739 64.3625C63.1139 66.2425 62.3439 68.0925 61.3439 69.8225C60.0639 72.0525 58.5539 74.1025 56.7939 75.9725C53.5439 79.4225 49.7439 82.0925 45.3239 83.8225C43.8539 84.3925 42.3539 84.9025 40.8239 85.2725C39.3939 85.6225 37.9139 85.7925 36.4439 85.9825C35.5139 86.1025 34.5739 86.1125 33.6339 86.1825V86.1625ZM209.424 86.1625C207.934 86.0725 206.454 86.0325 204.974 85.8925C204.014 85.8025 203.064 85.5825 202.114 85.3625C200.954 85.0825 199.804 84.7725 198.664 84.4225C196.344 83.6925 194.184 82.6125 192.124 81.3425C189.254 79.5725 186.664 77.4425 184.534 74.8325C182.174 71.9425 180.134 68.8325 178.864 65.2825C178.424 64.0525 178.044 62.7925 177.704 61.5225C177.444 60.5725 177.264 59.5925 177.114 58.6125C176.964 57.6325 176.864 56.6425 176.824 55.6525C176.774 54.5425 176.784 53.4325 176.824 52.3225C176.844 51.6625 176.934 51.0025 177.014 50.3525C177.144 49.3025 177.244 48.2525 177.454 47.2225C178.174 43.6125 179.324 40.1325 180.814 36.7625C182.454 33.0325 184.404 29.4725 186.654 26.0825C188.194 23.7625 189.764 21.4725 191.434 19.2525C193.074 17.0825 194.834 14.9925 196.614 12.9225C198.204 11.0825 199.874 9.29253 201.564 7.53253C203.154 5.88253 204.814 4.30253 206.454 2.71253C206.884 2.29253 207.344 1.91253 207.814 1.53253C208.674 0.822526 209.534 0.812526 210.354 1.56253C211.944 3.01253 213.514 4.47253 215.054 5.98253C216.424 7.32253 217.764 8.68253 219.044 10.1125C220.934 12.2225 222.794 14.3625 224.594 16.5525C226.144 18.4525 227.624 20.4225 229.074 22.4125C231.394 25.6225 233.494 28.9725 235.314 32.4925C236.864 35.4725 238.254 38.5225 239.224 41.7525C239.654 43.1625 240.054 44.5825 240.404 46.0025C240.844 47.7925 241.124 49.6225 241.224 51.4725C241.274 52.4425 241.354 53.4125 241.334 54.3825C241.314 55.3225 241.214 56.2525 241.114 57.1925C241.024 58.0725 240.914 58.9525 240.774 59.8225C240.674 60.4425 240.534 61.0525 240.364 61.6625C240.114 62.5625 239.874 63.4725 239.564 64.3625C238.904 66.2425 238.134 68.0925 237.134 69.8225C235.854 72.0525 234.344 74.1025 232.584 75.9725C229.334 79.4225 225.534 82.0925 221.114 83.8225C219.644 84.3925 218.144 84.9025 216.614 85.2725C215.184 85.6225 213.704 85.7925 212.234 85.9825C211.304 86.1025 210.364 86.1125 209.424 86.1825V86.1625ZM297.314 86.1625C295.824 86.0725 294.344 86.0325 292.864 85.8925C291.904 85.8025 290.954 85.5825 290.004 85.3625C288.844 85.0825 287.694 84.7725 286.554 84.4225C284.234 83.6925 282.074 82.6125 280.014 81.3425C277.144 79.5725 274.554 77.4425 272.424 74.8325C270.064 71.9425 268.024 68.8325 266.754 65.2825C266.314 64.0525 265.934 62.7925 265.594 61.5225C265.334 60.5725 265.154 59.5925 265.004 58.6125C264.854 57.6325 264.754 56.6425 264.714 55.6525C264.664 54.5425 264.674 53.4325 264.714 52.3225C264.734 51.6625 264.824 51.0025 264.904 50.3525C265.034 49.3025 265.134 48.2525 265.344 47.2225C266.064 43.6125 267.214 40.1325 268.704 36.7625C270.344 33.0325 272.294 29.4725 274.544 26.0825C276.084 23.7625 277.654 21.4725 279.324 19.2525C280.964 17.0825 282.724 14.9925 284.504 12.9225C286.094 11.0825 287.764 9.29253 289.454 7.53253C291.044 5.88253 292.704 4.30253 294.344 2.71253C294.774 2.29253 295.234 1.91253 295.704 1.53253C296.564 0.822526 297.424 0.812526 298.244 1.56253C299.834 3.01253 301.404 4.47253 302.944 5.98253C304.314 7.32253 305.654 8.68253 306.934 10.1125C308.824 12.2225 310.684 14.3625 312.484 16.5525C314.034 18.4525 315.514 20.4225 316.964 22.4125C319.284 25.6225 321.384 28.9725 323.204 32.4925C324.754 35.4725 326.144 38.5225 327.114 41.7525C327.544 43.1625 327.944 44.5825 328.294 46.0025C328.734 47.7925 329.014 49.6225 329.114 51.4725C329.164 52.4425 329.244 53.4125 329.224 54.3825C329.204 55.3225 329.104 56.2525 329.004 57.1925C328.914 58.0725 328.804 58.9525 328.664 59.8225C328.564 60.4425 328.424 61.0525 328.254 61.6625C328.004 62.5625 327.764 63.4725 327.454 64.3625C326.794 66.2425 326.024 68.0925 325.024 69.8225C323.744 72.0525 322.234 74.1025 320.474 75.9725C317.224 79.4225 313.424 82.0925 309.004 83.8225C307.534 84.3925 306.034 84.9025 304.504 85.2725C303.074 85.6225 301.594 85.7925 300.124 85.9825C299.194 86.1025 298.254 86.1125 297.314 86.1825V86.1625ZM385.204 86.1625C383.714 86.0725 382.234 86.0325 380.754 85.8925C379.794 85.8025 378.844 85.5825 377.894 85.3625C376.734 85.0825 375.584 84.7725 374.444 84.4225C372.124 83.6925 369.964 82.6125 367.904 81.3425C365.034 79.5725 362.444 77.4425 360.314 74.8325C357.954 71.9425 355.914 68.8325 354.644 65.2825C354.204 64.0525 353.824 62.7925 353.484 61.5225C353.224 60.5725 353.044 59.5925 352.894 58.6125C352.744 57.6325 352.644 56.6425 352.604 55.6525C352.554 54.5425 352.564 53.4325 352.604 52.3225C352.624 51.6625 352.714 51.0025 352.794 50.3525C352.924 49.3025 353.024 48.2525 353.234 47.2225C353.954 43.6125 355.104 40.1325 356.594 36.7625C358.234 33.0325 360.184 29.4725 362.434 26.0825C363.974 23.7625 365.544 21.4725 367.214 19.2525C368.854 17.0825 370.614 14.9925 372.394 12.9225C373.984 11.0825 375.654 9.29253 377.344 7.53253C378.934 5.88253 380.594 4.30253 382.234 2.71253C382.664 2.29253 383.124 1.91253 383.594 1.53253C384.454 0.822526 385.314 0.812526 386.134 1.56253C387.724 3.01253 389.294 4.47253 390.834 5.98253C392.204 7.32253 393.544 8.68253 394.824 10.1125C396.714 12.2225 398.574 14.3625 400.374 16.5525C401.924 18.4525 403.404 20.4225 404.854 22.4125C407.174 25.6225 409.274 28.9725 411.094 32.4925C412.644 35.4725 414.034 38.5225 415.004 41.7525C415.434 43.1625 415.834 44.5825 416.184 46.0025C416.624 47.7925 416.904 49.6225 417.004 51.4725C417.054 52.4425 417.134 53.4125 417.114 54.3825C417.094 55.3225 416.994 56.2525 416.894 57.1925C416.804 58.0725 416.694 58.9525 416.554 59.8225C416.454 60.4425 416.314 61.0525 416.144 61.6625C415.894 62.5625 415.654 63.4725 415.344 64.3625C414.684 66.2425 413.914 68.0925 412.914 69.8225C411.634 72.0525 410.124 74.1025 408.364 75.9725C405.114 79.4225 401.314 82.0925 396.894 83.8225C395.424 84.3925 393.924 84.9025 392.394 85.2725C390.964 85.6225 389.484 85.7925 388.014 85.9825C387.084 86.1025 386.144 86.1125 385.204 86.1825V86.1625ZM473.094 86.1625C471.604 86.0725 470.124 86.0325 468.644 85.8925C467.684 85.8025 466.734 85.5825 465.784 85.3625C464.624 85.0825 463.474 84.7725 462.334 84.4225C460.014 83.6925 457.854 82.6125 455.794 81.3425C452.924 79.5725 450.334 77.4425 448.204 74.8325C445.844 71.9425 443.804 68.8325 442.534 65.2825C442.094 64.0525 441.714 62.7925 441.374 61.5225C441.114 60.5725 440.934 59.5925 440.784 58.6125C440.634 57.6325 440.534 56.6425 440.494 55.6525C440.444 54.5425 440.454 53.4325 440.494 52.3225C440.514 51.6625 440.604 51.0025 440.684 50.3525C440.814 49.3025 440.914 48.2525 441.124 47.2225C441.844 43.6125 442.994 40.1325 444.484 36.7625C446.124 33.0325 448.074 29.4725 450.324 26.0825C451.864 23.7625 453.434 21.4725 455.104 19.2525C456.744 17.0825 458.504 14.9925 460.284 12.9225C461.874 11.0825 463.544 9.29253 465.234 7.53253C466.824 5.88253 468.484 4.30253 470.124 2.71253C470.554 2.29253 471.014 1.91253 471.484 1.53253C472.344 0.822526 473.204 0.812526 474.024 1.56253C475.614 3.01253 477.184 4.47253 478.724 5.98253C480.094 7.32253 481.434 8.68253 482.714 10.1125C484.604 12.2225 486.464 14.3625 488.264 16.5525C489.814 18.4525 491.294 20.4225 492.744 22.4125C495.064 25.6225 497.164 28.9725 498.984 32.4925C500.534 35.4725 501.924 38.5225 502.894 41.7525C503.324 43.1625 503.724 44.5825 504.074 46.0025C504.514 47.7925 504.794 49.6225 504.894 51.4725C504.944 52.4425 505.024 53.4125 505.004 54.3825C504.984 55.3225 504.884 56.2525 504.784 57.1925C504.694 58.0725 504.584 58.9525 504.444 59.8225C504.344 60.4425 504.204 61.0525 504.034 61.6625C503.784 62.5625 503.544 63.4725 503.234 64.3625C502.574 66.2425 501.804 68.0925 500.804 69.8225C499.524 72.0525 498.014 74.1025 496.254 75.9725C493.004 79.4225 489.204 82.0925 484.784 83.8225C483.314 84.3925 481.814 84.9025 480.284 85.2725C478.854 85.6225 477.374 85.7925 475.904 85.9825C474.974 86.1025 474.034 86.1125 473.094 86.1825V86.1625ZM121.274 121.583V104.263H116.144V100.863C120.444 100.863 121.884 99.4325 122.184 96.5225H126.184V121.573H121.274V121.583ZM200.524 121.583C200.564 116.943 201.654 113.733 208.074 109.133C211.654 106.563 212.714 105.283 212.714 103.173C212.714 100.643 211.164 99.8925 209.244 99.8925C207.014 99.8925 205.584 100.983 205.584 104.343H200.864C200.864 98.9425 203.884 95.7025 209.014 95.7025C214.144 95.7025 217.504 98.0825 217.504 103.023C217.504 106.833 215.614 109.023 210.264 112.833C208.344 114.233 206.904 116.043 206.794 117.323H217.584V121.583H200.534H200.524ZM294.864 106.903C299.094 106.903 299.954 105.313 299.954 103.473C299.954 100.983 298.974 99.6225 296.704 99.6225C294.814 99.6225 293.384 101.133 293.384 103.733H288.814C288.814 98.9425 292.134 95.6925 296.884 95.6925C301.224 95.6925 304.654 98.4825 304.654 102.523C304.654 104.783 303.674 107.013 301.714 108.143C304.094 109.123 305.454 111.163 305.454 114.333C305.454 119.353 301.874 122.443 296.624 122.443C291.374 122.443 288.394 119.313 288.394 114.213H293.114C293.114 117.123 294.394 118.403 296.854 118.403C298.894 118.403 300.434 116.893 300.434 114.253C300.434 111.313 298.924 110.333 294.854 110.333V106.903H294.864ZM385.834 121.583V116.113H376.104V111.853L385.234 96.5325H390.744V112.303H393.574V116.113H390.744V121.583H385.834ZM385.944 103.473L380.814 112.303H385.944V103.473ZM464.314 111.733L464.844 96.5225H480.274V100.673H469.214L468.984 107.393C470.304 105.993 472.114 105.623 473.964 105.623C478.034 105.623 481.204 108.493 481.204 113.513C481.204 118.913 477.654 122.453 472.564 122.453C467.994 122.453 464.414 119.433 464.224 115.133H469.134C469.324 117.213 470.604 118.453 472.564 118.453C475.284 118.453 476.304 116.563 476.304 113.733C476.304 111.133 475.174 109.583 472.874 109.583C471.104 109.583 470.044 110.343 469.364 111.733H464.304H464.314ZM26.2039 107.953C26.2039 100.243 28.7739 97.0825 33.2039 97.0825C37.6339 97.0825 40.3239 100.243 40.3239 107.893C40.3239 115.543 37.6339 119.043 33.2039 119.043C28.7739 119.043 26.2039 115.703 26.2039 107.953ZM36.2339 108.073C36.2339 102.373 35.2739 100.303 33.3239 100.303C31.3739 100.303 30.3839 102.343 30.3839 108.013C30.3839 113.683 31.3739 115.783 33.3239 115.783C35.2739 115.783 36.2339 113.673 36.2339 108.073Z" fill="url(#paint0_linear_394_7)" stroke="white" stroke-width="0.5" stroke-miterlimit="10"/>
<defs>
<linearGradient id="paint0_linear_394_7" x1="1.00385" y1="61.7225" x2="505.004" y2="61.7225" gradientUnits="userSpaceOnUse">
<stop stop-color="#C1272D"/>
<stop offset="0.48" stop-color="#F15A24"/>
<stop offset="1" stop-color="#FCEE21"/>
</linearGradient>
</defs>
</svg>
