<svg width="918" height="116" viewBox="0 0 918 116" fill="none" xmlns="http://www.w3.org/2000/svg">
<g clip-path="url(#clip0_555_8)">
<path d="M40.25 2.58007C68.43 2.58007 85.33 17.8801 85.33 40.9001C85.33 63.9201 68.42 79.2201 40.25 79.2201H33.65V111.42C33.65 112.55 32.52 113.67 31.07 113.67H2.25C1.12 113.67 0 112.54 0 111.42V4.99007C0 3.70007 1.13 2.57007 2.25 2.57007H40.25V2.58007ZM41.7 50.4001C47.34 50.4001 51.2 46.5401 51.2 40.9001C51.2 35.2601 47.34 31.4001 41.7 31.4001H33.33V50.4001H41.7Z" fill="white"/>
<path d="M147.65 115.93C113.35 115.93 90.49 92.74 90.49 58.13C90.49 23.52 113.35 0 147.65 0C181.95 0 204.81 23.19 204.81 58.12C204.81 93.05 181.95 115.92 147.65 115.92V115.93ZM147.65 32.53C134.45 32.53 125.59 42.83 125.59 58.13C125.59 73.43 134.45 83.73 147.65 83.73C160.85 83.73 169.71 73.43 169.71 58.13C169.71 42.83 160.85 32.53 147.65 32.53Z" fill="white"/>
<path d="M356.63 2.58007C358.24 2.58007 359.05 3.87007 358.56 5.32007L329.26 111.1C328.78 112.55 327.17 113.68 325.72 113.68H297.7C296.25 113.68 294.32 112.55 294 111.1L279.35 54.4201L264.7 111.1C264.38 112.55 262.45 113.68 261 113.68H232.98C231.53 113.68 229.92 112.55 229.44 111.1L200.13 5.31007C199.65 3.86007 200.45 2.57007 202.06 2.57007H238.13C239.74 2.57007 241.51 3.86007 241.83 5.31007L251.01 53.4501L263.41 5.31007C263.89 3.70007 265.83 2.57007 267.76 2.57007H290.95C292.88 2.57007 294.81 3.70007 295.3 5.31007L307.7 53.4501L316.88 5.31007C317.2 3.86007 318.97 2.57007 320.58 2.57007H356.65L356.63 2.58007Z" fill="white"/>
<path d="M440.04 84.6901C441.33 84.6901 442.46 85.6601 442.46 86.7801V111.41C442.46 112.54 441.33 113.66 440.04 113.66H365.17C364.04 113.66 362.92 112.37 362.59 111.24V4.83008C362.59 3.38008 363.39 2.58008 364.84 2.58008H438.1C439.55 2.58008 440.68 3.71008 440.68 4.83008V29.1401C440.68 30.5901 439.55 31.5601 438.1 31.5601H396.08V44.2801H430.21C431.66 44.2801 432.46 45.4101 432.3 46.3701L430.05 68.9101C429.89 69.8801 428.76 71.0001 427.31 71.0001H396.07V84.6901H440.03H440.04Z" fill="white"/>
<path d="M543.4 111.1C544.2 112.55 543.08 113.68 541.63 113.68H507.17C505.56 113.68 504.11 112.55 503.47 111.1L486.72 76.0001H484.79V111.42C484.79 112.55 483.66 113.67 482.21 113.67H453.87C452.58 113.67 451.45 112.54 451.45 111.42V4.99007C451.45 3.70007 452.58 2.57007 453.87 2.57007H496.38C521.17 2.57007 537.6 17.0601 537.6 38.9601C537.6 51.6801 529.87 64.5601 517.8 69.7101L543.4 111.09V111.1ZM494.29 48.6301C499.76 48.6301 503.47 45.2501 503.47 40.1001C503.47 34.9501 499.77 31.5701 494.29 31.5701H484.79V48.6401H494.29V48.6301Z" fill="white"/>
<path d="M653.53 2.58007C654.98 2.58007 655.95 3.71007 655.78 4.83007L653.36 29.3001C653.2 30.5901 651.91 31.5501 650.78 31.5501H626.79V111.41C626.79 112.54 625.82 113.66 624.54 113.66H596.04C594.75 113.66 593.62 112.53 593.62 111.41V31.5601H566.89C565.76 31.5601 564.64 30.5901 564.64 29.3101V4.99007C564.64 3.70007 565.77 2.57007 566.89 2.57007H653.51L653.53 2.58007Z" fill="white"/>
<path d="M753.52 111.1C754.32 112.55 753.2 113.68 751.75 113.68H717.29C715.68 113.68 714.23 112.55 713.59 111.1L696.84 76.0001H694.91V111.42C694.91 112.55 693.78 113.67 692.33 113.67H663.99C662.7 113.67 661.57 112.54 661.57 111.42V4.99007C661.57 3.70007 662.7 2.57007 663.99 2.57007H706.5C731.29 2.57007 747.72 17.0601 747.72 38.9601C747.72 51.6801 739.99 64.5601 727.92 69.7101L753.52 111.09V111.1ZM704.41 48.6301C709.88 48.6301 713.59 45.2501 713.59 40.1001C713.59 34.9501 709.89 31.5701 704.41 31.5701H694.91V48.6401H704.41V48.6301Z" fill="white"/>
<path d="M790.39 2.58007C791.84 2.58007 792.81 3.71007 792.81 5.00007V111.43C792.81 112.56 791.84 113.68 790.39 113.68H761.89C760.76 113.68 759.64 112.55 759.64 111.43V4.99007C759.64 3.70007 760.77 2.57007 761.89 2.57007H790.39V2.58007Z" fill="white"/>
<path d="M859.95 115.93C825.66 115.93 802.79 92.74 802.79 58.13C802.79 23.52 825.65 0 859.95 0C894.25 0 917.11 23.19 917.11 58.12C917.11 93.05 894.25 115.92 859.95 115.92V115.93ZM859.95 32.53C846.75 32.53 837.89 42.83 837.89 58.13C837.89 73.43 846.75 83.73 859.95 83.73C873.15 83.73 882.01 73.43 882.01 58.13C882.01 42.83 873.15 32.53 859.95 32.53Z" fill="white"/>
</g>
<defs>
<clipPath id="clip0_555_8">
<rect width="917.1" height="115.93" fill="white"/>
</clipPath>
</defs>
</svg>
