<svg width="579" height="72" viewBox="0 0 579 72" fill="none" xmlns="http://www.w3.org/2000/svg">
<path d="M0.454546 71V1.18182H24.0455C29.5227 1.18182 34 2.17045 37.4773 4.14772C40.9773 6.10227 43.5682 8.75 45.25 12.0909C46.9318 15.4318 47.7727 19.1591 47.7727 23.2727C47.7727 27.3864 46.9318 31.125 45.25 34.4886C43.5909 37.8523 41.0227 40.5341 37.5455 42.5341C34.0682 44.5114 29.6136 45.5 24.1818 45.5H7.27273V38H23.9091C27.6591 38 30.6705 37.3523 32.9432 36.0568C35.2159 34.7614 36.8636 33.0114 37.8864 30.8068C38.9318 28.5795 39.4545 26.0682 39.4545 23.2727C39.4545 20.4773 38.9318 17.9773 37.8864 15.7727C36.8636 13.5682 35.2045 11.8409 32.9091 10.5909C30.6136 9.31818 27.5682 8.68182 23.7727 8.68182H8.90909V71H0.454546ZM120.301 36.0909C120.301 43.4545 118.972 49.8182 116.312 55.1818C113.653 60.5455 110.006 64.6818 105.369 67.5909C100.733 70.5 95.4375 71.9545 89.483 71.9545C83.5284 71.9545 78.233 70.5 73.5966 67.5909C68.9602 64.6818 65.3125 60.5455 62.6534 55.1818C59.9943 49.8182 58.6648 43.4545 58.6648 36.0909C58.6648 28.7273 59.9943 22.3636 62.6534 17C65.3125 11.6364 68.9602 7.5 73.5966 4.59091C78.233 1.68182 83.5284 0.22727 89.483 0.22727C95.4375 0.22727 100.733 1.68182 105.369 4.59091C110.006 7.5 113.653 11.6364 116.312 17C118.972 22.3636 120.301 28.7273 120.301 36.0909ZM112.119 36.0909C112.119 30.0455 111.108 24.9432 109.085 20.7841C107.085 16.625 104.369 13.4773 100.938 11.3409C97.5284 9.20454 93.7102 8.13636 89.483 8.13636C85.2557 8.13636 81.4261 9.20454 77.9943 11.3409C74.5852 13.4773 71.8693 16.625 69.8466 20.7841C67.8466 24.9432 66.8466 30.0455 66.8466 36.0909C66.8466 42.1364 67.8466 47.2386 69.8466 51.3977C71.8693 55.5568 74.5852 58.7045 77.9943 60.8409C81.4261 62.9773 85.2557 64.0455 89.483 64.0455C93.7102 64.0455 97.5284 62.9773 100.938 60.8409C104.369 58.7045 107.085 55.5568 109.085 51.3977C111.108 47.2386 112.119 42.1364 112.119 36.0909ZM147.199 71L128.108 1.18182H136.699L151.29 58.0455H151.972L166.835 1.18182H176.381L191.244 58.0455H191.926L206.517 1.18182H215.108L196.017 71H187.29L171.881 15.3636H171.335L155.926 71H147.199ZM225.642 71V1.18182H267.778V8.68182H234.097V32.2727H265.597V39.7727H234.097V63.5H268.324V71H225.642ZM283.017 71V1.18182H306.608C312.063 1.18182 316.54 2.11363 320.04 3.97727C323.54 5.81818 326.131 8.35227 327.812 11.5795C329.494 14.8068 330.335 18.4773 330.335 22.5909C330.335 26.7045 329.494 30.3523 327.812 33.5341C326.131 36.7159 323.551 39.2159 320.074 41.0341C316.597 42.8295 312.153 43.7273 306.744 43.7273H287.653V36.0909H306.472C310.199 36.0909 313.199 35.5455 315.472 34.4545C317.767 33.3636 319.426 31.8182 320.449 29.8182C321.494 27.7955 322.017 25.3864 322.017 22.5909C322.017 19.7955 321.494 17.3523 320.449 15.2614C319.403 13.1705 317.733 11.5568 315.438 10.4205C313.142 9.26136 310.108 8.68182 306.335 8.68182H291.472V71H283.017ZM315.881 39.6364L333.062 71H323.244L306.335 39.6364H315.881ZM367.605 8.68182V1.18182H419.969V8.68182H398.014V71H389.56V8.68182H367.605ZM433.017 71V1.18182H456.608C462.063 1.18182 466.54 2.11363 470.04 3.97727C473.54 5.81818 476.131 8.35227 477.812 11.5795C479.494 14.8068 480.335 18.4773 480.335 22.5909C480.335 26.7045 479.494 30.3523 477.812 33.5341C476.131 36.7159 473.551 39.2159 470.074 41.0341C466.597 42.8295 462.153 43.7273 456.744 43.7273H437.653V36.0909H456.472C460.199 36.0909 463.199 35.5455 465.472 34.4545C467.767 33.3636 469.426 31.8182 470.449 29.8182C471.494 27.7955 472.017 25.3864 472.017 22.5909C472.017 19.7955 471.494 17.3523 470.449 15.2614C469.403 13.1705 467.733 11.5568 465.438 10.4205C463.142 9.26136 460.108 8.68182 456.335 8.68182H441.472V71H433.017ZM465.881 39.6364L483.062 71H473.244L456.335 39.6364H465.881ZM502.878 1.18182V71H494.423V1.18182H502.878ZM578.739 36.0909C578.739 43.4545 577.409 49.8182 574.75 55.1818C572.091 60.5455 568.443 64.6818 563.807 67.5909C559.17 70.5 553.875 71.9545 547.92 71.9545C541.966 71.9545 536.67 70.5 532.034 67.5909C527.398 64.6818 523.75 60.5455 521.091 55.1818C518.432 49.8182 517.102 43.4545 517.102 36.0909C517.102 28.7273 518.432 22.3636 521.091 17C523.75 11.6364 527.398 7.5 532.034 4.59091C536.67 1.68182 541.966 0.22727 547.92 0.22727C553.875 0.22727 559.17 1.68182 563.807 4.59091C568.443 7.5 572.091 11.6364 574.75 17C577.409 22.3636 578.739 28.7273 578.739 36.0909ZM570.557 36.0909C570.557 30.0455 569.545 24.9432 567.523 20.7841C565.523 16.625 562.807 13.4773 559.375 11.3409C555.966 9.20454 552.148 8.13636 547.92 8.13636C543.693 8.13636 539.864 9.20454 536.432 11.3409C533.023 13.4773 530.307 16.625 528.284 20.7841C526.284 24.9432 525.284 30.0455 525.284 36.0909C525.284 42.1364 526.284 47.2386 528.284 51.3977C530.307 55.5568 533.023 58.7045 536.432 60.8409C539.864 62.9773 543.693 64.0455 547.92 64.0455C552.148 64.0455 555.966 62.9773 559.375 60.8409C562.807 58.7045 565.523 55.5568 567.523 51.3977C569.545 47.2386 570.557 42.1364 570.557 36.0909Z" fill="#001AFF"/>
</svg>
