<?xml version="1.0" encoding="UTF-8"?>
<svg xmlns="http://www.w3.org/2000/svg" xmlns:xlink="http://www.w3.org/1999/xlink" width="193pt" height="193pt" viewBox="0 0 193 193" version="1.1">
<g id="surface1">
<path style=" stroke:none;fill-rule:evenodd;fill:rgb(100%,100%,100%);fill-opacity:1;" d="M 0 0.242188 L 192.757813 0.242188 L 192.757813 193 L 0 193 L 0 0.242188 "/>
<path style=" stroke:none;fill-rule:evenodd;fill:rgb(34.498596%,43.499756%,70.199585%);fill-opacity:1;" d="M 28.085938 12.410156 L 28.085938 40.507813 L 63.832031 40.507813 L 75.136719 73.925781 L 116.203125 73.925781 L 127.34375 40.507813 L 162.757813 40.507813 L 162.757813 12.410156 L 130.171875 12.410156 L 119.363281 44.996094 L 71.648438 44.996094 L 61.007813 12.410156 Z M 28.253906 46.28125 L 28.253906 74.382813 L 64 74.382813 L 75.304688 107.800781 L 116.371094 107.800781 L 127.511719 74.382813 L 162.925781 74.382813 L 162.925781 46.28125 L 130.335938 46.28125 L 119.53125 78.871094 L 71.8125 78.871094 L 61.171875 46.28125 Z M 28.253906 81.152344 L 28.253906 109.25 L 64 109.25 L 75.304688 142.667969 L 116.371094 142.667969 L 127.511719 109.25 L 162.925781 109.25 L 162.925781 81.152344 L 130.335938 81.152344 L 119.53125 113.738281 L 71.8125 113.738281 L 61.171875 81.152344 Z M 140.261719 162.605469 L 134.832031 162.605469 C 134.125 160.632813 132.617188 159.644531 130.328125 159.644531 C 127.871094 159.644531 126.648438 160.394531 126.648438 161.894531 C 126.648438 162.496094 126.878906 163 127.335938 163.414063 C 127.789063 163.832031 128.828125 164.1875 130.4375 164.496094 C 133.132813 165.007813 135.109375 165.527344 136.363281 166.050781 C 137.613281 166.578125 138.667969 167.421875 139.527344 168.589844 C 140.386719 169.757813 140.808594 171.058594 140.808594 172.5 C 140.808594 174.757813 139.890625 176.707031 138.054688 178.359375 C 136.21875 180.007813 133.492188 180.832031 129.878906 180.832031 C 127.171875 180.832031 124.863281 180.246094 122.960938 179.082031 C 121.058594 177.917969 120.304688 174.851563 119.695313 172.558594 L 124.925781 172.664063 C 125.570313 174.996094 127.359375 176.15625 130.308594 176.15625 C 131.722656 176.15625 132.785156 175.902344 133.476563 175.382813 C 134.179688 174.863281 134.519531 174.246094 134.519531 173.527344 C 134.519531 172.789063 134.203125 172.226563 133.578125 171.820313 C 132.941406 171.421875 131.722656 171.039063 129.917969 170.683594 C 126.550781 170.027344 124.152344 169.125 122.71875 167.980469 C 121.285156 166.84375 120.570313 165.175781 120.570313 162.976563 C 120.570313 160.757813 121.421875 158.882813 123.132813 157.355469 C 124.84375 155.832031 127.164063 155.0625 130.089844 155.0625 C 135.28125 155.0625 138.777344 158.6875 140.261719 162.605469 Z M 117.648438 160.355469 L 104.824219 160.355469 L 104.824219 165.285156 L 114.910156 165.285156 L 114.910156 169.820313 L 104.824219 169.820313 L 104.824219 175.070313 L 117.648438 175.070313 L 117.648438 179.832031 L 98.414063 179.832031 L 98.414063 155.769531 L 117.648438 155.769531 Z M 94.921875 155.769531 L 94.921875 160.527344 L 88.078125 160.527344 L 88.078125 179.832031 L 81.519531 179.832031 L 81.519531 160.527344 L 74.640625 160.527344 L 74.640625 155.769531 Z M 73.269531 160.355469 L 60.496094 160.355469 L 60.496094 165.285156 L 70.542969 165.285156 L 70.542969 169.820313 L 60.496094 169.820313 L 60.496094 175.070313 L 73.269531 175.070313 L 73.269531 179.832031 L 54.113281 179.832031 L 54.113281 155.769531 L 73.269531 155.769531 Z M 49.867188 164.722656 L 43.492188 165.09375 C 43.402344 161.695313 41.972656 160 39.203125 160 C 36.03125 160 34.449219 162.617188 34.449219 167.84375 C 34.449219 170.863281 34.875 172.910156 35.742188 173.988281 C 36.605469 175.066406 37.808594 175.601563 39.359375 175.601563 C 41.867188 175.601563 43.40625 174.085938 43.964844 171.050781 L 49.867188 171.390625 C 49.484375 174.265625 48.328125 176.457031 46.390625 177.953125 C 44.453125 179.453125 42.089844 180.203125 39.28125 180.203125 C 35.84375 180.203125 33.050781 179.101563 30.898438 176.90625 C 28.742188 174.703125 27.671875 171.671875 27.671875 167.789063 C 27.671875 164.164063 28.710938 161.183594 30.789063 158.875 C 32.875 156.558594 35.714844 155.394531 39.320313 155.394531 C 45.566406 155.394531 49.082031 158.507813 49.867188 164.722656 Z M 150.296875 169.570313 L 150.296875 175.371094 L 154.789063 175.371094 C 156.324219 175.371094 157.40625 175.113281 158.035156 174.59375 C 158.671875 174.078125 158.984375 173.355469 158.984375 172.429688 C 158.984375 171.652344 158.683594 170.980469 158.074219 170.417969 C 157.464844 169.855469 156.453125 169.570313 155.046875 169.570313 Z M 150.296875 160.015625 L 150.296875 165.285156 L 154.714844 165.285156 C 156.335938 165.285156 157.351563 164.980469 157.773438 164.359375 C 158.191406 163.746094 158.40625 163.15625 158.40625 162.59375 C 158.40625 161.976563 158.230469 161.457031 157.882813 161.015625 C 157.539063 160.570313 157.15625 160.292969 156.742188 160.183594 C 156.328125 160.070313 155.511719 160.015625 154.296875 160.015625 Z M 144.46875 155.769531 L 156.085938 155.769531 C 158.167969 155.769531 159.730469 156.015625 160.777344 156.507813 C 161.824219 157.003906 162.6875 157.707031 163.371094 158.628906 C 164.050781 159.539063 164.394531 160.65625 164.394531 161.972656 C 164.394531 164.644531 162.890625 166.417969 159.898438 167.316406 C 161.628906 167.6875 162.921875 168.433594 163.789063 169.554688 C 164.65625 170.671875 165.085938 171.886719 165.085938 173.199219 C 165.085938 175 164.382813 176.558594 162.96875 177.863281 C 161.558594 179.175781 159.257813 179.832031 156.085938 179.832031 L 144.46875 179.832031 L 144.46875 155.769531 "/>
</g>
</svg>
