<svg width="114" height="114" viewBox="0 0 114 114" fill="none" xmlns="http://www.w3.org/2000/svg">
<g clip-path="url(#clip0_373_2)">
<path d="M101.483 50.0784C100.616 47.8094 98.8422 45.7792 96.6796 44.3262C90.431 40.3653 80.9135 40.0767 74.4755 43.6594C70.9675 45.4507 68.6555 48.9837 67.9379 52.6261C66.6324 58.6073 66.9712 65.7329 71.5854 70.2113C76.967 74.9285 84.8002 75.9635 91.7664 74.0328C92.0953 73.9731 93.1417 73.7044 93.8692 73.3263L94.0785 73.2367C96.2411 72.341 98.304 70.8781 99.8487 68.8976C103.407 63.7126 103.646 55.9302 101.483 50.0884V50.0784ZM90.1419 63.5136C89.9028 64.6481 89.1354 65.8225 87.9295 66.2504C86.0061 67.0963 83.415 66.8575 81.641 65.8722C80.1461 64.8273 79.9568 63.0857 79.7674 61.4436C79.618 58.1893 79.3887 54.7459 80.2956 51.7703C81.0132 49.9291 82.9864 49.4514 84.7604 49.3221C86.634 49.3221 88.4577 49.6107 89.6138 51.1134C90.3313 52.1982 90.2914 53.6114 90.431 54.8852C90.3811 57.5723 90.6203 60.7768 90.1419 63.5136Z" fill="#0054A6"/>
<path d="M33.1866 66.4494C31.602 66.3499 29.8181 66.4893 28.2834 66.3002L28.3332 49.75L28.4328 49.6107L33.1866 49.5609C33.2364 46.8739 33.2862 43.9878 33.1367 41.5396L15.0287 41.4899L12.0489 41.5396C11.9991 44.0376 11.9991 46.9635 12.0489 49.5112C13.6833 49.5609 15.218 49.5112 16.8026 49.6605V65.6931L16.7528 66.3499L11.9991 66.4494C11.8994 69.0867 11.8994 71.6344 11.9991 74.2319H33.1866V66.4494Z" fill="#0054A6"/>
<path d="M86.5339 77.7649C84.5208 80.641 81.9695 83.4275 79.189 85.5871C79.0894 85.7364 78.8004 85.6767 78.7107 85.5374C77.5048 84.781 76.2092 84.1739 75.0532 83.4176C76.5879 81.5765 78.0828 79.7453 79.2389 77.7051H77.744C76.5481 79.4567 75.2924 81.2978 73.7078 82.8503C71.595 82.0044 69.6716 81.2481 67.509 80.6808L67.2698 80.5017C67.6087 79.5463 68.2265 78.6506 68.4159 77.7151H67.1203L65.8248 80.2628C62.9944 79.6458 59.8651 79.3174 56.985 79.1283C56.8355 78.7103 57.0348 78.0933 56.8355 77.7151H55.5898C55.4901 78.2824 55.7293 78.7103 55.4403 79.178C52.4605 79.3174 49.5803 79.6458 46.7899 80.223L45.4843 77.7151C45.006 77.7151 44.4778 77.6255 44.1389 77.7649L45.3448 80.5514L45.2053 80.6907C43.0427 81.3078 40.9299 82.0641 38.867 82.91L38.6776 82.8105C37.3322 81.3476 36.0367 79.7553 34.9703 78.143C34.7311 77.3369 33.7644 77.8047 33.2462 77.7151C34.3923 79.7951 35.937 81.6262 37.4718 83.5171C36.1762 84.2735 34.8806 85.1194 33.5253 85.7364C30.6451 83.5669 27.9543 80.7305 25.9312 77.7649C25.3532 77.6753 24.9745 77.7151 24.3965 77.7649C27.8547 83.1389 33.2462 87.8562 38.867 90.6427C38.867 90.6427 38.867 90.6029 38.9168 90.6029C38.9567 90.6029 39.0563 90.6925 38.9567 90.7422C42.7537 92.5834 46.7899 93.897 51.0653 94.4742C65.8148 96.4049 79.8966 90.1352 88.0687 77.7748C87.6401 77.7251 87.0123 77.7251 86.5339 77.7748V77.7649ZM66.4925 82.0144L66.632 81.9148C68.7049 82.3826 70.6682 83.0494 72.5019 83.945C70.9672 85.6866 68.9939 87.1993 67.1702 88.4732C66.0639 89.13 64.9577 89.8466 63.8017 90.4039L61.7387 89.5082L61.8783 89.1798C63.6123 86.8709 65.1471 84.5123 66.4925 82.0144ZM57.0249 80.6012C59.7655 80.6509 62.5061 80.9395 65.0474 81.5466L65.0972 81.6859C63.7518 84.2337 62.0676 86.6918 60.2438 88.9907C59.4266 89.0902 58.6593 88.7618 57.8421 88.712L57.0249 88.6125C56.9252 85.826 56.8754 83.3778 57.0249 80.5912V80.6012ZM47.7566 81.4471C50.258 80.9793 52.8491 80.6012 55.5399 80.6012L55.5898 88.5827C54.5732 88.8116 53.477 88.8116 52.5103 89.0504C50.5371 86.7316 48.9126 84.2336 47.5174 81.6362L47.7566 81.4471ZM40.0131 83.9948C41.8966 83.0991 43.8599 82.4323 45.873 81.9148L46.0723 81.9646C47.4576 84.5621 49.1917 87.0103 50.9257 89.4584C50.258 89.8366 49.4408 90.0655 48.7631 90.4536C45.594 88.9011 42.5643 86.7216 40.0131 84.1341V83.9948ZM46.2119 92.0559C42.1757 91.011 38.4285 89.2196 34.9603 86.7714V86.6221C36.1164 85.9155 37.2724 85.1691 38.5182 84.6417C41.2588 87.3387 44.0891 89.3589 47.1686 91.2896C46.9294 91.5782 46.5407 91.8569 46.2019 92.046L46.2119 92.0559ZM64.0409 92.663C58.9483 93.7577 53.2777 93.7975 48.1851 92.5734C48.0854 92.3346 48.4243 92.2848 48.5738 92.1554C53.0385 89.2793 60.0047 89.2793 64.3897 92.3843C64.5292 92.6729 64.1505 92.5734 64.0508 92.6729L64.0409 92.663ZM68.6551 91.3493L66.3928 92.0559C66.0041 91.8668 65.6753 91.5882 65.3364 91.2996L65.4361 91.1602C68.5156 89.3689 71.296 87.1993 73.947 84.6019C75.2425 85.1194 76.4982 85.826 77.6543 86.6321C74.9635 88.7618 71.8342 90.175 68.665 91.3493H68.6551Z" fill="#0054A6"/>
<path d="M25.8319 37.9071C26.988 36.3048 28.2835 34.7523 29.7186 33.2396C30.9644 32.0653 32.1204 30.9308 33.4658 30.0749C34.7115 30.881 36.1068 31.5478 37.3126 32.2942C35.8277 34.1254 34.283 35.9665 33.1768 37.9469C33.5156 38.0962 34.1435 38.0464 34.6218 37.9469C35.8178 36.2053 37.1233 34.4538 38.658 32.9013C40.721 33.6576 42.7441 34.4538 44.8568 35.021L45.0462 35.2101L43.8503 37.9469C44.3785 38.0464 44.7173 37.9967 45.2455 37.9469C45.674 37.1508 46.0129 36.2551 46.4912 35.449C49.2817 36.066 52.2117 36.3944 55.1915 36.484C55.5801 36.8223 55.2911 37.5289 55.4307 37.9469H56.7262C56.8657 37.4792 56.6764 36.9517 56.8657 36.5437C59.6562 36.3944 62.5862 36.1158 65.2869 35.449L65.5261 35.4987L66.8217 37.9469C67.2602 37.9469 67.8282 38.0464 68.1671 37.8474L66.9612 35.1206L67.0609 35.021C69.2633 34.4538 71.3362 33.6079 73.449 32.7619C74.9439 34.3144 76.3292 36.1556 77.5849 37.9469C78.1131 37.9469 78.6413 37.9967 79.02 37.8474C78.4419 36.8124 77.7144 35.7774 76.957 34.8718C76.3292 33.9761 75.6614 33.1799 74.8442 32.334V32.0952L78.2127 30.1645L78.701 29.9754C81.631 32.1947 84.2222 34.8718 86.2951 37.8474C86.8731 37.8474 87.3514 38.0464 87.8298 37.8076C81.3918 28.194 70.7682 22.0038 59.2875 21.1181L59.2376 21.2077L59.138 21.1181C57.8424 20.9788 56.2479 20.929 54.8626 21.0684C54.3344 21.0285 53.7165 21.0684 53.0887 21.1181C41.5581 22.0038 30.9345 27.9054 24.3071 37.9469C24.7855 37.8972 25.3635 38.0962 25.8419 37.8972L25.8319 37.9071ZM45.7737 33.7671L45.5843 33.8069C43.6111 33.2894 41.6877 32.6724 39.8639 31.8762L39.9536 31.5876C42.5946 29.0897 45.385 27.0097 48.4645 25.4074C49.192 25.696 49.9095 25.9249 50.6271 26.2633L50.4876 26.6315C48.6638 28.9006 47.2187 31.3488 45.7837 33.7571L45.7737 33.7671ZM55.331 35.0409C53.9856 35.23 52.7897 35.0011 51.4343 34.8917C50.1388 34.7026 48.5043 34.5632 47.2088 34.1353C48.604 31.5577 50.2384 29.0498 52.2117 26.741L55.2911 27.159C55.4307 29.6072 55.341 32.4435 55.341 35.031L55.331 35.0409ZM56.8159 35.0907C56.7163 32.5828 56.7661 29.8062 56.8159 27.2087C57.7826 27.0694 58.829 26.9201 59.7957 26.7907C61.6693 29.1394 63.503 31.5577 64.7488 34.1353C62.1477 34.7523 59.5067 35.0907 56.8159 35.0907ZM72.1534 31.7866C70.2799 32.5828 68.3465 33.3392 66.2835 33.7671C64.7986 31.2691 63.1642 28.7712 61.3305 26.3529C62.0082 25.9846 62.8254 25.706 63.5429 25.3278C66.6722 26.8803 69.7018 29.0996 72.2431 31.6374L72.1534 31.7866ZM65.9945 23.7255C70.0307 24.7705 73.8277 26.5519 77.2859 29.01L77.1862 29.1991L73.8676 31.0402H73.6284C71.0871 28.5025 68.1073 26.2832 65.0777 24.5316C65.1773 24.2032 65.6557 23.9644 65.9945 23.7255ZM64.0711 23.2578V23.3573C59.8854 26.3728 53.1086 26.6514 48.6937 23.8748C48.4446 23.6857 47.9662 23.5962 47.9164 23.2677C53.0089 22.0934 59.0184 21.9939 64.0711 23.2677V23.2578ZM34.7514 29.1096C37.781 26.8903 41.1495 25.2482 44.6974 24.1137C44.8469 23.9644 44.9366 23.8251 45.1259 23.8251V23.9246C45.5146 24.0141 45.8036 23.5862 46.1325 23.8748C46.4215 24.1137 46.7603 24.3027 46.9995 24.5416C44.0197 26.3728 41.0897 28.5522 38.3989 31.1895C37.1034 30.7218 35.8975 30.0152 34.7414 29.2091V29.1195L34.7514 29.1096Z" fill="#0054A6"/>
<path d="M55.3908 66.8176C50.8762 68.0417 45.973 67.1062 42.7042 63.7126C42.3255 63.2449 42.0763 62.6776 41.6976 62.2098L35.2098 62.2596C35.1102 66.0812 35.0603 70.46 35.2098 74.2418L42.4152 74.192L42.5148 71.923C43.332 72.3012 44.1492 72.7689 44.9664 73.1968C49.9693 75.2768 56.3973 75.7446 61.3504 73.1968C64.958 71.2164 66.8815 67.4048 66.3533 63.2946C65.8251 59.2939 61.9782 55.6614 58.0915 54.6662L46.4613 51.3124L45.5943 50.8845C45.2056 50.5561 44.9664 50.1381 45.0661 49.6106C45.983 48.0581 48.0957 48.5259 49.6803 48.5657C53.0488 49.0334 56.507 50.1679 58.4802 53.2332C60.593 53.2332 63.0446 53.273 65.3467 53.1834C65.4464 49.322 65.3068 45.9284 65.2471 42.0073C63.0845 41.9576 60.4435 41.9576 58.2809 42.0571C58.1812 42.6144 58.3706 43.4105 58.1314 43.9878L55.919 42.8134C50.6271 40.5941 43.2324 40.3652 38.4288 43.8086C35.2995 46.0677 34.3428 50.1281 35.16 53.7109C35.7878 57.1045 39.0467 59.6024 42.176 60.7768C46.4514 62.2895 50.9161 63.3742 55.2512 64.8372C55.6798 65.0263 56.2578 65.4542 56.1681 65.9717C56.1681 66.3897 55.7296 66.6285 55.4007 66.8077L55.3908 66.8176Z" fill="#0054A6"/>
<path d="M9.96611 77.6753L10.1953 78.2127C10.2352 78.3122 10.1854 78.4316 10.0757 78.4814L3.14943 81.467C3.04977 81.5068 2.93018 81.4769 2.89032 81.3674L2.6611 80.83C2.62124 80.7305 2.6611 80.621 2.77073 80.5713L9.69703 77.5857C9.79669 77.5459 9.92625 77.5658 9.96611 77.6753Z" fill="#0054A6"/>
<path d="M7.91308 72.0923L8.07253 72.5799C8.1124 72.6894 8.0526 72.8187 7.94298 72.8486L4.59443 73.9732C3.56794 74.3215 3.36863 74.7693 3.62774 75.5456C3.76726 75.9735 4.09614 76.3915 4.48481 76.7796L8.78011 75.3366C8.87977 75.2968 9.00933 75.3565 9.04919 75.466L9.21861 75.9636C9.24851 76.0631 9.18871 76.1825 9.07909 76.2223L3.89682 77.9739C3.78719 78.0137 3.6676 77.9639 3.62774 77.8445L3.45832 77.3369C3.41846 77.2275 3.48822 77.108 3.59784 77.0782L3.78719 77.0085C3.27893 76.5607 2.97996 76.1527 2.77067 75.5555C2.3521 74.3314 2.93013 73.5353 4.28549 73.0775L7.63403 71.9529C7.74366 71.9131 7.86325 71.9728 7.90311 72.0823L7.91308 72.0923Z" fill="#0054A6"/>
<path d="M6.96616 68.0916C7.04588 68.2906 7.13558 68.5593 7.17544 68.7583C7.40466 69.7137 7.26513 70.2312 6.11906 70.5099L2.4815 71.3757L2.61106 72.4107C2.63099 72.5302 2.59112 72.6297 2.47153 72.6496L2.19249 72.7192C2.08286 72.7491 1.9832 72.6794 1.95331 72.57L1.71412 71.5549L0.697602 71.7937C0.597943 71.8236 0.488318 71.7638 0.448455 71.6544L0.239171 71.1369C0.239171 71.1369 0.239171 71.117 0.239171 71.107C0.219239 71.0274 0.279034 70.9279 0.378693 70.908L1.51481 70.6393L1.24573 69.5147C1.2258 69.4052 1.29556 69.2858 1.40518 69.2559L1.76395 69.1763C1.87358 69.1465 1.99317 69.2161 2.02307 69.3356L2.29215 70.4601L5.9297 69.5943C6.50773 69.4649 6.55756 69.2958 6.44793 68.8778L6.30841 68.3006C6.27851 68.1513 6.30841 68.0717 6.40807 68.0418L6.77681 67.9522C6.8665 67.9323 6.94623 67.9721 6.99606 68.1015L6.96616 68.0916Z" fill="#0054A6"/>
<path d="M3.52774 63.2748L4.01607 66.8277L4.16556 66.8077C5.43123 66.6286 5.82987 66.0713 5.69035 65.096C5.61062 64.479 5.45116 63.7027 5.31164 63.225C5.31164 63.2051 5.31164 63.1952 5.31164 63.1753C5.30168 63.0957 5.33157 62.9961 5.4412 62.9862L5.79997 62.9364C5.93949 62.9165 6.01922 62.9464 6.06905 63.1156C6.26837 63.7027 6.41786 64.2799 6.51752 64.9865C6.68694 66.2106 6.27833 67.4745 4.29512 67.7532L3.33839 67.8826C1.82357 68.0916 0.73729 67.385 0.528006 65.8723C0.318722 64.3198 1.18576 63.4042 2.69061 63.1952L3.26863 63.1156C3.40815 63.0957 3.50781 63.1554 3.52774 63.2847V63.2748ZM2.82016 64.1307C1.61429 64.2999 1.21565 64.8174 1.34521 65.7528C1.47477 66.6684 2.06276 67.1063 3.20883 66.9471H3.30849L2.91982 64.1207H2.82016V64.1307Z" fill="#0054A6"/>
<path d="M0.817204 59.5825C0.837136 60.0801 0.996591 60.518 1.33543 61.0355L5.82009 60.8066C5.91975 60.8066 6.03934 60.8962 6.03934 61.0156L6.06924 61.5431C6.06924 61.6525 5.97954 61.7521 5.85995 61.7521L0.408602 62.0407C0.289011 62.0407 0.189352 61.9611 0.189352 61.8516L0.159455 61.354C0.159455 61.2346 0.239182 61.145 0.358773 61.145H0.587988C0.189352 60.5976 0.0298977 60.11 0 59.6323C0 59.483 0.0498295 59.4034 0.179386 59.3934L0.617886 59.3735C0.737477 59.3735 0.807238 59.4332 0.817204 59.5825Z" fill="#0054A6"/>
<path d="M6.07918 54.0095L6.05925 54.527C6.05925 54.6464 5.95959 54.736 5.84 54.736L2.32203 54.5967C1.24571 54.5569 0.896907 54.9052 0.867009 55.7113C0.847077 56.1591 0.996566 56.6667 1.22578 57.1742L5.74034 57.3534C5.84 57.3534 5.94962 57.4628 5.94962 57.5723L5.92969 58.0898C5.92969 58.1993 5.83003 58.2888 5.71044 58.2789L0.259089 58.0699C0.139498 58.0699 0.0498047 57.9704 0.0498047 57.8609L0.0697365 57.3235C0.0697365 57.2041 0.169396 57.1245 0.288986 57.1344H0.488305C0.179361 56.5373 0.0398388 56.0596 0.0697365 55.4227C0.119566 54.1389 0.946737 53.6015 2.37186 53.6512L5.88983 53.7905C6.00942 53.7905 6.09911 53.8901 6.09911 54.0095H6.07918Z" fill="#0054A6"/>
<path d="M6.78674 48.7747L6.70701 49.2624C6.68708 49.3818 6.57745 49.4614 6.46783 49.4415L6.23861 49.4116C6.45786 49.959 6.60735 50.5263 6.51766 51.1134C6.3881 52.0091 5.86987 52.7754 4.54441 52.5863L4.41485 52.5664C3.26877 52.3972 2.80037 51.6508 3.07942 49.76L3.19901 48.9737L2.78044 48.914C1.89348 48.7847 1.5347 49.0434 1.41511 49.8694C1.30549 50.5561 1.28556 51.0736 1.25566 51.5016C1.25566 51.5215 1.25566 51.5314 1.25566 51.5513C1.23573 51.6508 1.19586 51.7404 1.05634 51.7205L0.687601 51.6707C0.56801 51.6508 0.518181 51.5712 0.518181 51.4219C0.508215 50.9741 0.518181 50.4765 0.61784 49.76C0.83709 48.297 1.66426 47.8094 2.91 47.9885L6.60735 48.5359C6.72694 48.5558 6.80667 48.6652 6.78674 48.7747ZM3.86673 49.0832L3.74713 49.8595C3.55778 51.1433 3.79696 51.5215 4.54441 51.6309L4.67396 51.6508C5.43137 51.7603 5.69049 51.4418 5.78018 50.8248C5.84994 50.3372 5.77021 49.8794 5.5709 49.332L3.86673 49.0832Z" fill="#0054A6"/>
<path d="M7.7234 44.8238C7.70347 45.0328 7.6636 45.3114 7.61377 45.5104C7.38456 46.4658 7.02579 46.8639 5.87971 46.5952L2.24215 45.7294L1.88338 46.7146C1.84351 46.8241 1.76379 46.8938 1.65416 46.8739L1.37512 46.8042C1.25553 46.7743 1.2057 46.6748 1.23559 46.5654L1.47478 45.5503L0.458253 45.3114C0.358594 45.2915 0.288832 45.192 0.298798 45.0726L0.338662 44.5152C0.338662 44.5152 0.338662 44.4953 0.338662 44.4854C0.358594 44.4058 0.448287 44.3461 0.547946 44.3759L1.68406 44.6446L1.95314 43.52C1.98304 43.4106 2.10263 43.331 2.21225 43.3608L2.57102 43.4504C2.68065 43.4802 2.75041 43.5897 2.73048 43.7091L2.4614 44.8337L6.09896 45.6995C6.67698 45.8289 6.79657 45.6995 6.88626 45.2915L7.02579 44.7143C7.05568 44.565 7.11548 44.5053 7.2251 44.5352L7.59384 44.6247C7.6935 44.6446 7.74333 44.7143 7.7234 44.8536V44.8238Z" fill="#0054A6"/>
<path d="M1.72423 41.0619L1.56478 41.5794C1.52491 41.6889 1.40532 41.7585 1.2957 41.7187L0.478492 41.4699C0.368867 41.4401 0.299106 41.3107 0.338969 41.2012L0.498424 40.6837C0.538287 40.5743 0.657878 40.5046 0.767503 40.5444L1.58471 40.7932C1.69433 40.833 1.76409 40.9524 1.72423 41.0619ZM8.24193 43.0822L8.09244 43.5698C8.06255 43.6793 7.93299 43.7489 7.82336 43.7091L2.60123 42.1168C2.4916 42.077 2.42184 41.9576 2.46171 41.8481L2.6112 41.3505C2.65106 41.241 2.77065 41.1714 2.88028 41.2112L8.10241 42.8134C8.21204 42.8433 8.2818 42.9727 8.24193 43.0822Z" fill="#0054A6"/>
<path d="M9.55728 39.6089C8.97926 41.0718 7.71359 41.4301 6.25857 40.8429L5.50116 40.5444C4.03617 39.9672 3.36846 38.8326 3.95644 37.3796C4.53447 35.9167 5.80014 35.5485 7.26513 36.1257L8.02253 36.4242C9.48752 37.0015 10.1453 38.1459 9.56725 39.5989L9.55728 39.6089ZM6.91632 37.0015C5.8998 36.5934 5.09256 36.7427 4.72382 37.6782C4.35508 38.6037 4.82348 39.2606 5.84997 39.6686L6.60738 39.9671C7.6239 40.3752 8.43114 40.2259 8.79987 39.3004C9.16861 38.3748 8.70022 37.708 7.67373 37.3L6.91632 37.0015Z" fill="#0054A6"/>
<path d="M12.836 32.6824L12.5968 33.1302C12.547 33.2397 12.4075 33.2696 12.3078 33.2198L9.19847 31.5578C8.24174 31.0403 7.78331 31.2095 7.39464 31.926C7.18536 32.3241 7.09567 32.8516 7.07573 33.3989L11.0621 35.5386C11.1518 35.5884 11.2016 35.7277 11.1518 35.8272L10.9026 36.285C10.8528 36.3845 10.7233 36.4144 10.6136 36.3646L5.8001 33.7871C5.70044 33.7373 5.65061 33.6079 5.7104 33.5084L5.95955 33.0407C6.01935 32.9411 6.13894 32.9113 6.24856 32.961L6.42795 33.0606C6.41798 32.3838 6.50768 31.8862 6.79669 31.3289C7.40461 30.1944 8.39123 30.065 9.63697 30.7418L12.7463 32.4037C12.846 32.4635 12.8859 32.5928 12.836 32.6923V32.6824Z" fill="#0054A6"/>
<path d="M15.726 28.3233L15.447 28.7314C15.3772 28.8309 15.2476 28.8508 15.148 28.7811L14.9586 28.6517C14.9188 29.2389 14.7992 29.8062 14.4603 30.3038C13.9421 31.0601 13.1448 31.5179 12.0386 30.7616L11.939 30.6919C10.9822 30.045 10.8925 29.1593 11.9689 27.5869L12.4173 26.94L12.0586 26.7012C11.3211 26.1936 10.8826 26.2732 10.4142 26.9599C10.0155 27.5371 9.76639 27.975 9.55711 28.3532C9.54714 28.3731 9.53718 28.3731 9.52721 28.393C9.47738 28.4726 9.38769 28.5323 9.27806 28.4527L8.96912 28.2437C8.86946 28.174 8.85949 28.0745 8.92926 27.9452C9.11861 27.5371 9.34782 27.0992 9.75643 26.5021C10.5936 25.278 11.5503 25.2084 12.5967 25.9249L15.6762 28.0347C15.7758 28.1044 15.7958 28.2338 15.726 28.3333V28.3233ZM12.9654 27.3182L12.517 27.975C11.7895 29.0399 11.8293 29.4877 12.4572 29.9156L12.5568 29.9853C13.1947 30.4232 13.5634 30.2341 13.9122 29.7266C14.1913 29.3185 14.3208 28.8806 14.3806 28.2935L12.9555 27.3182H12.9654Z" fill="#0054A6"/>
<path d="M17.1512 26.532L16.8024 26.9699C16.7326 27.0495 16.613 27.0595 16.5134 26.9898L10.5438 22.2228C10.4641 22.1531 10.4342 22.0437 10.5039 21.9441L10.8528 21.5063C10.9225 21.4266 11.0321 21.4067 11.1318 21.4864L17.1014 26.2534C17.1811 26.323 17.221 26.4424 17.1512 26.542V26.532Z" fill="#0054A6"/>
<path d="M21.8254 21.6357C20.5996 22.7802 19.035 22.8996 17.4105 21.1679L16.4638 20.1628C14.8393 18.4311 15.0586 16.8786 16.2844 15.7342C17.5102 14.5897 19.0748 14.4802 20.6893 16.2119L21.6361 17.217C23.2605 18.9486 23.0512 20.4912 21.8254 21.6456V21.6357ZM19.9718 16.8786C18.746 15.565 17.7394 15.565 16.8823 16.3711C16.0253 17.1672 15.9555 18.1823 17.1813 19.496L18.1181 20.5012C19.3439 21.8049 20.3604 21.8049 21.2175 20.9988C22.0646 20.2026 22.1344 19.1974 20.9086 17.8937L19.9618 16.8886L19.9718 16.8786Z" fill="#0054A6"/>
<path d="M23.5794 13.3953C23.1907 13.6939 22.9117 14.0721 22.6825 14.6493L25.4031 18.2022C25.4729 18.2818 25.453 18.4311 25.3633 18.5007L24.9447 18.8192C24.865 18.8888 24.7255 18.8689 24.6557 18.7694L21.3371 14.4403C21.2573 14.3507 21.2773 14.2214 21.367 14.1517L21.7656 13.8432C21.8652 13.7735 21.9848 13.7934 22.0546 13.8929L22.1941 14.0721C22.3934 13.4551 22.6924 13.047 23.0811 12.7485C23.2007 12.6589 23.3003 12.6589 23.3701 12.7684L23.6392 13.1167C23.7089 13.2063 23.689 13.3058 23.5694 13.3953H23.5794Z" fill="#0054A6"/>
<path d="M28.4428 10.1809L28.1538 10.4496C28.4228 10.5193 28.7417 10.6984 29.0507 11.1861L29.1005 11.2557C29.7284 12.2509 29.4693 13.1864 28.084 14.0721C27.6056 14.3806 27.2469 14.5001 26.918 14.5598C26.8183 14.729 26.8084 14.8782 26.8881 15.0076C26.9877 15.1669 27.1073 15.1967 27.3565 15.1171L28.9211 14.6095C29.9476 14.2712 30.9542 13.9826 31.5023 14.8285L31.5521 14.8982C32.1003 15.764 31.8611 16.6597 30.3861 17.6051C28.961 18.5207 27.9644 18.3813 27.3963 17.4956L27.3465 17.416C27.0276 16.9184 27.0376 16.3213 27.1871 15.9133H27.1073C26.7386 15.9829 26.4297 15.764 26.2503 15.4853C26.0908 15.2365 26.041 14.8982 26.2004 14.5896C25.752 14.51 25.4131 14.2712 25.1142 13.8134L25.0643 13.7338C24.5561 12.9277 24.4963 11.8528 26.051 10.8676L28.0242 9.61365C28.1338 9.54398 28.2833 9.57384 28.363 9.68331L28.5125 9.91221C28.5923 10.0316 28.5524 10.1013 28.4627 10.1909L28.4428 10.1809ZM28.2733 11.6837C27.9345 11.1463 27.4163 10.8775 26.4396 11.4946C25.4231 12.1415 25.5128 12.7286 25.8417 13.2362L25.8915 13.3058C26.1406 13.7039 26.6589 14.1119 27.6953 13.4452C28.672 12.8281 28.672 12.2907 28.3232 11.7533L28.2733 11.6737V11.6837ZM30.705 15.336C30.4758 14.9778 30.0971 15.0176 29.1603 15.336L27.9744 15.7242C27.8548 16.1123 27.8149 16.4507 28.1239 16.9284L28.1737 17.008C28.4926 17.5056 28.9909 17.6349 29.9975 17.008C31.0239 16.3511 31.0738 15.9133 30.7549 15.4157L30.705 15.346V15.336Z" fill="#0054A6"/>
<path d="M35.5784 12.3505L35.1399 12.5694C35.0402 12.6192 34.9107 12.5694 34.8509 12.4699L34.7512 12.2609C34.4224 12.7585 34.0436 13.1964 33.5055 13.4651C32.6883 13.8632 31.7615 13.8831 31.1735 12.6789L31.1137 12.5694C30.6054 11.5344 30.9542 10.7184 32.6584 9.87246L33.366 9.52414L33.1766 9.13601C32.778 8.3299 32.3594 8.19057 31.612 8.55879C30.9841 8.8673 30.5456 9.13601 30.1769 9.35495C30.1569 9.3649 30.147 9.37486 30.127 9.37486C30.0374 9.41466 29.9377 9.43457 29.8779 9.30519L29.7085 8.96682C29.6587 8.8673 29.6985 8.76778 29.8181 8.68817C30.1769 8.42942 30.5954 8.15076 31.2432 7.8323C32.5787 7.17547 33.4457 7.5835 34.0038 8.71802L35.6581 12.0718C35.708 12.1714 35.6581 12.3007 35.5585 12.3605L35.5784 12.3505ZM33.6649 10.1213L32.9574 10.4696C31.7914 11.0468 31.6219 11.4548 31.9508 12.1415L32.0106 12.251C32.3494 12.9476 32.768 12.9675 33.3261 12.6889C33.7746 12.4699 34.0935 12.1415 34.4323 11.6638L33.6649 10.1213Z" fill="#0054A6"/>
<path d="M40.9 10.3103L40.4116 10.4894C40.302 10.5292 40.1824 10.4695 40.1426 10.36L38.9367 7.05596C38.5679 6.04085 38.1095 5.85177 37.3421 6.13042C36.9236 6.28965 36.505 6.61807 36.1263 7.01615L37.671 11.2656C37.7109 11.3652 37.6511 11.5045 37.5415 11.5344L37.0432 11.7135C36.9435 11.7533 36.8139 11.6936 36.784 11.5841L34.9105 6.44889C34.8706 6.33941 34.9105 6.21999 35.03 6.18018L35.5383 5.99109C35.6479 5.95129 35.7576 6.011 35.7974 6.12047L35.8672 6.30956C36.3057 5.79205 36.7043 5.48354 37.3023 5.2646C38.5081 4.82671 39.3254 5.38402 39.8137 6.71759L41.0196 10.0216C41.0594 10.1311 40.9996 10.2505 40.89 10.3003L40.9 10.3103Z" fill="#0054A6"/>
<path d="M41.3384 3.12496L40.8102 3.26428C40.7006 3.29414 40.581 3.22448 40.5511 3.115L40.3219 2.28899C40.292 2.17952 40.3618 2.06009 40.4714 2.03024L40.9996 1.88096C41.1092 1.8511 41.2388 1.92077 41.2587 2.03024L41.4879 2.85625C41.5178 2.96572 41.448 3.08515 41.3384 3.115V3.12496ZM43.1123 9.71317L42.614 9.84255C42.5044 9.8724 42.3848 9.80274 42.3549 9.69327L40.9198 4.42867C40.8899 4.31919 40.9497 4.19977 41.0693 4.16991L41.5676 4.04054C41.6772 4.01068 41.7968 4.08035 41.8267 4.18982L43.2618 9.45442C43.2917 9.56389 43.2319 9.68331 43.1123 9.71317Z" fill="#0054A6"/>
<path d="M48.2252 8.59859L45.0461 9.22557C44.5976 9.31514 44.3485 9.06634 44.2887 8.76778L44.2488 8.56874C44.189 8.28013 44.2189 8.10099 44.3584 7.84224L46.4114 3.93111C46.4114 3.93111 46.4413 3.86145 46.4313 3.83159C46.4313 3.78183 46.3915 3.76193 46.3117 3.78183L43.7605 4.27943C43.6409 4.29933 43.5313 4.22967 43.5014 4.11025L43.4316 3.75198C43.4117 3.6425 43.4814 3.52308 43.601 3.50318L46.7004 2.90606C47.129 2.81649 47.3283 2.98567 47.3881 3.30414L47.4379 3.56289C47.4778 3.78183 47.4379 3.95102 47.3083 4.18986L45.2155 8.19056C45.1856 8.24032 45.1756 8.29008 45.1856 8.31994C45.1856 8.3697 45.2155 8.39955 45.2853 8.3896L48.0657 7.84224C48.1853 7.81239 48.295 7.892 48.3149 8.01143L48.3847 8.3697C48.4046 8.47917 48.3348 8.59859 48.2152 8.6185L48.2252 8.59859Z" fill="#0054A6"/>
<path d="M53.2379 8.0711L52.7396 8.12086C52.6201 8.12086 52.5204 8.04125 52.5104 7.92182L52.4905 7.68297C52.0022 8.03129 51.4939 8.3 50.896 8.35971C49.9891 8.43932 49.122 8.12086 49.0024 6.79725V6.66787C48.8828 5.52339 49.5007 4.88647 51.4042 4.70733L52.1915 4.63767L52.1517 4.20973C52.0719 3.31405 51.7331 3.0354 50.896 3.11501C50.1983 3.17473 49.6901 3.27424 49.2715 3.35386C49.2516 3.35386 49.2416 3.35386 49.2217 3.35386C49.122 3.35386 49.0323 3.33396 49.0124 3.19463L48.9825 2.82641C48.9725 2.70698 49.0323 2.63732 49.1918 2.60746C49.6203 2.48804 50.1086 2.37857 50.8262 2.31885C52.3111 2.18948 52.9689 2.87617 53.0885 4.13012L53.4273 7.84221C53.4273 7.96163 53.3476 8.06115 53.2379 8.0711ZM52.2513 5.30445L51.464 5.38407C50.1684 5.50349 49.8595 5.82195 49.9293 6.5783V6.70768C50.009 7.47398 50.3977 7.64317 51.0056 7.58345C51.4939 7.53369 51.9224 7.34461 52.4108 7.02614L52.2513 5.3144V5.30445Z" fill="#0054A6"/>
<path d="M57.344 8.02135C57.1248 8.0512 56.8457 8.08106 56.6464 8.08106C55.6598 8.10096 55.1914 7.84221 55.1615 6.66788L55.1117 2.93588L54.0652 2.83636C53.9456 2.82641 53.856 2.75675 53.856 2.64728V2.35867C53.856 2.23924 53.9357 2.16958 54.0553 2.15963L55.1017 2.13973L55.0818 1.09477C55.0818 0.995247 55.1515 0.905679 55.2711 0.875823L55.8292 0.786255H55.8591C55.9488 0.786255 56.0186 0.855919 56.0186 0.965391L56.0385 2.12977L57.1945 2.10987C57.3141 2.10987 57.4138 2.19944 57.4138 2.31886V2.68708C57.4138 2.80651 57.3241 2.90603 57.2045 2.90603L56.0485 2.92593L56.1083 6.65793C56.1083 7.24509 56.2677 7.33466 56.6962 7.32471H57.2942C57.4437 7.31476 57.5234 7.35457 57.5234 7.46404V7.84221C57.5234 7.94173 57.4736 8.00144 57.3341 8.02135H57.344Z" fill="#0054A6"/>
<path d="M59.2173 8.12084L58.6991 8.09099C58.5795 8.09099 58.4898 7.98152 58.4998 7.86209L58.8187 2.41836C58.8187 2.29893 58.9283 2.20936 59.0479 2.21932L59.5661 2.24917C59.6857 2.24917 59.7754 2.35864 59.7655 2.47807L59.4465 7.9218C59.4465 8.04123 59.3369 8.1308 59.2173 8.1308V8.12084ZM59.6359 1.31369L59.0878 1.28383C58.9682 1.28383 58.8785 1.17436 58.8884 1.05493L58.9383 0.199063C58.9383 0.0796388 59.0479 -0.00992906 59.1675 2.29219e-05L59.7156 0.0298789C59.8352 0.0298789 59.9249 0.139351 59.9149 0.258775L59.8651 1.11465C59.8651 1.23407 59.7555 1.32364 59.6359 1.31369Z" fill="#0054A6"/>
<path d="M62.905 8.55876C61.3404 8.34977 60.6826 7.20529 60.9019 5.65278L61.0115 4.84667C61.2208 3.28421 62.1576 2.36863 63.7222 2.57762C65.2869 2.78661 65.9546 3.93109 65.7453 5.4836L65.6357 6.28971C65.4264 7.85217 64.4797 8.76776 62.915 8.55876H62.905ZM64.7986 5.35422C64.948 4.26946 64.6092 3.52306 63.6027 3.38373C62.616 3.25436 62.0878 3.87138 61.9383 4.9661L61.8287 5.77221C61.6792 6.85697 62.0081 7.60337 63.0147 7.7427C64.0013 7.87208 64.5394 7.25505 64.6889 6.16034L64.7986 5.35422Z" fill="#0054A6"/>
<path d="M70.4192 10.0615L69.9209 9.93215C69.8014 9.90229 69.7416 9.78287 69.7615 9.6734L70.6285 6.25986C70.8976 5.21491 70.6285 4.79692 69.8312 4.59788C69.3927 4.48841 68.8646 4.52822 68.3264 4.64764L67.2102 9.02652C67.1803 9.13599 67.0607 9.20565 66.9511 9.18575L66.4428 9.05637C66.3332 9.02652 66.2734 8.91704 66.2933 8.79762L67.6487 3.50316C67.6786 3.38374 67.7882 3.31408 67.8979 3.34393L68.4161 3.47331C68.5357 3.49321 68.5955 3.61264 68.5656 3.73206L68.5157 3.9311C69.1635 3.75196 69.6718 3.72211 70.2897 3.88134C71.5354 4.1998 71.9042 5.11539 71.5454 6.49871L70.6684 9.91224C70.6385 10.0217 70.5189 10.1013 70.4093 10.0715L70.4192 10.0615Z" fill="#0054A6"/>
<path d="M79.4982 5.57312L79.0199 5.37408C78.5515 5.18499 78.3621 5.26461 78.1329 5.80201L77.8339 6.51856L78.8704 6.94649C78.98 6.99625 79.0298 7.10572 78.98 7.20524L78.8205 7.59337C78.7807 7.69289 78.671 7.72275 78.5614 7.68294L77.515 7.255L75.6514 11.7633C75.6115 11.8628 75.482 11.9225 75.3823 11.8827L74.894 11.6836C74.7843 11.6438 74.7345 11.5045 74.7744 11.405L76.638 6.89673L75.7211 6.38918C75.6115 6.33942 75.5617 6.22995 75.6015 6.13043L75.7112 5.86172C75.751 5.7622 75.8607 5.7224 75.9703 5.7622L76.937 6.16028L77.226 5.45369C77.6645 4.38883 78.3123 4.28931 79.1793 4.64758C79.4484 4.75705 79.5979 4.85657 79.7075 4.93619C79.8072 5.01581 79.867 5.08547 79.8371 5.17504L79.6975 5.50345C79.6577 5.61293 79.568 5.62288 79.4584 5.58307L79.4982 5.57312Z" fill="#0054A6"/>
<path d="M79.2291 13.7736C77.8339 13.0471 77.6047 11.7534 78.3422 10.3601L78.7209 9.64354C79.4484 8.25026 80.6443 7.7029 82.0395 8.43935C83.4347 9.16584 83.6739 10.4596 82.9364 11.8529L82.5577 12.5794C81.8302 13.9727 80.6244 14.5101 79.2291 13.7836V13.7736ZM82.0993 11.415C82.6076 10.4496 82.5378 9.63358 81.6508 9.16584C80.7738 8.70805 80.0663 9.10613 79.548 10.0814L79.1693 10.8079C78.6611 11.7733 78.7209 12.5893 79.6178 13.0471C80.4948 13.5149 81.2123 13.1068 81.7306 12.1315L82.1093 11.415H82.0993Z" fill="#0054A6"/>
<path d="M87.0523 12.3605C86.6437 12.1017 86.1952 11.9624 85.5674 11.9425L83.1457 15.7043C83.0859 15.7939 82.9464 15.8337 82.8567 15.764L82.4082 15.4854C82.3185 15.4257 82.2886 15.2963 82.3584 15.1968L85.3083 10.6189C85.378 10.5193 85.4976 10.4895 85.5973 10.5492L86.0159 10.8179C86.1155 10.8776 86.1354 11.007 86.0657 11.1065L85.9461 11.2956C86.6038 11.2657 87.0922 11.425 87.4908 11.6837C87.6204 11.7633 87.6503 11.8629 87.5805 11.9723L87.3413 12.3405C87.2815 12.4401 87.1819 12.45 87.0523 12.3704V12.3605Z" fill="#0054A6"/>
<path d="M88.507 20.0333C87.939 19.5457 87.5702 19.1277 87.2613 18.7595C87.1417 18.6202 87.1616 18.5704 87.2314 18.4808L87.5104 18.1624C87.5902 18.0728 87.6898 18.0828 87.7596 18.1524C87.7596 18.1524 87.7795 18.1723 87.7895 18.1723C88.1283 18.5306 88.7064 19.058 89.0851 19.3765C90.0617 20.2125 90.6597 20.0532 91.148 19.486C91.4968 19.0879 91.4569 18.65 91.1181 17.5652L90.7394 16.4108C90.3906 15.3161 90.3707 14.5797 90.9288 13.9328C91.7759 12.9475 92.8721 13.1068 94.1079 14.1617C94.5862 14.5797 95.1643 15.1569 95.4333 15.4753C95.5031 15.5649 95.523 15.6545 95.4533 15.7341L95.1543 16.0824C95.0845 16.162 94.9849 16.162 94.9052 16.0924C94.9052 16.0924 94.8985 16.0857 94.8852 16.0725C94.5464 15.744 93.9983 15.2265 93.5299 14.8285C92.6927 14.1119 92.1845 13.9825 91.6762 14.5697C91.3473 14.9578 91.4171 15.4057 91.7161 16.3113L92.0748 17.406C92.5333 18.7694 92.4834 19.5059 91.9154 20.1528C91.2477 20.929 90.1115 21.4266 88.517 20.0532L88.507 20.0333Z" fill="#0054A6"/>
<path d="M93.012 24.263C92.8426 24.1336 92.6333 23.9545 92.4838 23.8052C91.7962 23.0986 91.6566 22.5911 92.4838 21.765L95.1547 19.1576L94.5069 18.3316C94.4272 18.242 94.4172 18.1326 94.5069 18.053L94.7162 17.8539C94.7959 17.7743 94.9155 17.7843 94.9952 17.8639L95.7227 18.6003L96.4702 17.8738C96.5499 17.7942 96.6595 17.7942 96.7592 17.8639L97.2076 18.2022C97.2076 18.2022 97.2176 18.2122 97.2276 18.2221C97.2874 18.2819 97.2874 18.3913 97.2076 18.461L96.3705 19.2771L97.1777 20.1031C97.2575 20.1827 97.2575 20.322 97.1777 20.4116L96.9186 20.6703C96.8389 20.7499 96.6994 20.7499 96.6097 20.6703L95.8024 19.8443L93.1316 22.4517C92.713 22.8598 92.7529 23.029 93.0519 23.3375L93.4704 23.7654C93.5701 23.8749 93.6 23.9545 93.5203 24.0341L93.2512 24.2929C93.1814 24.3625 93.0917 24.3625 92.9821 24.2829L93.012 24.263Z" fill="#0054A6"/>
<path d="M96.1214 27.9453L95.8125 27.5571C95.7327 27.4676 95.7527 27.3282 95.8423 27.2586L96.0217 27.1093C95.4636 26.9003 94.9554 26.6216 94.5767 26.1638C93.9987 25.4573 93.7794 24.5616 94.8159 23.7157L94.9155 23.636C95.8125 22.9095 96.6895 23.0588 97.8953 24.5417L98.3936 25.1587L98.7225 24.89C99.4201 24.3227 99.46 23.8848 98.9318 23.238C98.4933 22.7006 98.1345 22.3323 97.8256 22.0238C97.8156 22.0039 97.8056 21.994 97.7957 21.984C97.7359 21.9044 97.696 21.8148 97.8056 21.7253L98.0946 21.4864C98.1843 21.4068 98.284 21.4267 98.3936 21.5362C98.7325 21.8248 99.0912 22.1731 99.5497 22.7304C100.486 23.8848 100.287 24.8203 99.3105 25.6165L96.4104 27.9751C96.3207 28.0547 96.1812 28.0348 96.1114 27.9453H96.1214ZM97.8654 25.5767L97.3671 24.9696C96.5499 23.9645 96.1114 23.8848 95.5234 24.3625L95.4238 24.4422C94.8258 24.9298 94.8956 25.3378 95.2942 25.8255C95.6032 26.2037 96.0018 26.4525 96.54 26.6714L97.8754 25.5767H97.8654Z" fill="#0054A6"/>
<path d="M99.2503 32.6027L98.9713 32.1747C98.9015 32.0752 98.9314 31.9458 99.0311 31.8762L101.991 29.9654C102.898 29.3782 102.978 28.8906 102.539 28.2138C102.3 27.8357 101.881 27.5073 101.403 27.2286L97.606 29.6768C97.5163 29.7365 97.3768 29.7166 97.307 29.6171L97.018 29.1792C96.9582 29.0896 96.9881 28.9503 97.0877 28.8906L101.672 25.9249C101.772 25.8652 101.901 25.8751 101.961 25.9746L102.25 26.4225C102.32 26.522 102.28 26.6514 102.18 26.7111L102.011 26.8206C102.609 27.1291 103.007 27.4475 103.346 27.9849C104.044 29.0598 103.685 29.9853 102.489 30.7516L99.5294 32.6624C99.4297 32.7221 99.3002 32.6922 99.2304 32.5927L99.2503 32.6027Z" fill="#0054A6"/>
<path d="M101.881 37.4394C101.473 36.902 101.134 36.3447 100.835 35.7575C100.127 34.3344 100.725 33.2098 102.16 32.4932L102.848 32.1549C104.353 31.4085 105.539 31.6772 106.236 33.0704C106.386 33.369 106.585 33.8268 106.705 34.2348L108.489 33.3491C108.588 33.2993 108.708 33.3392 108.758 33.4387L108.997 33.9263C109.047 34.0159 108.997 34.1353 108.897 34.1851L102.19 37.519C102.061 37.5787 101.981 37.5887 101.871 37.4294L101.881 37.4394ZM105.997 34.5931C105.897 34.2448 105.658 33.7472 105.499 33.4387C105.03 32.5032 104.293 32.4833 103.266 32.9908L102.579 33.3292C101.532 33.8467 101.094 34.4339 101.572 35.3793C101.732 35.7077 101.991 36.1655 102.19 36.474L105.997 34.5832V34.5931Z" fill="#0054A6"/>
<path d="M103.715 42.4253L103.546 41.9676C103.506 41.8581 103.566 41.7287 103.676 41.6889L103.895 41.6093C103.436 41.2311 103.038 40.8131 102.828 40.2558C102.519 39.3999 102.589 38.4844 103.845 38.0166L103.965 37.9768C105.051 37.5688 105.818 38.0067 106.486 39.7881L106.765 40.5345L107.164 40.3852C108.001 40.0767 108.19 39.6786 107.901 38.8924C107.662 38.2356 107.443 37.7778 107.253 37.3896C107.253 37.3697 107.243 37.3598 107.233 37.3399C107.203 37.2503 107.203 37.1508 107.333 37.101L107.682 36.9717C107.791 36.9319 107.881 36.9717 107.951 37.111C108.17 37.4991 108.409 37.937 108.658 38.6137C109.177 40.007 108.678 40.833 107.502 41.2709L104.004 42.5746C103.895 42.6144 103.775 42.5547 103.725 42.4453L103.715 42.4253ZM106.137 40.7534L105.858 40.007C105.41 38.7929 105.021 38.5739 104.303 38.8426L104.184 38.8824C103.456 39.1511 103.396 39.5592 103.606 40.1463C103.775 40.6141 104.074 40.9624 104.513 41.3505L106.127 40.7534H106.137Z" fill="#0054A6"/>
<path d="M109.715 44.7043C109.585 44.2366 109.336 43.8286 108.887 43.4006L104.562 44.5949C104.453 44.6247 104.323 44.5551 104.303 44.4456L104.164 43.938C104.134 43.8385 104.204 43.7191 104.323 43.6892L109.595 42.2362C109.705 42.2064 109.824 42.2562 109.854 42.3756L109.984 42.8632C110.014 42.9727 109.944 43.0822 109.834 43.122L109.615 43.1817C110.113 43.5997 110.382 44.0376 110.512 44.4953C110.552 44.6446 110.512 44.7342 110.382 44.7641L109.964 44.8735C109.854 44.9034 109.764 44.8536 109.725 44.7043H109.715Z" fill="#0054A6"/>
<path d="M105.788 50.7751C105.539 50.1481 105.37 49.5212 105.25 48.8743C104.961 47.3118 105.848 46.3962 107.423 46.0977L108.18 45.9584C109.834 45.6498 110.901 46.237 111.18 47.7696C111.24 48.098 111.299 48.5956 111.309 49.0236L113.263 48.6553C113.362 48.6354 113.472 48.7051 113.502 48.8146L113.601 49.352C113.621 49.4615 113.552 49.561 113.442 49.5809L106.077 50.9542C105.938 50.9742 105.858 50.9542 105.788 50.7751ZM110.532 49.1629C110.532 48.8046 110.432 48.2573 110.372 47.9189C110.183 46.8839 109.476 46.6649 108.349 46.8839L107.592 47.0232C106.446 47.2322 105.868 47.68 106.057 48.725C106.127 49.0833 106.247 49.5908 106.346 49.9491L110.522 49.1728L110.532 49.1629Z" fill="#0054A6"/>
<path d="M105.918 53.0341L105.868 52.5166C105.858 52.3972 105.938 52.2977 106.057 52.2778L111.489 51.7105C111.608 51.7006 111.708 51.7802 111.728 51.8996L111.778 52.4171C111.788 52.5365 111.698 52.636 111.588 52.6559L106.157 53.2232C106.037 53.2332 105.928 53.1535 105.918 53.0341ZM112.725 52.3474L112.665 51.8001C112.655 51.6807 112.744 51.5811 112.854 51.5612L113.711 51.4717C113.831 51.4617 113.93 51.5413 113.95 51.6607L114 52.2081C114.01 52.3275 113.93 52.437 113.811 52.447L112.954 52.5365C112.834 52.5465 112.735 52.4569 112.715 52.3474H112.725Z" fill="#0054A6"/>
<path d="M106.187 58.2788L106.087 55.0444C106.067 54.5767 106.356 54.3777 106.655 54.3677H106.854C107.153 54.3478 107.313 54.4175 107.562 54.5866L111.09 57.2438C111.09 57.2438 111.15 57.2836 111.189 57.2836C111.229 57.2836 111.269 57.2538 111.259 57.1742L111.179 54.5667C111.179 54.4473 111.269 54.3478 111.389 54.3478H111.758C111.877 54.3378 111.977 54.4274 111.977 54.5468L112.076 57.7016C112.086 58.1395 111.887 58.3087 111.568 58.3186H111.309C111.08 58.3385 110.92 58.2689 110.711 58.0997L107.093 55.3928C107.093 55.3928 107.004 55.343 106.974 55.343C106.924 55.343 106.894 55.353 106.894 55.4326L106.984 58.2589C106.984 58.3784 106.894 58.4779 106.775 58.4779H106.406C106.286 58.4878 106.187 58.3983 106.187 58.2788Z" fill="#0054A6"/>
<path d="M105.908 63.3842L105.948 62.8866C105.948 62.7672 106.057 62.6776 106.177 62.6875L106.406 62.7074C106.147 62.17 105.958 61.6227 105.997 61.0256C106.057 60.11 106.516 59.3138 107.851 59.4034H107.981C109.137 59.4929 109.665 60.2095 109.525 62.1103L109.475 62.8965L109.904 62.9264C110.801 62.9861 111.13 62.7074 111.19 61.8715C111.239 61.1748 111.229 60.6673 111.22 60.2294C111.22 60.2095 111.22 60.1995 111.22 60.1796C111.22 60.0801 111.269 59.9905 111.399 60.0005L111.778 60.0304C111.897 60.0304 111.957 60.1199 111.957 60.2692C112.007 60.7071 112.037 61.2047 111.987 61.9312C111.877 63.414 111.09 63.9614 109.824 63.8718L106.097 63.6131C105.977 63.6131 105.888 63.5036 105.898 63.3842H105.908ZM108.808 62.8567L108.858 62.0705C108.947 60.7768 108.688 60.4185 107.931 60.3588H107.801C107.034 60.2991 106.805 60.6474 106.755 61.2644C106.725 61.7521 106.835 62.2098 107.084 62.7373L108.808 62.8567Z" fill="#0054A6"/>
<path d="M105.29 67.4148C105.29 67.1958 105.32 66.9172 105.35 66.7181C105.499 65.7428 105.828 65.3149 106.994 65.504L110.692 66.0812L110.971 65.076C111.001 64.9666 111.08 64.887 111.19 64.9069L111.479 64.9566C111.598 64.9765 111.658 65.0661 111.638 65.1855L111.479 66.2106L112.515 66.3698C112.625 66.3897 112.695 66.4793 112.695 66.5888V67.156C112.695 67.156 112.695 67.1759 112.695 67.1859C112.675 67.2655 112.595 67.3352 112.485 67.3152L111.329 67.1361L111.15 68.2806C111.13 68.4 111.02 68.4796 110.901 68.4597L110.542 68.4C110.422 68.3801 110.343 68.2706 110.363 68.1512L110.542 67.0067L106.845 66.4295C106.267 66.34 106.157 66.4693 106.087 66.8973L105.998 67.4844C105.968 67.6337 105.918 67.7034 105.818 67.6835L105.449 67.6238C105.36 67.6039 105.3 67.5441 105.3 67.4048L105.29 67.4148Z" fill="#0054A6"/>
<path d="M104.911 69.2161L105.021 68.7185C105.051 68.5991 105.16 68.5294 105.28 68.5593L110.612 69.7436C110.731 69.7734 110.801 69.8829 110.771 70.0023L110.662 70.4999C110.632 70.6094 110.522 70.689 110.402 70.6591L105.071 69.4748C104.951 69.4549 104.881 69.3355 104.911 69.2161ZM111.578 70.7188L111.698 70.1814C111.718 70.072 111.838 69.9924 111.957 70.0222L112.794 70.2113C112.904 70.2312 112.984 70.3506 112.954 70.47L112.834 70.9975C112.804 71.1169 112.695 71.1866 112.575 71.1567L111.738 70.9676C111.618 70.9378 111.548 70.8283 111.578 70.7089V70.7188Z" fill="#0054A6"/>
<path d="M103.895 72.759C104.353 71.2563 105.579 70.7985 107.084 71.2562L107.861 71.4951C109.366 71.9529 110.123 73.0277 109.665 74.5305C109.206 76.0332 107.971 76.501 106.466 76.0432L105.688 75.8043C104.184 75.3465 103.426 74.2618 103.895 72.759ZM106.745 75.1375C107.791 75.456 108.579 75.247 108.878 74.2817C109.167 73.3263 108.638 72.7092 107.592 72.3908L106.815 72.1519C105.768 71.8335 104.981 72.0425 104.682 72.9978C104.393 73.9532 104.911 74.5802 105.968 74.8987L106.745 75.1375Z" fill="#0054A6"/>
<path d="M101.204 79.8846L101.413 79.4169C101.463 79.3074 101.592 79.2576 101.702 79.3074L104.931 80.7106C105.918 81.1485 106.366 80.9495 106.695 80.2031C106.874 79.7851 106.914 79.2676 106.894 78.7103L102.748 76.909C102.649 76.8692 102.589 76.7398 102.639 76.6303L102.848 76.1526C102.888 76.0531 103.018 76.0033 103.127 76.0531L108.13 78.2326C108.24 78.2823 108.289 78.3918 108.24 78.5013L108.03 78.9889C107.981 79.0984 107.861 79.1382 107.751 79.0884L107.562 79.0088C107.632 79.6756 107.592 80.1832 107.333 80.7604C106.825 81.9347 105.848 82.1437 104.552 81.5764L101.323 80.1732C101.214 80.1235 101.164 79.9941 101.214 79.8846H101.204Z" fill="#0054A6"/>
<path d="M43.9997 114C42.7739 114 41.867 113.861 41.3089 113.731C41.0896 113.682 41.0099 113.592 41.0099 113.433V112.248C41.0099 112.059 41.1096 111.96 41.2591 111.96H41.3288C41.9866 112.069 43.013 112.149 43.8203 112.149C45.0162 112.149 45.5245 111.671 45.5245 110.159V110.059C45.1657 110.129 44.488 110.228 43.91 110.228C42.0663 110.228 40.5415 109.442 40.5415 107.183V107.083C40.5415 105.013 41.7972 103.62 44.1492 103.62C46.3516 103.62 47.8067 104.914 47.8067 107.631V109.721C47.8067 112.806 46.3317 114 44.0096 114H43.9997ZM45.5145 107.631C45.5145 105.78 44.9265 105.392 44.1292 105.392C43.332 105.392 42.8038 105.74 42.8038 107.083V107.183C42.8038 108.298 43.4615 108.606 44.2688 108.606C44.6176 108.606 45.1956 108.526 45.5145 108.467V107.631Z" fill="#0054A6"/>
<path d="M52.8293 114C50.5072 114 49.1519 112.676 49.1519 109.402V108.228C49.1519 104.954 50.5072 103.61 52.8293 103.61C55.1513 103.61 56.5167 104.944 56.5167 108.228V109.402C56.5167 112.676 55.1513 114 52.8293 114ZM54.1846 108.228C54.1846 106.068 53.5966 105.551 52.8293 105.551C52.0619 105.551 51.4938 106.068 51.4938 108.228V109.402C51.4938 111.562 52.0619 112.059 52.8293 112.059C53.5966 112.059 54.1846 111.562 54.1846 109.402V108.228Z" fill="#0054A6"/>
<path d="M61.5099 114C59.1879 114 57.8325 112.676 57.8325 109.402V108.228C57.8325 104.954 59.1879 103.61 61.5099 103.61C63.832 103.61 65.1973 104.944 65.1973 108.228V109.402C65.1973 112.676 63.832 114 61.5099 114ZM62.8653 108.228C62.8653 106.068 62.2773 105.551 61.5099 105.551C60.7426 105.551 60.1745 106.068 60.1745 108.228V109.402C60.1745 111.562 60.7525 112.059 61.5099 112.059C62.2674 112.059 62.8653 111.562 62.8653 109.402V108.228Z" fill="#0054A6"/>
<path d="M69.2533 111.94V106.078L67.4794 106.844C67.4096 106.874 67.3598 106.884 67.3199 106.884C67.2202 106.884 67.1704 106.815 67.1704 106.705V105.153C67.1704 105.053 67.2103 105.003 67.3099 104.964L69.7815 103.799C69.8811 103.759 69.9609 103.749 70.1004 103.749H71.3262C71.4757 103.749 71.5853 103.859 71.5853 104.008V111.95H73.3991C73.5486 111.95 73.6781 112.059 73.6781 112.209V113.612C73.6781 113.761 73.5486 113.89 73.3991 113.89H67.4495C67.3 113.89 67.1704 113.761 67.1704 113.612V112.209C67.1704 112.059 67.3 111.95 67.4495 111.95H69.2632L69.2533 111.94Z" fill="#0054A6"/>
</g>
<defs>
<clipPath id="clip0_373_2">
<rect width="114" height="114" fill="white"/>
</clipPath>
</defs>
</svg>
