<?xml version="1.0" encoding="utf-8"?>
<!-- Generator: Adobe Illustrator 19.2.1, SVG Export Plug-In . SVG Version: 6.00 Build 0)  -->
<svg version="1.1" id="layer" xmlns="http://www.w3.org/2000/svg" xmlns:xlink="http://www.w3.org/1999/xlink" x="0px" y="0px"
	 viewBox="0 0 652 652" style="enable-background:new 0 0 652 652;" xml:space="preserve">
<style type="text/css">
	.st0{fill-rule:evenodd;clip-rule:evenodd;fill:#231815;}
	.st1{fill-rule:evenodd;clip-rule:evenodd;fill:#C8BE51;}
	.st2{fill-rule:evenodd;clip-rule:evenodd;fill:#547C5F;}
	.st3{fill-rule:evenodd;clip-rule:evenodd;fill:#1D2087;}
	.st4{fill-rule:evenodd;clip-rule:evenodd;fill:#FFFFFF;}
	.st5{fill-rule:evenodd;clip-rule:evenodd;fill:#D33D22;}
	.st6{fill-rule:evenodd;clip-rule:evenodd;fill:#F8E600;}
</style>
<path class="st0" d="M321.3,568c-0.1-0.1-2.2-1.7-4.4-3.4c-3.9-2.9-9.1-6-17.9-8.5c-15.6-4.3-24.5-3.6-41.5-9.5
	c-22.5-7.9-52.3-24.6-75.8-48.9c-25-25.7-50.6-68.2-48.4-128.2c2.1-56.1,25.7-88.1,19.3-139.2c-4.7-37.5-24.1-57.3-24.1-57.6
	c0-0.3,0.1-0.6,0.3-0.8l71.5-84.6c0.4-0.4,1-0.6,1.5-0.3c7.2,4.3,15.2,8.3,23.3,10.9c26.6,8.4,52.6,2.7,71.2-6.4
	c9.1-4.5,17-10.4,22.9-15.4c0.8-0.6,1.5-1.3,2.1-1.3c0.6,0.1,1.3,0.7,2.1,1.3c5.8,5,13.7,10.8,22.9,15.4
	c18.7,9.1,44.6,14.8,71.2,6.4c8.1-2.5,16.1-6.5,23.3-10.9c0.5-0.3,1.1-0.2,1.5,0.3l71.5,84.6c0.2,0.2,0.3,0.5,0.3,0.8
	c0,0.3-19.4,20.1-24.1,57.6c-6.4,51.1,17.2,83.1,19.3,139.2c2.2,60-23.4,102.5-48.4,128.2c-23.6,24.2-53.3,41-75.8,48.9
	c-17,6-25.8,5.2-41.5,9.5c-8.8,2.5-14,5.7-17.9,8.5C323.4,566.3,321.4,567.9,321.3,568 M321.3,566.7c4.1-3.4,7-6.4,15.3-9.7
	c9.6-3.9,22.6-4.9,35-7.9c21.5-5.3,50.5-18,78.3-42.7c27.9-24.6,56.5-64.8,58.2-124.5c0.9-28.9-6.1-60.8-13.8-88.5
	c-6.8-24.5-9.8-57.3-0.8-85.1c7.3-22.7,19.6-35.5,19.4-35.7l-71.4-84.5c-20.2,11.9-31.2,13.3-41.7,14.4c-19.7,2-35.3-1.9-47-6.7
	c-19.6-8.1-31.2-19.9-31.4-19.7c-0.3-0.2-11.8,11.6-31.4,19.7c-11.7,4.8-27.3,8.8-47,6.7c-10.5-1.1-21.5-2.4-41.7-14.4l-71.4,84.5
	c-0.1,0.2,12.1,13,19.4,35.7c9,27.8,6,60.7-0.8,85.1c-7.7,27.7-14.7,59.6-13.8,88.5c1.7,59.7,30.3,99.9,58.2,124.5
	c27.8,24.6,56.8,37.4,78.3,42.7c12.4,3,25.4,4.1,35,7.9C314.3,560.3,317.2,563.3,321.3,566.7z M321.3,571.4
	c5.1-4.3,9.3-8.3,16.8-11.1c14.5-5.3,28.6-5.1,47.2-11.3c17.3-5.7,39.8-16.4,68-40.8c20.7-17.8,44.3-45.9,54.5-94
	c8.4-39.2,3.1-68.8-3.4-96.6c-4.8-20.6-14.6-42.2-12.5-80.6c2.5-43.6,26-64.1,25.7-64.5l-75.3-89.1c-14,8.3-26.1,12.6-36.8,14.7
	c-13.5,2.5-31.5,2-49.8-5.1c-19.3-7.4-34.2-21.6-34.3-21.6c-0.1-0.1-15,14.2-34.3,21.6c-18.3,7-36.2,7.6-49.8,5.1
	c-10.7-2-22.9-6.4-36.8-14.7l-75.3,89.1c-0.4,0.4,23.2,20.9,25.7,64.5c2.1,38.4-7.7,60.1-12.5,80.6c-6.5,27.8-11.8,57.3-3.4,96.6
	c10.3,48.1,33.8,76.2,54.5,94c28.1,24.3,50.6,35.1,68,40.8c18.6,6.2,32.8,6,47.2,11.3C312,563.1,316.1,567.2,321.3,571.4z"/>
<path class="st1" d="M211.2,406.8v14.9c37.1,16.4,73.9,22.5,110.6,22.6c36.8-0.1,73.6-6.2,110.7-22.6v-14.9l28-52.7l8.3,49l28.1,7
	l-35.5,45.7v20.1c-44.2,21.5-91,29.4-139.3,30.1c-0.1,0-0.1,0-0.2,0c-0.1,0-0.1,0-0.1,0c-48.3-0.7-95.1-8.6-139.2-30.1v-20.1
	l-35.6-45.7l28.1-7l8.3-49L211.2,406.8 M192,140.7c74.7-36.8,184.6-36.9,259.3,0l0.1,22.8c10.3,5.7,23.4,13.1,33.5,18.9L465,206.1
	l9.7,45.4c-21-13.3-37.6-25.8-56.9-38.1l-0.1-19.1c-53.6-24.3-138.4-24.4-192,0l-0.1,19.1c-19.3,12.3-35.9,24.8-56.9,38.1l9.7-45.4
	l-20-23.7c10.2-5.8,23.3-13.3,33.6-18.9L192,140.7z M304.6,221.4c-1.7,2.1-3.5,3.6-4,3.6c-1.1,0.1-2,0.1-4,0.3l-3,0.3l2.2,0.6
	c-1.1,1-2.3,2-3.4,3.2c2,0.5,3.7,1.4,5.5,2.3c-1.7,0.8-3.6,1.4-5.2,2.2c-0.4,0.3-0.8,0.6-1.3,1c-1.1,1-1.9,1.7-3.4,2.4
	c-2.5,1-4.5,0.8-7,0.6l-0.1,1.6c-0.8,1.3-1.3,2.2-2.2,3.9c0.4,0,1.1-0.1,1.6,0c0.6,0.1,1.1,0.1,1.7,0.3c1.7,0.1,2.9,0.8,4.5,1.8
	c-1,1.6-4.3,1.7-4.8,2.8l10.1-1.4L304.6,221.4z M379.6,291.1l-11.2,10.5l1.5,8.6c0.7-1,2-2.2,2.8-3.2c1.1-1.5,2.4-3.3,3.2-5.1
	c0.6-1.3,1.1-2.3,1.6-3.1c0.5-1,1.6-3,3.2-4.4c0.4,0.4,0.4,1.7,1,2c0.8-1.1-0.7-3.7-1.6-4.9C379.7,291.5,379.6,291.3,379.6,291.1z
	 M285.8,353.2l-15,7.5c0.3,0.2,0.5,0.4,0.8,0.5c1.1-0.7,2.2-1.5,3.2-2.2c1.7-0.9,3.7-1.1,6-1.1c2-0.1,4-0.3,6-0.4
	C286.3,356.3,285.9,354.9,285.8,353.2z M247.7,347.8c4.1,4,6.2,9,7.7,14c5.9,4.3,11.7,8.1,17.8,11.2c1.1-1.1,2.2-2.3,3.3-3.4
	c-4.1-1.5-7.7-3.6-10.9-6.3l-3.5,1.8l2-11.2c-1.4-1.3-3.4-2.8-4.8-3.4C257.6,349.6,251,348.3,247.7,347.8z M250.1,278.9l-5-4.8
	c1,3.1,1.4,6.5,1.5,9.4C247.5,282.2,248.9,280.5,250.1,278.9z M263.7,292.3l-2-2c0,0.9,0,1.7,0,2.5
	C262.3,292.6,263,292.4,263.7,292.3z M271.8,309.6l1.4-7.9l-5.2-5.1c-0.3,1.8-1.1,4-1.9,4.9l-0.1,4.3c0.8-1.8,3.2-2.9,5.5-3.1
	C271.3,305.1,271.3,307.8,271.8,309.6z M361,375.8c2.2-1,4.3-2,6.4-3.1C364.9,372.6,361.9,373.4,361,375.8z M314.8,338.8h-0.3
	l-22,11c0.2,0.3,0.4,0.4,0.7,0.6l0.5-0.3c0.9-0.5,1.7-1,2.6-1.6c1.8-1.1,3.7-2.2,5.8-3.1c1.5-0.6,2.7-0.9,3.9-1
	c1.7-0.1,3.1,0.3,4.3,1c1.1,0.8,2,1.8,2.5,3.1c0.4,1,0.6,2.1,0.7,3.2c0.1,1,0.3,1.6,0.7,2c0.2,0.3,0.4,0.5,0.6,0.6V338.8z
	 M326.6,354.4c0.3-0.1,0.4-0.3,0.6-0.6c0.4-0.4,0.6-1.1,0.7-2c0.1-1.1,0.3-2.2,0.7-3.2c0.5-1.3,1.3-2.4,2.5-3.1
	c1.1-0.8,2.5-1.1,4.3-1c1.1,0.1,2.5,0.4,3.9,1c2,0.9,3.9,2,5.7,3.1c0.9,0.6,1.8,1.1,2.7,1.6l0.4,0.2c0.2-0.1,0.4-0.3,0.6-0.4
	l-22-11.1V354.4z M339.4,363.6c0.5-1.6,1-3,1.6-4.4l-0.1-0.1l-4.3-2.2c-0.5-0.3-1.2-0.4-1.8-0.2c-0.2,0-0.3,0.1-0.5,0.2
	c-0.1,0.1-0.2,0.2-0.3,0.3c-0.2,0.3-0.2,0.7,0,1.3c0.2,1,0.3,1.8,0.1,2.7c-0.1,1.2-0.6,2.3-1.5,3.2c-0.7,0.8-1.6,1.3-2.7,1.7v1.4
	L339.4,363.6z M330,373.4v3.8h-1.3l1.4,6v0.2c10.3-0.8,19.3-3,27.6-6.3c-4.3,0.4-8.9-0.7-12.1-3.6v6.4L330,373.4z M296.5,371.9
	c-3.4,1.8-6.5,4.9-8.9,5.3c-1.7,0.3-3.3-0.1-4.8,0.1c8.8,3.4,18.2,5.5,29,6.2l0.1-0.2l1.4-6h-1.5v-3.7l-15.3,6.5V371.9z
	 M311.8,367.5v-1.2c-1.3-0.4-2.3-1-3.1-1.8c-0.8-0.9-1.3-2-1.5-3.2c-0.1-0.8-0.1-1.7,0.2-2.7c0.1-0.6,0.1-1-0.1-1.3
	c-0.1-0.1-0.1-0.2-0.3-0.3c-0.1-0.1-0.3-0.2-0.5-0.2c-0.6-0.1-1.2-0.1-1.8,0.2l-4.3,2.2l-0.3,0.2c0.1,0.4,0.3,0.8,0.4,1.1
	c0.1,0.1,0.1,0.1,0.1,0.2l1,2.5L311.8,367.5z M354.2,225.5c0,0.1,0.1,0.3,0.1,0.4c0.1,1-0.5,1.8-1.3,2.3c0,0.8-0.3,1.6-0.8,2.1
	c3,0.6,6.1,0.8,8.2-0.6c-0.3-0.6-0.8-1.3-1-2c0,0,0-0.1,0-0.1l-0.1,0.1c-0.3-0.4-0.6-1-1.1-1.5L354.2,225.5z M346.7,217
	c-0.4,0.4-1.2,0.7-1.9,0.8c-0.3,0.3-0.4,0.6-0.7,0.8c0.7,0.1,1.3,0.6,1.7,1.2c0.2,0.4,0.3,1,0.2,1.5c0.6,0.4,1.2,1.1,1.2,1.8
	c0.3-0.1,0.7-0.1,1.1-0.1c0.5-0.8,1.5-1.4,2.5-1.1c0.9,0.2,1.5,1,1.7,1.9l4.7,0.6c-0.8-1.3-1.6-3.4-3.1-4.2c-1.1-0.7-2.4-1.4-3.7-2
	C349.3,217.9,347.9,217.4,346.7,217z M342.2,205.7c-0.1,0.2-0.4,0.3-0.6,0.4c-0.9,0.3-1.8-0.2-2.5-0.8c-1.3,0.4-1.4-0.3-1,0.6
	c1-0.3,2-0.1,2.5,0.8c0.6,0.8,0.6,1.9,0.1,2.8c0.1,0.3,0.3,0.6,0.3,1c0.8-0.2,1.5,0,2.2,0.4c0.9-0.4,1.9-0.4,2.7,0.3
	c0.8,0.7,0.9,1.8,0.7,2.7c0.4,0.6,0.8,1.3,0.7,2c2,0.6,3.8,1.5,5.6,2.4C350,214.1,345.9,209.9,342.2,205.7z M352.6,215.8
	c1.3,1.9,2.9,4,3.2,4.5c0.1-0.6,0.1-1.1,0.1-1.8c-0.1-0.9-0.3-1.8-0.6-2.7C354.4,216.3,353.4,216.4,352.6,215.8z M340.2,225.9
	l10.4,20.4l6.2,1c-2-1.4-3.3-2.7-4.1-4.1c3,0.1,6.2,0.1,7.8-0.3c-0.6-0.2-1.7-1.1-1.9-1.7l-0.4-0.4l-1.5-2.9l-3.7-0.9l-1.2-0.7
	l-2.1-2.3l-4.9-4.7c0.4-0.1,1-0.1,1.6,0c-0.5-0.8-0.5-1.7-0.2-2.4c-0.4-0.4-0.6-1-0.7-1.5c-0.1,0-0.1,0-0.2,0.1c-0.3,1-1,2-2.2,2
	c-0.9,0-1.7-0.6-2-1.4C340.8,226.1,340.4,226.1,340.2,225.9z M395.6,253.7l20.1,3.2l-7.6,7.2c0.1,1.7,0.1,4.8,0.1,5.8
	c0,1.3-0.6,2.7-0.8,3.9c-0.4,2.5-1,5.3-0.2,7.7c0.1,0.3,0.3,0.6,0.4,1c1.7-0.9,3.6-1.8,5.3-2.4c1.4-0.4,3.2-1,5-1
	c0,1.3,0.9,4.8-1.9,6.7c-1.5,1.1-3.9,1.5-3.8,3.7c0.1,4.5-0.6,5.8-1.5,6.9c-2.7,3.8-5.3,8.4-9.7,10.4c-2.6,0.9-4.6,2.2-6.7,2.5
	l0.1-0.9c-1.7-0.3-2.8,0.6-3.2,2.5c3.7,0,7.4-0.1,11.1-0.2c2.3,0.3,3,1,5,2.2c-1.3,1.3-2.6,3.2-5.1,3c-0.2,0-0.6,0.1-0.9,0.1
	c-3.1,0.2-3.8,0.5-4.6,2c1.3,0.3,3.9,1,5.9,1.3l-0.3,3.7c-2.9,0.1-7.2-0.1-8.6,1.2c-1,1.1-1.3,2.9-2.4,3.9c1.2,0.9,2.3,2.4,3.7,2.6
	c2.5,0.2,5,1.6,7.7,2.9c-3,2.9-5.8,4.4-10.1,4.7c-1.4,0.1-3-0.1-4.8-0.5c1.8,3.6-8.2,5-12.8,4.7l1,6.2l8.3,0.1
	c-2.7,2.7-5.3,5.3-6.9,8.1l1.3,8.1l-5.6-2.9c-2.5,1.5-4.6,2.9-7,4.5c1.3,0.3,4.5,2,6.5,3c4.1-2.5,8.2-5.2,12.2-8.2
	c1.9-5.8,4.5-11.6,10-15.9c4.8-3.7,6.6,0.1,6.9,2.5V372c-9.7,8.6-20.7,15.6-32.6,20.7l-3.5,6.1c1.7-0.6,3.4-1.2,5.1-1.8
	c9.3-3.7,18-8.4,26.2-14.4c6.1-4.4,11.7-9.5,17.1-15c8.3-8.8,14.7-18,21-28.2l-1.1,18.4l17.8-10.7c-6,10.8-12.8,21.3-21.5,30.7
	c-6.4,6.9-13.6,13.3-21.5,19.3c-9.1,6.9-19.2,12.6-30.3,17c-10.9,4.4-22.8,7.7-35.7,9.8l-2.7,0.4l-1-18.9l2.7-4.8
	c-3.9,0.6-7.8,1-11.7,1.3l-0.2,0.8l-1.5,7.6h0.6c1.1,0,2.2,0.5,3,1.3c0.8,0.8,1.2,1.8,1.2,3c0,1.2-0.4,2.2-1.2,3
	c-0.8,0.8-1.8,1.3-3,1.3h-4.4c0.7,0.9,1.1,2,1.1,3.2c0,2.7-2.2,5-5,5c-2.7,0-4.9-2.2-4.9-5c0-1.2,0.4-2.3,1.1-3.2h-4.4
	c-1.1,0-2.2-0.5-3-1.3c-0.8-0.8-1.2-1.8-1.2-3c0-1.1,0.4-2.2,1.2-3c0.8-0.8,1.8-1.3,3-1.3h0.6l-1.5-7.6l-0.2-1.1
	c-4.6-0.3-9.1-0.9-13.4-1.6l3,5.4l-1,18.9l-2.7-0.4c-12.8-2.1-24.7-5.3-35.7-9.8c-11-4.4-21.1-10.1-30.2-17
	c-8-6-15.2-12.4-21.5-19.3c-8.8-9.5-15.6-19.9-21.6-30.7l17.9,10.7l-1.2-18.4c6.4,10.2,12.7,19.4,21,28.2c5.3,5.5,11,10.5,17.1,15
	c8.1,6,16.9,10.7,26.2,14.4c1.7,0.6,3.4,1.3,5,1.8l-3.6-6.4c-11.4-4.8-22-11.4-32.2-20.4v-24l0.1,0.1c0.4-2.4,2.2-6,6.9-2.4
	c0.6,0.4,1.2,1,1.8,1.5c3-0.6,14.1-2.1,14.9-2.2l-0.8-1.3l0.4-0.4c-2.8,0.1-5.6,0.1-8.4,0.1c-2.5,0-4.8-0.8-6.2-3.1
	c-0.6-1-1.1-2.2-2.1-2.9c-1.2-0.8-5.2-2.3-6.2-3.2l6.6-0.4c-1.6-1.8-2.9-3.7-4.5-5.5l-0.4-0.7c-1.3-3.6-2.9-7.2-4.9-10.7
	c1.4,0.3,3.5,0.9,5,1.3c1.5,0.4,2.7,0.9,3.9,1.4c0.7,0.4,1.5,0.7,2.2,0.9c-0.7-1.4-1.5-4-1.8-5.7c-1.5-0.4-2.7-2.2-1.8-4.4
	c-1-0.6-1.5-1.2-1.8-2.1c-2.5-1.4-5.3-4.1-6.9-6.5c-1.5-2.2-2.4-4.8-3-7.3c-0.6-2.4-0.7-4.9-0.8-7.4c-2.3-2.9-3.7-6.6-4.5-9.3
	c2.6,1,5.6,2,7.9,3.4c-0.1-1.1-0.1-2.2-0.1-3.2l0.1-9.2l2.9,4.4c0.1-1.9,0.2-4,0.5-7l-10.6-10.4l11.9-1.7v-0.1
	c-0.1-2.4-0.1-4.3,0.7-6.1c0.8-1.9,2.3-3.8,4-4.9c1-0.7,2-1.4,3.6-0.6c0.7,0.4,1.3,1.3,1.5,2.7c0.4-1.7,0.8-3.2,1.6-4.8
	c0.7-1.3,1.5-2.3,2.3-3.2c0.5-0.6,1-1.1,1.3-1.7c0.1-0.4-0.1-1.1-0.2-1.6c-0.2-1.9-1.5-3.4-2-6l5,1.8c1.5,1.1,2.6,2.2,3.2,3.9
	c1.5-1.3,2.7-2.7,3.9-4l-0.1-1.7l-0.8-7.7l5.3,6.4l1-0.1c0.2-1.8,0.6-3.4,1.5-5c1.1-2,2.8-3.6,5.3-4.8c0.5-0.3,0.8-0.6,1.3-1
	c0.5-0.4,0.8-0.9,1.3-1.3l1.8-3.9l1.8,3.6c0.6,1.1,0.9,1.8,1,3.2c0,0.5,0.1,1.4,0,1.7c1.1-0.3,1.1,0.1,2.2-0.8l0.3-1.9
	c0.5-0.6,1.1-1.1,1.8-1.7c0.6-0.6,1.1-1.1,1.7-1.7c1.7-1.6,3.3-2,5.3-2.7c0.6-0.1,1.1-0.4,1.3-0.4c0.8-0.1,1.5-0.3,2-0.8
	c0.4-0.6,0.9-1.1,1.5-1.5l6-4.3c-0.8,2.2-1.9,4.4-2.4,6.7c0,0.1-0.4,2.5-0.4,2.6c0.6-0.3,1.2-0.4,1.7-0.8c0.4-0.4,1-0.7,1.4-0.8
	c0.6-0.4,2.7-1.5,3.6-1.9c0,2-0.7,3.4-0.7,4.2c0,0.4-0.1,1-0.4,1.7c-0.2,0.4-0.3,0.8-0.3,1.2l14-27.6l17.6,34.5
	c0.1-0.3,0.3-0.6,0.5-0.8c-0.4-0.9-0.4-2,0.3-2.7c0.7-0.7,1.8-0.8,2.8-0.4c-1-0.2-1.5-1-1.8-1.8c-1.1-0.2-1.9-0.9-2-2
	c-0.1-0.9,0.4-1.7,1.2-2.2c-0.1-0.2-0.1-0.3-0.1-0.4c-0.5,0.2-1,0.2-1.5,0.1c-0.8,0.8-1.8,1.3-2.8,0.9c-0.8-0.4-1.3-1.2-1.3-2
	c-1-0.4-1.7-1.2-1.5-2.3c0.1-0.9,0.8-1.6,1.7-1.9c-0.1-0.6,0.1-1.2,0.3-1.6c0.5-0.8,1.5-1.1,2.4-0.8c-0.3-0.2-0.5-0.4-0.7-0.7
	c-0.4-0.7-0.3-1.6,0-2.3c-0.6-0.8-0.7-1.8,0-2.7c0.6-0.6,1.5-0.9,2.4-0.7c0.5-0.8,1.3-1.4,2.3-1.2c1,0.3,1.6,1.1,1.8,2
	c0.9,0.3,1.6,1,1.7,2c0,1-0.6,1.8-1.5,2.4c0,0.2-0.1,0.4-0.1,0.6c2,2.3,4.1,4.5,6,6.7l-0.5-3.3c-0.8,0.4-1.7,0.4-2.3-0.2
	c-0.7-0.6-0.9-1.5-0.8-2.4c-0.8-0.6-1.3-1.6-1-2.5c0.3-0.8,1.1-1.3,1.9-1.5c0.3-1,0.9-1.8,1.9-1.8c1-0.1,1.9,0.6,2.4,1.4
	c1,0,2,0.5,2.2,1.5c0.3,0.9,0,1.8-0.7,2.5c0.3,0.9,0.2,1.9-0.6,2.5c-0.5,0.4-1.1,0.5-1.7,0.4l0.7,4.8c-0.1,0,0.5,0.9,1.3,2.1
	c-0.1-0.4-0.2-1-0.1-1.4c-0.8-0.6-1.3-1.6-1-2.6c0.3-0.8,1.1-1.3,1.9-1.5c0.3-1,0.9-1.8,1.9-1.9c1-0.1,2,0.6,2.5,1.5
	c1,0,1.9,0.4,2.2,1.5c0.3,0.9,0,1.8-0.7,2.5c0.3,0.9,0.2,1.9-0.6,2.5c-0.4,0.3-0.9,0.4-1.4,0.4c0.3,0.8,0.4,1.7,0.5,2.5
	c0.1,1.1,0,2.2-0.2,3.2c0.5,1.3,1.3,2.6,2.2,3.8c0-0.8,0-1.5,0.1-2c0.6-6.4,1.3-12.5,3.4-16.3c0.6,3.6,1.1,6.1,1.8,7.4
	c0.3,0.8,1.3,1.8,1.6,2.9c0.9,0.2,2.8,0.6,3.6,1.1c0-0.2,0.4-0.9,0.3-1.1c-0.3-1-1.9-0.3-1.7-3c0-0.8-0.1-3,0.2-4.1
	c1.3,0.6,4.1,2.5,4.6,3.1c1.7,2.1,2.8,3.8,4.2,5.7c1.3,2,2.7,3.9,3.8,5.9c0.8,1.4,2,3.4,2.2,4.4l3.2,0.3c1.3,1,2.5,2.3,3.3,3.4
	c2,2.7,2.2,5.1,3.1,8.2c0.6,2,1,4,1.3,6c0.6,1,0.9,2,1.1,3.1c0.1,1.1,0.1,2,0.1,3C395.6,253.5,395.6,253.5,395.6,253.7z M321.3,81.3
	c-0.3-0.3-22.8,22.7-60.7,25.4c-22,1.5-41.5-3.3-58.5-13.3L135,172.7c14,18.2,22.4,40.1,23.4,65.5c0.8,19-0.8,37.9-6,55.4
	c-9.1,31.1-14.7,60.3-13.8,87.1c1.4,44.6,18.1,88.5,54.8,120.8c27.8,24.5,57.6,40.5,90,45.8c7.7,1.3,15.4,2.9,22.2,5.1
	c10.7,3.5,15.6,8.9,15.6,8.8c0.1,0.1,5-5.3,15.6-8.8c6.7-2.2,14.5-3.9,22.2-5.1c32.4-5.3,62.2-21.3,90-45.8
	c36.7-32.4,53.4-76.2,54.8-120.8c0.9-26.8-4.7-56.1-13.8-87.1c-5.2-17.5-6.7-36.4-6-55.4c1.1-25.4,9.4-47.3,23.4-65.5l-67.1-79.3
	c-17,10-36.5,14.9-58.5,13.3C344.1,104.1,321.6,81.1,321.3,81.3z"/>
<path class="st2" d="M306.1,332.1c-5-1.6-9.7-4-13.8-7.1l-17.9,23.4C274.4,348.5,299.9,335.3,306.1,332.1 M359.4,314.7
	c-3,4.1-6.7,7.7-10.8,10.7l17.6,23l-0.1-0.1L359.4,314.7z M359.4,258.2c3.2,4.4,5.7,9.3,7.3,14.5l28.9-9.5h-0.1L359.4,258.2z
	 M240.7,253.9l2.1-0.3l0.1-1.6c-0.4-0.3-1-0.4-1.5-0.6c0.2-0.5,0.4-1,0.5-1.5c0.4,0.1,0.9,0.3,1.3,0.4c0.1-0.1,0.2-0.1,0.3-0.2
	c0.1-0.4,0.1-0.8,0.1-1.2c0.4-0.1,1-0.2,1.4-0.3c0.1,1.6-0.4,3.2-0.4,4.8l2.3-0.3c0-0.3-0.1-0.6-0.1-0.8c-0.4-1.5-0.8-2.5-0.7-4.9
	c0.1-3.4-0.8-2.7-1.8-2.1C241.8,246.9,240.6,249.8,240.7,253.9z M385.3,308c0,1.3-0.1,2.6-0.4,3.9c0.5-0.1,1-0.2,1.5-0.3
	C386.4,310.1,386.2,308.8,385.3,308z M265.5,346.2l0.4-2.7c-0.8-0.4-1.4-0.1-1.8,0.4L265.5,346.2z M264.6,351l0.4-2.4
	c-0.6-1.3-2.6-1.6-5.3-0.8C261.6,348.7,263.4,349.8,264.6,351z M266.2,294.8l-0.3-0.3c-1.5-0.2-2.9-0.4-4.3,0.4
	c-0.1,0.8-0.1,1.7-0.1,2.5c0.9-0.2,1.8-0.4,2.7-0.6c0.1,0.5,0.2,1,0.3,1.5c-1.2,0.4-2.4,0.9-3.6,1.3c-0.2,0.8-0.4,1.5-0.6,2.3
	c2.3-0.6,4.1-1.7,5-3.4C265.9,297.4,266,296,266.2,294.8z M263.7,304.2c-2.2,2.5-3.8,5.9-5.1,10.2c0.4-0.1,0.7-0.3,1-0.4
	c0.3,0.1,0.5,0.3,0.8,0.4c0.1-1,0.3-2,0.4-2.9c0.6,0.1,1.1,0.1,1.7,0.3c-0.1,0.8-0.1,1.7-0.1,2.5c0.6-0.2,1.3-0.4,2-0.6
	C263.7,311.5,263.6,308.2,263.7,304.2z M376.4,351.1l0.4,2.7l2-2.7H376.4z M378.6,241.2c-0.3-1.9-0.8-3.6-2.2-5.1
	c-1.1-1.1-2.3-2.4-2.8-3.6c0.4-0.3,1.1-0.4,2-0.4c-0.8-1.8-2.2-3.6-4.3-5.3c-0.4,2.6,0.1,5,1.1,7.2c0.8,1.7,2.3,1.5,2.8,3.7
	C375.6,239.2,377.2,240.2,378.6,241.2z M362.4,214.7c-0.3,2.5-0.6,5-1,7.6c0,1.8,0.3,3.2,0.5,4.6c0.4,1.5,1.1,2.8,2.8,3.6
	c1.7,2.2,3.4,4.4,5,6.7c1.3,1.6,2.7,2.3,4.2,1.7c-0.2-0.6-0.4-1.3-0.6-1.9l-1.2-1.1c-0.1-0.3-0.3-0.6-0.4-0.9l-7.4-8.8
	c0.1-0.6,0.2-1.3,0.3-2c0.4,0.3,0.7,0.4,1.1,0.7v-2.8c0.4-0.3,0.9-0.8,1.4-1.1c0.6,2.1,0.8,4.2,0.8,6.3c0.5,0.5,1.1,1,1.7,1.5
	c-0.1-2.1-0.3-4.2-0.4-6.3c-0.2-2-2-2.5-3.7-2.9c-1.1,0.2-1.7-0.4-1.5-1.8C363.8,215.8,363.3,214.8,362.4,214.7z M371.3,214.8
	c-0.6-0.7-0.9-0.4-0.4,0.3c0.9,1.3,1.5,2.5,1.1,4.2c-0.8,2.4-0.8,4.6-0.6,7c0.8-0.1,1.5-0.1,2.3-0.1c-0.3-1-0.6-1.8-0.9-2.7
	c0.5-0.7,1.1-1,1.8-0.6c0.4,1.2,0.9,2.4,1.4,3.6c0.1-0.1,0.2-0.3,0.3-0.4l0.1-1.5c0.6,0,1.2,0.2,1.7,0.5c-0.1,2.4-0.2,4.8-0.3,7.2
	c0.2,0,0.4,0,0.6,0c0-0.4,0.1-1,0.1-1.4c0.4-0.4,1.1-0.1,1.7,0.2c-0.1,1.8-0.3,3.7-0.3,5.6c0.1,2.1,0.6,3.4,1.1,4.5
	c0.8-2.4,1.1-5,0.8-7.8c-0.3-2.3-1-4.4-2.4-6.9C377.2,222.5,374.5,218.7,371.3,214.8z M376.5,241.8c-0.3-0.4-0.7-0.8-1-1.1
	c-2.2,0.3-4.3,0.4-6.4-1.7c-1-0.1-1.8-0.3-2.7-0.3c-0.3,0.7-0.6,1.5-0.8,2.2c-0.6-0.2-1.1-0.4-1.7-0.5c0.1-0.8,0.3-1.5,0.4-2.2
	c-0.7-0.1-1.4-0.3-2.1-0.3c-1-0.3-1.2-1.1-1.3-2h2.5c-0.3-0.8-0.5-1.6-0.8-2.4c0.4-0.2,0.9-0.4,1.3-0.6l2.1,3.2
	c0.1-0.1,0.3-0.1,0.5-0.2c-0.8-1.3-1.7-2.6-2.5-3.9c-0.6-0.6-1.3-0.7-2.7-0.1c-3.1,1-6.4,1.2-9.9,0.6l2.2,2.3
	c1.3,0.4,2.8,0.8,4.2,1.2c0.8,1.3,1.6,2.5,2.3,3.6c1.8,1.8,3.7,3.1,5.8,2.9c1.7-0.2,3.4-0.4,5-0.6
	C373.2,241.5,374.9,241.6,376.5,241.8z M362.5,248.3l6.5,1.1c-0.7-0.8-1.4-1.6-2.1-2.4c0.6-0.4,1.3-0.6,2-0.6l1.9,1.1
	c0.6-0.7,1.2-1.4,1.8-2.1c1-0.3,1.7-0.1,2.4,0.1c-0.7,1.2-1.5,2.4-2.2,3.5c0.4,0.4,0.7,0.8,1,1.2l8.1,1.3l-0.8-2
	c-1.5-1.7-3.2-3-5.4-4.1c-1.5-0.8-3.5-1.1-8.8-0.5c-2.7,0.4-5.3,0.3-8,0.5C360.1,246.3,361.3,247.3,362.5,248.3z M380.6,243.8
	c0.1,1.1-0.1,2.4,0.9,3.4c1.3,1.5,2.7,2.8,4,4.1c-1.1-1.5-2.1-3.1-3.2-4.7C381.7,245.8,381,244.9,380.6,243.8z M388.3,252.5l1,0.1
	c-0.4-1.8-0.9-3.6-1.3-5.4c-1.3-0.8-2.3-1.8-3.2-2.9c0.3-0.4,0.6-0.9,1-1.3c0.3,0.2,0.6,0.4,0.9,0.5v-1.8c0.6-0.1,1.3-0.3,1.9-0.4
	c0.6,2.2,1.1,4.3,1.7,6.4c0.6-0.5,1.2-1.1,1.8-1.6c-0.6-3-1.4-5.9-2.4-8.9c-0.7-2-1.9-3.7-4-5.3c0.5,2.8,0.6,5.6-0.4,8.3
	c-1.3,3.5-1.7,7,2.5,10.8C387.8,251.5,388.1,252,388.3,252.5z M391.4,253l2,0.3c0-1.8,0-3.6-1-5.1c-0.6,0.6-1.2,1.2-1.8,2
	C391,251.1,391.3,252,391.4,253z M272.8,287.8c0-0.4,0-0.9,0-1.4c0-5,0.8-9.9,2.2-14.5l-28.5-9.7
	C246.4,262.4,269.3,284.5,272.8,287.8z M236.1,278c0,2.7,0.2,5.3,1.3,7.8c0.6,2.7,1.2,5.5,1.8,8.3c1.1,3.6,2,6.1,2.8,7.4
	c1.1-1,2.2-1.6,3.2-1.7l-0.2-1.6c-1-0.3-1.9-0.5-2.9-0.8c-0.1-0.6-0.3-1.2-0.4-1.8l2,0.2c-0.5-1.4-1.1-2.8-1.6-4.2
	c-0.7-0.2-1.3-0.3-2-0.4c-0.2-0.8-0.4-1.5-0.6-2.3c0.5,0.1,1,0.1,1.5,0.1c-0.2-0.5-0.4-1-0.6-1.6c0.5-0.1,1-0.2,1.5-0.3
	c0.6,1,1.2,1.9,1.7,2.9c0.3-0.5,0.4-1.1,0.6-1.6c0.5,0.3,1.1,0.4,1.6,0.7c-0.3,1.5-0.5,2.9-0.8,4.3l1.7,3.6c0.4-0.4,0.7-1,1.1-1.5
	c0.3,0.6,0.4,1.1,0.7,1.6c-0.3,0.7-0.6,1.4-0.9,2.2c0.8-0.4,1.5-0.7,2.2-0.8c0.1-1.7-0.2-3.2-0.4-5.3c-0.2-2.3-1.1-4.5-2.9-6.5
	C244.2,284,238.9,282,236.1,278z M255.2,284l-3.9-3.8c-1.3,1.7-2.5,3.2-3.6,5c0.5,0.6,1,1.2,1.4,1.8c0.4-0.4,1-0.9,1.4-1.3
	c-0.1-1-0.2-1.9-0.3-2.9c0.6-0.2,1.2-0.3,1.8-0.1c0.3,1.3,0.4,2.5,0.6,3.8c0.4,0.3,0.9,0.4,1.3,0.7c0.1,0.4-0.1,0.8-0.3,1.3
	c-0.9-0.1-1.7-0.2-2.5-0.3c-0.3,0.3-0.4,0.5-0.7,0.8c0.4,1.3,0.8,2.7,1.2,4.1c1.1-1.2,2.2-2.4,3-3.6c0.4-0.7,0.8-1.5,0.8-2.3
	C255.4,286.1,255.3,285,255.2,284z M305.3,241.1c4.8-1.7,10-2.5,15.4-2.5v-29L305.3,241.1z M287.9,224.9c0.3-0.1,0.6-0.1,1-0.3
	c0.3,0.1,0.6,0.1,0.8,0.1c0.6-0.3,1.1-0.6,1.7-1c1,0.1,2.1,0.1,3.1,0.1c0.8-0.3,1.5-0.6,2.3-1c1.3-1,2.7-2.1,4-3.1
	c2.1-1.8,3.6-3.5,4.4-5.3c0.4-1.1,0.2-1.2-0.5-0.6c-1.1,1-2.6,1.5-4.1,2.1c-2.7,0.6-5.3,1.3-7.9,2c-4.6,1-6.7,2.8-6.7,5.3
	c0.8-0.3,1.6-0.6,2.3-1l0.3-2.2c0.7-0.6,1.3-0.8,1.8-0.6c0,0.5,0.1,1,0.1,1.5c1.3-0.6,2.6-1.3,3.9-1.9c0.4,0.2,0.8,0.3,1.3,0.4
	c1-0.3,2.1-0.6,3.1-1c0.3,0.1,0.6,0.1,0.9,0.1v1.7c-1.5,0.4-3.1,0.8-5,0.9v0.4c0.4,0.1,1,0.2,1.5,0.3c0.1,0.1,0.1,0.2,0.3,0.3
	c-0.3,0.3-0.6,0.7-1,1c-0.8,0.2-1.7,0.3-2.7,0.2c-0.4-0.1-0.8-0.1-1.1-0.2c-0.3,0.1-0.6,0.1-0.9,0.1
	C289.7,223.8,288.8,224.4,287.9,224.9z M256.6,251.7l2.7-0.3c0.2-0.8,0.3-1.7,0.5-2.5c-0.4-0.8-0.8-1.7-1.2-2.5
	c0.2-0.6,0.3-1.3,0.5-1.8l1.3,1.5l0.7-2.9c-0.4-0.9-0.9-1.8-1.3-2.7c0.4-0.4,0.9-0.8,1.3-1.1c0.2,0.3,0.4,0.4,0.6,0.7
	c0.2-0.6,0.4-1.1,0.6-1.7c0.5-0.1,1-0.3,1.6-0.4c-0.1,0.8-0.1,1.5-0.3,2.2l1.6,1.3c-0.6,0.5-1.1,1-1.8,1.4c-0.1,0.5-0.3,1.1-0.5,1.6
	c0.2,0.5,0.3,1,0.5,1.6c-0.6,0.8-1.1,1.7-1.5,2.8c-0.1,0.8-0.3,1.6-0.4,2.4l3.6-0.5c0.4-1.4,0.8-2.8,0.7-4.1
	c-0.2-2.5,0.4-5.1,0.9-7.6c-0.4-2.4-0.8-4.8-0.6-7.1c0.1-0.9,0.1-1.7,0.2-2.5c-0.2-0.3-0.3-0.4-0.5-0.6c-0.1,0.8-0.1,1.7-0.1,2.5
	c-1.4,1.1-2.7,2.5-4.1,3.9c-1.1,1.1-2.2,2-2.3,3.4c0.1,1.3-0.2,2.7-0.8,4.1C257.5,245.3,256.8,248.2,256.6,251.7z M251.4,252.1
	c0.3-1.2,0.6-2.4,0.6-3.7c0.1-1.2-0.2-2.4-0.3-3.6c0.4-0.5,0.8-1,1.1-1.5c0.2,0.3,0.3,0.6,0.5,0.8c0.3-1.3,0.6-2.6,1-3.9
	c0.6-0.2,1-0.3,1.5-0.2c-0.1,0.4-0.3,0.8-0.4,1.2c0.1,0.1,0.1,0.3,0.1,0.4c0.2-0.1,0.4-0.3,0.6-0.3c0.1,0.5,0.3,1.1,0.4,1.6
	c2.5-5.8,1.5-9.1-1.5-11.2c0.8,1.5,1,2.9,0.6,4.5c-1.1,1.8-2.7,3.2-3.7,5.1c-1,2-1.3,4.2-1.8,6.4c-0.6,2.5-0.1,4.1,0.9,4.7
	C251,252.4,251.2,252.2,251.4,252.1z M274.5,249.2l3.9-0.5c0.5-0.3,1.1-0.7,1.6-1.3c0.8-1,1.7-1.6,3-1.8c-0.5-0.4-1.3-0.6-2.2-0.7
	c-2.2-0.1-3.9-0.1-3.8,1.2c0.8,0.1,1.5,0.1,2.2,0.1c-0.3,1-1,1.6-3,1.3C275.6,248,275,248.5,274.5,249.2z M269,249.9l2.3-0.3
	c0.7-0.3,1.3-0.8,1.7-1.3c1.7-1.9,2.7-3.6,3.5-5.2c1.1-1.3,1.6-2.3,2.2-3.5c-2.4,0.6-5.1,1.5-8.2,2.9c-0.8,0.6-1.8,1.2-2.9,1.5
	l-0.2,4.5c0.5-0.5,1.1-1.1,1.7-1.6c-0.1-0.6-0.2-1.2-0.2-1.8c0.6-0.5,1.1-0.8,1.7-0.9c0.1,0.2,0.1,0.5,0.1,0.7
	c0.8-0.8,1.6-1.5,2.4-2.2c0.4,0.3,0.8,0.6,1.2,0.8c-0.4,0.6-0.9,1.3-1.3,1.9c0.5,0,1,0,1.5,0c-0.6,1-1.4,1.8-3.4,1.8
	C270.4,248.2,269.7,249.1,269,249.9z M252.9,252.2l2-0.3c0.4-2.6,0.8-5.1,1-7.7c-0.4,0.3-1,0.4-1.4,1
	C254.2,247.6,253.3,249.8,252.9,252.2z M300.1,223.5c1.1-0.9,2.1-1.7,2.9-2.8c0.4-0.5,0.1-0.8-0.3-0.5c-1.1,1.1-2.2,2.3-3.6,3.2
	C299.5,223.5,299.8,223.5,300.1,223.5z M287.3,217.9c1.5-0.6,3-1.2,4.4-1.5c1.1-1,2.2-2,3.2-3c0.8-0.1,1.5-0.1,2.2,0
	c-0.3,0.7-0.8,1.3-1.3,1.8c1.1-0.3,2.2-0.5,3.3-0.8c0.3-1.6,0.5-3.1,1.2-4.8c-1.3,1-2.6,1.8-4.3,2.5c-2,0.6-4.2,1.1-5.7,2.5
	C289.3,215.8,288.2,216.7,287.3,217.9z M273.2,231.9c0.8-0.8,1.7-1.5,2.5-2.2c0.2-1.1,0.4-2.2,0.6-3.2c0.6-0.5,1.2-0.5,1.8-0.5
	c0.1,0.3,0.2,0.4,0.3,0.7l0.5-0.1c0.4-0.4,0.8-0.8,1.2-1.1c0.8,0,1.6,0,2.3-0.1c-0.6,0.6-1.2,1.3-1.8,2c0.1,0.1,0.1,0.1,0.3,0.1
	c0.5,0,1,0.1,1.6,0.1c-0.8,0.6-1.6,1.2-2.3,1.8c-1.3,0-2.5,0.5-3.6,2c0.3,0.7,0.6,1.4,1,2.1c1-0.1,1.8-0.6,2.5-1.5
	c1.3-1.3,3.6-2.2,4.2-2.9c1-1.1-0.4-5.3,0.3-8.1c-2.2,0.5-4.4,1.1-6.8,2.9C275,226.1,273.5,228.8,273.2,231.9z M271,228.2
	c0.3-0.3,0.6-0.5,0.8-0.8c-0.1-0.8-0.1-1.5,0-2.3c0.6-0.8,1.1-1.1,1.8-1.5c0-0.6,0.1-1.3,0.1-2c0.3-0.4,0.7-0.8,1.2-1.1
	c0.3,0.3,0.4,0.6,0.6,1c1.3-0.3,2.6-0.6,3.9-0.8c1-1.9,1.4-3.6,0.5-4.6c-1,1-2.1,1.9-3.4,2.6C272.4,220.8,271,224,271,228.2z
	 M274.2,226.6c0.8-1.2,1.7-2.4,2.8-3.4l-1.1-0.2C275.1,224.2,274.6,225.4,274.2,226.6z M282.7,236.4c3.3,0.5,5.5-0.9,7.4-2.7
	c1.1-1.1,2.3-1.6,3.6-2c-1.8-0.7-3.7-1.1-6.6,1.6C286,234.5,284.4,235.5,282.7,236.4z M284.7,231.4c-0.1-0.1-0.2-0.2-0.3-0.3
	c-0.6,0.4-1.1,0.9-1.8,1.2c-0.6,0.2-1.2,0.8-1.8,1.7c-0.3,0.3-0.8,0.5-1.2,0.8c2.3,0.6,4.1-0.8,6-2.4c-0.1-0.1-0.1-0.1-0.1-0.2
	c-0.3,0.1-0.6,0.2-0.9,0.3l-0.3-0.4C284.4,231.9,284.5,231.7,284.7,231.4z M286.4,227.1c-0.1,0.5,0,1,0.1,1.5
	c0.4-0.1,0.8-0.2,1.3-0.3c0.3,0.2,0.3,0.4,0.3,0.6c-0.5,0.8-1.1,1.6-1.7,2.2c0,0.2,0.1,0.4,0.1,0.6c2.3-1.6,4.5-3.1,5.7-4.5
	C290.2,227.1,288.4,227,286.4,227.1z M405.4,266.9c-2.2,2.3-4.4,4.4-6.9,6.5c0.1,1.8,0.6,3.6,1.1,5.4c1.2,4.3,1.7,7.5,0.4,9.4
	c-1.7,2.5-2.7,4.3-1.7,6.5c0.5-0.3,1-0.6,1.5-0.8c0-1.4,0-2.8,0-4.1c0.6-0.3,1.3-0.6,1.9-0.9c0.1,0.2,0.3,0.3,0.4,0.5l0.6-0.4
	c-0.4-1.3-0.8-2.6-1.3-3.9c0.4-0.2,1-0.3,1.4-0.4c0-0.3,0.1-0.6,0.1-0.8l-2-2.2c0.4-0.4,0.9-1,1.3-1.4c0.8,0.6,1.5,1.1,2.2,1.7
	c0.1,0.3,0.1,0.7,0.1,1.1c0.1,0.3,0.4,0.5,0.6,0.8c-0.1,1.1-0.3,2.2-0.4,3.3c0.4,0.6,0.9,1,1.3,1.6c0-1.3,0.1-2.6,0.2-3.9
	c-0.8-1.6-1.5-3.2-1.6-5c-0.1-2,0.3-4.1,0.7-6.8C405.6,271,405.6,268.9,405.4,266.9z M396.8,274.7l-10.7,10.2
	c-0.3,1.7,0.2,2.4,0.6,3.1c1.4,2.4,1.5,5-0.7,10.3c-1.5,3.7-0.4,7.1,1.5,9.7c0.3-2,0.6-4,1-6c-0.4-1-0.8-1.9-1.1-2.9
	c0.3-0.8,0.6-1.5,0.9-2.2c0.3,0.4,0.7,0.8,1.1,1.3c0.3-1.7,0.4-3.4,0.7-5.2c-0.4-0.7-0.7-1.5-1.1-2.2c0.3-0.4,0.6-0.8,1-1.3
	c0.3,0,0.5,0.1,0.8,0.1c0.2-0.7,0.4-1.5,0.6-2.2c-0.5-1.3-1-2.5-1.5-3.7l0.8-1.7c0.4,0.5,0.9,1.1,1.3,1.6c0.2-1.1,0.4-2.2,0.6-3.3
	h1.8c-0.2,1.5-0.3,3-0.4,4.6c0.6-0.4,1.3-0.8,1.9-1.3l0.8,1.7c-1.1,1-2.2,2-3.3,3c-0.2,1-0.3,2-0.4,3c0.6-0.3,1.1-0.6,1.7-0.9
	c0.3,0.6,0.5,1.1,0.7,1.7c-0.9,0.8-1.9,1.5-2.9,2.3c-0.2,1.7-0.4,3.4-0.6,5.1c0.6-0.3,1.2-0.6,1.8-0.9l0.8,1.7l-3.2,2.7
	c-0.2,1.5-0.3,3-0.4,4.4c2.2-4,6.3-7.9,5.5-12.8c-0.3-1.9-0.4-3.5,1-5.4c1.6-2.1,2.3-4.7,0.8-8C397,279.1,396.8,277,396.8,274.7z
	 M393.8,305.9c1.7-0.1,3.4-0.4,5.2-3.2c1.7-2.5,3.2-5.1,4.7-7.7c1-1.9,1.6-3.7,2.2-5.6c-1,0.5-1.8,1.3-2.7,2.1
	c0.3,0.4,0.6,0.8,0.6,1.3c-1.8,1.8-3.7,3.6-5.2,5.3C396.9,300.2,395.4,303,393.8,305.9z M407.8,284.9c0.2,2.7-0.3,5.3-0.8,7.9
	c0.7-0.6,1.4-1.3,2.2-1.5c0.1,1-0.1,2-0.3,2.9c-2.2,1.8-4.4,3.6-5.8,5.8c-1,1.7-2.1,3.2-3.1,4.8c1.7-0.8,3.2-2,4.7-4
	c1.1-1.5,2.2-2.9,3.4-4.3c0.8-1.9,2.1-1.6,1.9-6.9c0.1-3.4,2.5-4,4.8-5.5c1.7-1,1.7-2.8-1.1-1.8
	C411.8,282.9,409.7,283.7,407.8,284.9z M384.1,286.7l-3.4,3.2c0.2,0.5,0.3,1,0.7,1.5c1.7,2.4,1.9,4.5,1.5,6.9c-0.7,3.9,0.2,5.8,1,7
	c-0.1-2.2-0.5-4.6,0.3-6.7c1.6-4.4,2.6-7.4,1.4-9.1C385,288.7,384.7,287.7,384.1,286.7z M379.1,328.7c7.7,0.3,10-1.7,11.7-3.9
	c0.8-1.5,1.7-2.6,3-2.9c1.5-0.4,3-0.6,4.5-0.8c-1.7-0.5-3.2-1.3-5.9-1c-1,0.1-1.9,0.6-2.9,1c0.5,0.2,1,0.4,1.4,0.6
	c-0.3,0.5-0.6,1-0.9,1.6l-2,0.1C385.7,325.5,382.8,327.3,379.1,328.7z M372.6,324.6c1.7-1.2,3.4-2.5,5-3.7c0.2-1.6,0.4-3.2,0.6-4.8
	c0.7-0.2,1.4-0.3,2-0.2c0.1,1.1,0.1,2.2,0.2,3.4c1.7-1.1,3.4-2.3,5.1-3.5c0.5,0.4,1.1,0.8,1.6,1.2c-1.6,1.3-3.2,2.6-4.8,3.8l2.9,0.8
	c-0.8,0.6-1.5,1.2-2.2,1.8c-1.3-0.1-2.5-0.3-3.8-0.4c-1.5,1.1-3.2,2.3-4.7,3.4c1.4,0.1,2.9,0.1,4.4,0.3c2.2,0,4.2-1.5,6.2-3.1
	c1.1-2.1,2.6-3.7,4.7-4.6c1.4-0.6,2.8-1.1,4.2-1.6c0.7-0.6,1.5-1.3,2.2-1.8c1.7-1.5,3.9-1.3,6-1.5c1.7-0.1,1.8-0.9,0.2-1
	c-4.3-0.2-8.4,0-12.7,0.3c-3.2,0.2-6.7,1-11,2.1c-2.5,0.6-4.2,2.3-5.4,4.6C372.3,321.5,372.1,323,372.6,324.6z M370.5,314.8l0.7,4.2
	c1.4-1.5,2.4-3.7,3.2-6.4c-0.4-0.6-1-1.2-1.5-1.8l1-1.7c0.4,0.3,0.9,0.7,1.3,1l1.3-2c0.7-0.2,1.3-0.1,1.8,0.1
	c-0.1,0.3-0.1,0.5-0.2,0.7c0.4,0,0.8,0,1.3,0c0,0.6,0,1.3,0,2c-0.7,0.4-1.5,0.7-2.2,1.1c-0.1,0.6-0.3,1.3-0.4,1.8
	c1-0.2,2.1-0.3,3.1-0.6c0.8-1.8,1-3.6,0.3-5.9c-0.8-2.6-0.4-5.8-0.4-9c-1,1.2-1.8,2.7-2.8,5c-1.5,3.4-4.2,6.2-5.5,8.6
	C370.8,312.7,370.6,313.7,370.5,314.8z M373.9,330.6c2,1,4.1,2,6.5,2.9c1.4,0.2,2.5,0.4,3.4,0.8c7.4,3.4,11.2,2,14.5,0.1
	c-1.1-0.5-2.2-1.1-3.7-1.4c-2.2-0.4-3.7-2.4-5.8-3.9c-0.8,0.1-1.5,0.4-2,0.8c0.8,0.3,1.5,0.6,2.2,0.8c0.1,0.2,0.2,0.3,0.3,0.5
	c-0.3,0.1-0.4,0.3-0.8,0.3c-0.1,0.8,0.1,1.5,0.3,2.2c-0.6,0.3-1.1,0.6-1.7,0.9c-0.6-0.6-0.9-1.5-1.3-2.4c-1.8-0.6-3.7-1.2-5.7-1.6
	C378,330.4,375.8,330.4,373.9,330.6z M373.4,332.6l0.2,1.1c0.1,0,0.1,0.1,0.1,0.1c0.5,0.6,2.5,2,3.7,3c-0.6,0.6-1.1,1.1-1.5,1.7
	c-0.6-0.4-1.2-0.9-1.8-1.3l0.6,3.3c3.7,0.2,7.3-0.2,10.6-1.6c-3.3-2.3-9.5-5.7-11.3-6.1C373.8,332.6,373.6,332.6,373.4,332.6z
	 M368.5,370.3c-1.5-0.8-3-1.7-4.6-2.5c-1.7,0.5-3.4,1-5.1,1.3c0.3,0.2,0.6,0.4,1,0.6c-0.3,0.4-0.6,0.8-0.9,1.2
	c-0.4,0-0.9,0.1-1.3,0.2c0,0.9-0.1,1.8-0.1,2.7c-0.6,0-1.1,0-1.8-0.3c0-0.6,0-1.3,0-1.9c-1.2-0.2-2.3-0.4-3.5-0.7
	c-1.5,0.3-3,0.5-4.5,0.8c1.1,1.1,2.6,1.9,4.3,2.7c1,0.4,2,0.5,3.1,0.3c1.3-0.2,2.7-0.4,4.1-0.6c1.4-2.3,3.3-3.4,5.5-3.7
	C365.9,370.3,367.3,370.3,368.5,370.3z M368.8,360.1l-1.3-0.7c-1.7,0.7-3.2,1.4-5,2.1c0.8,0.3,1.4,0.6,2.1,0.9
	c-0.6,0.4-1.2,0.6-2,0.9c-1.1-0.3-2.1-0.4-3.2-0.6c-0.6,0.3-1.1,0.6-1.8,0.8c1,0.4,2,0.8,2.9,1.2c-0.3,0.4-1,0.8-2,1
	c-1.3-0.4-2.7-0.8-4-1.3c-1,0.3-1.9,0.6-2.8,0.8l3.8,1.7c-0.9,0.4-1.7,0.7-2.6,1c-1.4-0.4-2.8-0.8-4.1-1.2c-1.1,0.4-2.2,0.8-3.3,1.3
	c0,0.5,0,1,0,1.6c0.5,0.1,1,0.3,1.5,0.3c1.2,0.1,2.4,0,3.4-0.4c1.8-0.6,3.4-1.3,5.1-1.7c1.2-0.1,2.5-0.1,3.8-0.6
	c1.3-0.4,2.5-0.8,3.7-1c1.1-0.7,2.2-1.3,3.2-2.2c1.4-1.2,2.9-2,4.4-2.8C370,360.8,369.4,360.4,368.8,360.1z M346.5,360.1
	c1.2-2.1,2.6-3.8,4.1-5.4l1.4,0.8c-0.4,1-1,1.9-1.7,2.8c3-0.9,5.7-2.1,8-3.6c-2.5-1.2-5-2.4-7.6-3.6c-1.5,1.3-2.9,2.6-4.2,4.1
	c-1.7,2-2.9,4.1-3.7,6.2C344,361,345.3,360.6,346.5,360.1z M345.6,362.4v3.5c0.6-0.3,1.1-0.5,1.7-0.8c0.3-0.8,0.5-1.7,0.8-2.5
	c0.6-0.2,1.3-0.3,1.9-0.5c-0.1,0.6-0.2,1.2-0.3,1.8c1.1-0.4,2.2-0.9,3.4-1.3c0.2-1,0.4-2.1,0.6-3.1c0.7-0.3,1.4-0.5,2-0.4
	c-0.1,0.8-0.1,1.7-0.2,2.5c0.8-0.3,1.7-0.6,2.5-0.8l0.4-2.1c0.7-0.4,1.5-0.7,2.2-0.8c-0.1,0.6-0.1,1.3-0.1,2
	c1.4-0.5,2.9-1.1,4.3-1.6c-0.7-0.4-1.4-0.8-2.1-1.2l-2.7-1.3C355.6,358,350.5,360.2,345.6,362.4z M290.8,350.7
	c-1.1,0.6-2.2,1.3-3.2,1.9c0,4.5,2.2,6,5,6.5c-0.4-0.6-1-1.1-1.8-1.7c0-0.4,0-0.8,0-1.2c0.6,0.2,1.1,0.4,1.7,0.6
	c-0.5-1.1-1-2.3-1.1-3.3c0.6,0.1,1.1,0.3,1.6,0.6c1,2.4,2.1,4.6,3.7,6.2c0.8,0.3,1.7,0.6,2.4,1c-0.5-1.3-1-2.7-2.1-4.2
	C295.4,354.6,293.1,352.6,290.8,350.7z M271.1,364.4c2.1,1.2,4.7,2.2,7.9,3.6c2.5,1,4.8,2.2,7.4,2.7c3.1,0.6,5.3,0.4,7-0.2
	c1-0.6,1.9-1.3,2.9-2v-2c-2-0.3-3.9-0.4-5.8-0.7c-0.9,0.6-1.8,1.2-2.7,1.8c-0.6-0.1-1-0.4-1.3-0.9c0.5-0.4,1-0.9,1.5-1.4
	c-1.5-0.1-3-0.1-4.4-0.1c-1,0.3-2.1,0.5-3.2,0.8c-0.4-0.3-0.9-0.6-1.3-0.8l1.7-1c-1.1-0.4-2.2-1-3.3-1.4c0.4-0.3,0.9-0.5,1.3-0.7
	c1.5,0.5,3,1.1,4.4,1.7c1.8,0,3.7,0.1,5.5,0.1c-0.4-0.4-0.8-1-1.3-1.5c0.5-0.1,1-0.1,1.5-0.2l3.4,2.5c1.3,0.1,2.7,0.3,4.1,0.3V362
	c-2.5-1.1-5-2.5-8.5-2.7c-3-0.1-6,0.3-9.1,0.8c-1.7,0.3-3.4,0.5-4.5,1.8C273.6,363,272.4,363.7,271.1,364.4z M290,373
	c-2,0-4.1,0-6.2,0c-0.2,0.4-0.3,0.7-0.5,1.1c-0.4-0.1-0.9-0.3-1.3-0.5l0.4-0.4c-0.8,0-1.5,0-2.2-0.1c-0.3-0.2-0.4-0.6-0.6-0.9
	c0.8-0.2,1.5-0.4,2.3-0.6c-0.9-0.4-1.8-0.7-2.7-1.1c-0.6,0.6-1.4,1.3-2.3,2.1c2.6,0.3,3.5,1.1,5.5,1.6
	C286.2,375.3,288.8,374,290,373z M261.8,330.6c-1.6-0.3-3.2-0.3-4.9-0.3c-0.1-0.6-0.3-1.1-0.4-1.7c1-0.1,1.9-0.1,2.9-0.3
	c-0.9-1-1.8-2-2.8-3c-1.5,0-3,0-4.5,0c-0.1-0.5-0.1-1-0.3-1.5c1-0.1,1.9-0.3,2.9-0.4c-0.9-1-1.7-2-2.5-3.1l1.3-0.9
	c0.6,0.4,1.2,0.8,1.8,1.3c0.1-0.6,0.1-1.3,0.2-2c0.5,0.1,1,0.3,1.5,0.4c0.1,1.1,0.1,2.3,0.2,3.4c0.6,0.6,1.2,1.2,1.8,1.8
	c0.3-0.8,0.4-1.5,0.6-2.3c0.4,0.3,1,0.4,1.5,0.7c-0.1,1.3-0.1,2.4-0.2,3.7c0.7,0.7,1.4,1.4,2.1,2.2c0.3-1.5,1.1-2.7,2.8-3.2
	c-0.2-0.6-0.4-1.1-0.5-1.7c-1.8-0.8-3.7-1.3-5-2.8c-1.2-1.5-2.3-3-4.3-3.7c-1,0.3-2.2,0-3.6-0.9c-1.8,0.7-3.5,0.1-5-1.5
	c-0.3,2.1,1,4.1,2,6.4c1,2.2,1.7,4.5,3.7,5.8c1.7,1,2.4,2.3,3.1,3.7c0.7,1.2,1.8,1.8,2.9,2.2C259.5,331.9,260.5,331.2,261.8,330.6z
	 M252.8,328.8l-0.4,1.1l1.1,1.3l0.8-0.7L252.8,328.8z M256.5,336.2c-1.1-1-2.3-1.9-3.4-2.9l-1.8-0.1c-0.3-0.4-0.6-0.8-1-1.2l0.6-0.4
	c-0.1-0.2-0.3-0.4-0.4-0.5c-0.8-0.1-1.5-0.1-2.2-0.3c-0.3-0.4-0.6-0.9-1-1.3l0.8-0.2c-0.1-0.3-0.3-0.4-0.4-0.6
	c-0.7-0.1-1.5-0.1-2.2-0.1c-0.3-0.5-0.6-1-0.9-1.5c0.3-0.1,0.6-0.2,0.9-0.3c-0.5-0.4-1-0.9-1.5-1.3l1.2-1.2c1,0.7,2,1.4,2.9,2.1
	c0.4-0.6,0.9-1,1.4-1.3c-0.3-1-1-1.9-3.4-2.5c-2.1-0.6-3.7-1.9-6-2.4c0.8,2.1,1.7,4.2,2.5,6.3c2.4,2.7,4,5.5,6.2,7.1
	C251.2,335.6,254,336.2,256.5,336.2z M250.8,328.8l0.8-1l-1.4-1.2l-0.7,1L250.8,328.8z M266.6,322.5c0.2-1.4,0.3-2.8,0.4-4.2
	l-0.7-2.8c0-0.8-0.1-1.5-0.1-2.3c0.3-0.3,0.5-0.5,0.8-0.8c0.2,0,0.4,0,0.7,0c0.1-1.1,0.3-2.2,0.4-3.2c0.6,0.6,0.9,1.3,1.1,2.1
	c-0.1,0.5-0.1,1-0.1,1.5c0.1,0.1,0.1,0.3,0.1,0.4c0.3-0.3,0.5-0.5,0.8-0.8c0.4,0.5,0.6,0.4,0.6-0.3c-0.6-2.4-1-4.8-0.8-7.2
	c-1.1,0.3-2.1,1.1-2.7,3.1c-0.3,1.1-0.6,2.3-1,3.4c-0.4,1.2-0.8,2.3-0.3,5.2c0.1,1.9,0.1,3.8-0.3,5.7
	C266,322.3,266.3,322.5,266.6,322.5z M258.3,316.5c0.8,0.4,1.3,1,1.8,1.7c0.1-0.1,0.2-0.3,0.3-0.5c-0.5-0.9-1.1-1.7-2-2.2
	C258.4,315.9,258.3,316.2,258.3,316.5z M262.3,316.2c0.1,1.3,0.1,2.7,0,4c0.6,0.3,1.1,0.6,1.7,1c0.4-1.7,0.5-3.6,0.3-5.7
	C263.6,315.7,262.9,315.9,262.3,316.2z M262.6,340.9c-2.4-0.4-4.8-0.8-7.5-1.2c-0.6,0.3-1.1,0.6-1.7,0.8c-0.3-0.2-0.6-0.4-0.8-0.6
	c0.2-0.1,0.4-0.3,0.5-0.4c-0.1-0.1-0.3-0.3-0.4-0.4c-0.3,0-0.6,0-1-0.1c-0.2-0.4-0.4-0.8-0.7-1.1c0.4-0.1,0.8-0.1,1.2-0.1
	c0.6,0.1,1.1,0.1,1.7,0.2c0-0.1,0-0.2,0-0.3c-1.7-0.5-3.4-1-5-2c-0.6-0.3-1.4-0.3-2.3,0c1,1,1.7,2.2,2.4,3.3c1.1,1.7,2.6,2,4.3,2
	C256.6,341,259.7,341,262.6,340.9z M256.3,338.3c1.9,0.4,3.8,0.9,5.7,1.1c0-0.2-0.1-0.4-0.1-0.6
	C260.1,338.8,258.2,338.5,256.3,338.3z M244.8,283c-0.1-2.7-0.3-5.3-1.4-8.3c-1-2.7-2.3-4.4-4.1-5.7c-0.6,2.9-0.6,5.7,0.1,8.4
	c0.4,1.5,1.1,2.8,2.1,3.7c-0.2-1.4-0.4-2.9-0.7-4.3c-0.4-0.6-0.9-1.2-1.4-1.8c0.2-0.4,0.3-1,0.4-1.4c0.8,0.5,1.7,1,2.5,1.5l0.4,2
	c0.2-0.2,0.4-0.3,0.6-0.5l0.7,1.8c-0.3,0.3-0.6,0.7-0.9,1.1c0.2,1,0.3,1.9,0.5,2.9C244,282.6,244.4,282.8,244.8,283z M230.2,282
	c0.8,1.6,1.5,3.1,2.6,4.2c0.1,2.7,0.1,5.3,0.7,7.7c0.6,2.7,1.5,4.8,2.7,6.5c1.7,2.5,3.6,4.4,5.8,5.5c0.4-0.2,0.7-0.4,1-0.7
	c-1.5-2.1-2.9-4.2-4.4-6.4c-0.9,0.1-1.8,0.2-2.8-0.1c0-0.4,0.1-0.9,0.2-1.3c0.4-0.1,0.8-0.2,1.3-0.3c-0.2-0.4-0.3-0.8-0.5-1.1h-1.8
	c-0.1-0.4-0.1-0.9-0.2-1.3c0.3-0.2,0.4-0.3,0.6-0.4c-0.2-0.3-0.4-0.6-0.6-1c-0.1-1.7-0.1-3.3-0.3-5c0.5-0.1,1,0,1.5,0.3
	c-0.1,2.8,0.3,5,1.7,5.7c-0.4-2.1-1-4.2-1.4-6.3c-0.2-1.1-0.7-2.2-1.5-3.2C233.7,283.8,232.3,282.8,230.2,282z M259.4,288.1
	l-0.1-0.1c-1,0.1-2.3,0.1-3.2,2.1c-0.9,1.9-2.7,3.2-4,5.5c0,1,0,2.1-0.1,3.1c0.6,0.4,1,1,1.2,1.5l0.8-1.1c-0.5-0.9-1-1.7-1.5-2.5
	c0.4-0.3,0.9-0.5,1.3-0.7c0.4,0.4,0.8,0.7,1.1,1.1c0.8-1.5,1.5-3,2.2-4.5c0.4,0.4,0.9,0.9,1.4,1.3c-1,1.8-2,3.7-2.7,5.7
	c0.8,0,1.7-0.2,2.5-0.3c0.1,0.4,0.1,0.8,0.2,1.3c-1.3,0.5-2.5,1-3.8,1.4c-0.3,0.5-0.6,1-0.9,1.5c0.4,0.3,0.7,0.6,1.1,0.9
	c1-0.4,2.1-0.9,3.1-1.3c0.8-2.2,1.5-4.4,1.7-7.1C259.9,293.2,259.9,290.6,259.4,288.1z M269.6,322.5l1.4-7.9
	c-0.1-0.2-0.1-0.4-0.1-0.5c-1.2,2.2-2.8,4.3-2.6,6.3l1.1-0.2c-0.1,0.4-0.1,1-0.1,1.5l-1.4,1c0,0.7,0,1.4,0.1,2.1
	C269,324.2,269.3,323.3,269.6,322.5z"/>
<path class="st3" d="M241,353.6v17.2c9.7,8.8,21.3,15.9,33.9,21.3c15.2,6.4,30.4,7.9,45.2,8.3c14.5,0.4,29.2-2.4,44-8.1
	c13.8-5.4,25.3-12.8,35.1-21.5v-17.2c-11.7,9.7-23.5,19.6-39.2,25.8c-12.8,5.1-26.3,7-39.9,6.9c-14.5-0.1-28.5-2-41.3-7.4
	C264.1,372.6,252.2,363.4,241,353.6 M326.5,364.6c4.3,0.6,6.8-2.2,5.8-5.6c-1-3.7,2.7-5,5.2-3.7l4.2,2.2c1.1-2,2.6-4.1,5.1-5.9
	c-2.7-1.5-5.3-3.4-8.2-4.5c-6.2-2.5-8.6,0.8-8.8,4.8c-0.2,2.7-1.7,3.9-3.4,4.6V364.6z M444.3,354.5l-13.8,7.9l0.5-11.7
	c-9.3,13.5-20.1,24.9-32.5,34c-16.6,12.1-35.7,19.4-56.8,23l0.8,13.8c25.2-4.1,46.9-12.8,64.8-26.3
	C423,383.2,435.6,369.9,444.3,354.5z M314.7,364.6v-8.1c-1.7-0.8-3.2-1.9-3.4-4.6c-0.3-4-2.7-7.2-8.8-4.8c-2.9,1.1-5.5,3-8.2,4.5
	c2.5,1.8,4,3.9,5.1,5.9l4.2-2.2c2.5-1.3,6.2,0,5.2,3.7C307.9,362.5,310.4,365.2,314.7,364.6z M195.8,354.5
	c8.7,15.4,21.4,28.8,37.2,40.6c17.9,13.5,39.6,22.2,64.8,26.3l0.8-13.8c-21.1-3.6-40.2-10.9-56.8-23c-12.4-9.1-23.2-20.5-32.6-34
	l0.6,11.7L195.8,354.5z M251.6,360.1c-1.2-4.7-3.5-8.8-6.7-12.3c-2.5-2.7-6,1.5-2.2,4.4C245.8,354.5,248.6,357.4,251.6,360.1z
	 M388.6,360.1c3-2.7,5.7-5.6,9-7.9c3.7-2.9,0.3-7.1-2.2-4.4C392.1,351.3,389.8,355.4,388.6,360.1z M365.7,393.9
	c-7,2.5-14,4.6-21.1,6l-2.9,5.8c7.1-1.3,14-2.8,20.4-4.9L365.7,393.9z M274.5,393.9l3.7,6.9c6.3,2.1,13.2,3.6,20.3,4.9l-2.9-5.8
	C288.5,398.5,281.4,396.4,274.5,393.9z M309.4,370.5l-9-3.8v7.6L309.4,370.5z M332.4,370.5l9,3.8v-7.6L332.4,370.5z M320.7,317.4
	c17,0,30.9-13.9,30.9-30.9c0-17-13.8-30.9-30.9-30.9c-17,0-30.9,13.8-30.9,30.9C289.8,303.5,303.7,317.4,320.7,317.4z M320.7,321.4
	c-19.2,0-34.9-15.7-34.9-34.9c0-19.2,15.7-34.9,34.9-34.9c19.2,0,34.9,15.7,34.9,34.9C355.6,305.7,339.9,321.4,320.7,321.4z
	 M320.7,330.6c24.3,0,44.1-19.8,44.1-44.1c0-24.2-19.8-44.1-44.1-44.1c-24.3,0-44.1,19.8-44.1,44.1
	C276.6,310.8,296.4,330.6,320.7,330.6z"/>
<path class="st4" d="M319.2,336.9l-2.7,1.1v26.7h2.7V336.9 M321.7,336.9v27.8h2.7V338L321.7,336.9z"/>
<path class="st4" d="M341.3,281.6l-2,3l-3.5,0.8l2.3,2.4l-0.5,3.8l3.5-1.6l3.3,1.6l-0.4-3.5l2.6-2.7l-3.6-0.8L341.3,281.6
	 M316.3,304.1l-1.8,3.3l-3.7,0.8l2.5,2.6l-0.5,3.8l3.5-1.5l3.7,1.7l-0.6-3.6l2.6-2.9l-3.6-0.7L316.3,304.1z M323.3,259l-1.8,3
	l-3.4,0.6l2.3,2.5l-0.4,3.7l3.3-1.5l3.5,1.6l-0.5-3.6l2.5-2.5l-3.6-0.7L323.3,259z M313.7,286.7l-1.3,1.4l-1.8,0.2l1,1.7l-0.4,1.9
	l1.8-0.5l2,1.1v-2.1l1.3-1.1l-1.7-0.6L313.7,286.7z M301,273.5l-1.3,3.2l-3.6,1.1l2.6,2.4v3.9l3.1-2l3.7,1.1l-0.9-3.6l2.2-2.9
	l-3.5-0.3C303.3,276.5,301,273.4,301,273.5z M353.5,314.5l-0.8-2l1.6-1.7l-2.2,0.3l-1-1.9l-0.6,2.2l-2.2,0.5l1.9,1.1l-0.4,2.2
	l1.8-1.5L353.5,314.5z M358.7,306.6l-1.3-1.8l1.1-2l-2.1,0.8l-1.5-1.7v2.3l-2.1,1l2.1,0.6l0.2,2.3l1.3-1.9L358.7,306.6z
	 M362.5,297.5l-1.7-1.3l0.4-2.3l-1.8,1.4l-1.8-1.1l0.6,2.2l-1.7,1.5h2.2l0.8,2.1l0.7-2.2L362.5,297.5z M364,287.4l-2.2-0.3l-0.7-2.2
	l-0.9,2.1l-2.2-0.1l1.7,1.7l-0.7,2.2l1.9-1.1l1.8,1.4l-0.4-2.3L364,287.4z M363.6,279.2l-2.2-0.2l-0.8-2.2l-0.8,2.2l-2.2,0.1
	l1.8,1.5l-0.6,2.2l1.8-1.1l1.8,1.3l-0.6-2.3L363.6,279.2z M334.2,321.6l1.5,1.7l-0.9,2.1l2-1l1.7,1.5l-0.2-2.3l1.9-1.2l-2.2-0.4
	l-0.4-2.2l-1.1,2L334.2,321.6z M342,317.4l1.7,1.5l-0.7,2.2l1.9-1.3l1.8,1.2l-0.5-2.2l1.8-1.5l-2.2-0.1l-0.7-2.2l-0.9,2.2L342,317.4
	z M325.5,323.4l1.1,1.9l-1.3,1.9l2.2-0.6l1.3,1.8l0.3-2.3l2.1-0.8l-2-0.8v-2.2l-1.5,1.8L325.5,323.4z M316.8,323.2l0.4,2.2l-1.9,1.3
	l2.3,0.2l0.6,2.1l1-2l2.3-0.1l-1.6-1.4l0.8-2.2l-2.1,1.1L316.8,323.2z M307.9,321.1l-0.1,2.2l-2.2,0.9l2.2,0.7l0.1,2.2l1.5-1.7
	l2.2,0.4l-1.2-1.8l1.3-1.8l-2.3,0.6L307.9,321.1z M300.2,316.9l-0.6,2.1l-2.3,0.4l1.9,1.1l-0.3,2.2l1.8-1.4l2.1,0.9l-0.8-1.9
	l1.7-1.6l-2.3,0.1L300.2,316.9z M293.3,311.2l-1.1,1.9l-2.3-0.3l1.6,1.6l-0.9,2l2.1-0.9l1.8,1.5l-0.3-2.2l2-1.1l-2.3-0.5
	L293.3,311.2z M288.1,303.9l-1.5,1.7l-2.2-0.8l1.2,2l-1.3,1.7l2.3-0.4l1.4,1.8l0.2-2.2l2.2-0.6l-2.2-0.9L288.1,303.9z M281.4,295.1
	l0.4,2.2l-1.9,1.3l2.3,0.2l0.6,2.1l1-2.1l2.3-0.1l-1.7-1.4l0.8-2.2l-2,1.1L281.4,295.1z M281.1,286.4l-0.5,2.1l-2.3,0.4l2,1.1
	l-0.3,2.2l1.8-1.4l2.1,0.9l-0.9-2l1.6-1.7l-2.3,0.3L281.1,286.4z M282.1,277.5l-0.8,2l-2.3,0.1l1.8,1.3l-0.6,2.1l2-1.2l2,1.2
	l-0.6-2.1l1.8-1.3l-2.3-0.1L282.1,277.5z M361.1,270.6l-2.2-0.1l-1-2.2l-0.6,2.2l-2.2,0.2l1.8,1.4l-0.4,2.3l1.8-1.3l1.9,1.1
	l-0.8-2.2L361.1,270.6z M356.7,262.6l-2.2,0.4l-1.4-1.8l-0.1,2.2l-2,0.7l2.1,1l0.1,2.3l1.4-1.7l2.1,0.7l-1.2-2L356.7,262.6z
	 M350.2,255.5l-2,1l-1.8-1.5l0.4,2.2l-1.8,1.1l2.2,0.4l0.7,2.2l1-1.9l2.2,0.2l-1.7-1.7L350.2,255.5z M342.1,249.7l-1.7,1.3l-2.1-1
	l0.9,2l-1.5,1.6l2.2-0.1l1.2,2l0.4-2.2l2.2-0.3l-1.9-1.2L342.1,249.7z M331.9,245.9l-1.4,1.7l-2.3-0.6l1.4,1.8l-1.2,1.8l2.2-0.6
	l1.5,1.7l0.1-2.2l2.1-0.8l-2.2-0.8L331.9,245.9z M281.8,270.5l1.5,1.6l-0.8,2.2l2-1.1l1.7,1.4l-0.3-2.3l1.9-1.3l-2.2-0.3l-0.5-2.2
	l-1.1,2.1L281.8,270.5z M286.1,262.6l1.2,1.8l-1.2,2l2.2-0.7l1.4,1.7l0.1-2.3l2.1-1l-2.1-0.7l-0.1-2.2l-1.4,1.8L286.1,262.6z
	 M293.1,255.3l0.7,2.1l-1.7,1.7l2.2-0.2l1,2l0.7-2.2l2.2-0.4l-1.8-1.1l0.4-2.2l-1.8,1.5L293.1,255.3z M301.1,249.7l0.3,2.2l-2,1.2
	l2.2,0.3l0.5,2.2l1.1-2l2.2,0.1L304,252l1-2l-2.1,1L301.1,249.7z M310.7,245.9l-0.2,2.2l-2.2,0.8l2.1,0.8l0.1,2.2l1.5-1.7l2.2,0.6
	l-1.2-1.8l1.3-1.8l-2.2,0.6L310.7,245.9z M321.3,244.5l-0.8,2l-2.3,0.1l1.8,1.4l-0.6,2.1l1.9-1.2l2,1.2l-0.6-2.1l1.8-1.4l-2.3-0.1
	L321.3,244.5z"/>
<polyline class="st4" points="321.1,368.3 320.4,370.2 318.4,370.3 319.9,371.6 319.4,373.6 321.1,372.6 322.9,373.6 322.4,371.6 
	323.9,370.3 321.9,370.2 321.1,368.3 "/>
<path class="st4" d="M191.7,465.5l9.3,4.6v-17l13.2,5.4v-6.7l-13.4-5.8V438c5.7,2.5,11.2,4.7,16.8,6.8v-7
	c-8.6-3.7-17.2-7.4-25.9-11.3V465.5 M226.1,440.5l0.3,39.5c9.5,3.2,18.8,5.8,28.1,7.9v-6.8l-18.7-5.2v-10c5,1.3,9.9,2.7,14.9,4v-6.7
	l-15.2-4v-8.6c6,1.5,11.9,2.9,17.9,4.4v-6.8C244.2,445.7,235.2,443.1,226.1,440.5z M451.3,455.9c-5.5,2.7-11,5.5-16.6,7.9l-0.3-31.3
	l-9.3,3.9v39.4c9.1-3.8,17.8-7.8,26.2-12.1V455.9z M332.2,495.2v-7.2h-18.6v-10h14.8V471h-14.8v-8.2H331v-7.6h-26.8v40H332.2z
	 M348.3,473.3l-0.2-13.8l8.6-1.1c3-0.4,5.6,0.2,6.9,2.2c1.2,1.8,1.4,4.1,0.6,6.9c-0.8,2.8-3.4,4.3-7.1,4.8L348.3,473.3z
	 M349.7,493.5l0.1-14.9l6.2-0.8c4.6-0.6,6.8,1.4,6.9,5.2v5c0.1,1.6,0.3,3,0.9,3.8l8.4-1.7c-0.3-0.7-0.4-1.4-0.4-2.1l-0.2-6.1
	c-0.1-4.6-1-7.6-4.1-7.7c-1.4-0.1-2.7-0.3-4.1-0.6c4.4-3.3,7-6.4,7.6-9c0.8-4.8,0.8-8.6-1.8-10.7c-2.6-2.1-6.9-1.8-12.2-1.2
	l-16.4,1.7v39.9L349.7,493.5z M406.3,472.6l-15.1,4.1l7.8-28.1L406.3,472.6z M390,486.9l1.5-5.9l14.4-3.9l1.7,5l9.1-3.1l-12.1-35.6
	l-10.2,2.7l-12.9,42.7L390,486.9z M270.6,484.8v-27.6l6,0.9c5.7,0.8,8.3,2.9,9.7,6c2,4.6,2.1,9.7,1.1,14.7c-1,5.4-4.4,7.9-11,6.9
	L270.6,484.8z M262.7,489.9l11.4,1.8c10,1.6,16.8,0.1,19.7-6.9c3.6-8.4,2.4-18.3-1.5-24.9c-2.6-4.4-7.2-6.5-14.1-7.7l-15.5-2.4
	V489.9z"/>
<path class="st4" d="M320.7,419c-1.7,0-3.1,1.5-3.1,3.2c0,1.7,1.4,3.1,3.1,3.1c1.7,0,3.1-1.4,3.1-3.1
	C323.8,420.4,322.4,419,320.7,419 M312.5,412.1c-1.3,0-2.4,1.1-2.4,2.5c0,1.4,1.1,2.5,2.4,2.5h16.4c1.3,0,2.4-1.1,2.4-2.5
	c0-1.4-1.1-2.5-2.4-2.5H312.5z"/>
<path class="st4" d="M325.3,135.5v29.1h9.3v-29.1l-4.6,1.7L325.3,135.5 M300.1,128.5l-9.2,0.4l-0.1,36.6l25.3-1l-0.1-7.4l-15.8,0.3
	V128.5z M325.3,125.4v2.3l4.6,1.8l4.6-1.8v-2.3H325.3z M388.3,170.6l9.2,2.7l3.2-36.1l-9.1-2.6L388.3,170.6z M369.9,155.1
	c-1.1,2.9-2.7,5.3-7,5.2c-2.8-0.1-5-1.2-6.9-3.2c-1.7-2-2.3-5.3-2.3-9.1c0.1-3.9,0.6-6.9,2-8.9c2.7-4,7.2-3.4,10.1-1.9
	c2.8,1.4,3.4,3.7,4,6.1l8.3,1.3c-0.4-3.7-0.6-7.5-6.7-12.2c-4.2-3.2-12.6-4.6-17.9-2.4c-2.5,1.1-4.8,3-7,6.8
	c-2.2,4.1-2.7,9-1.9,14.2c0.8,5.8,3.7,10.8,9.8,13.8c5.8,2.9,11.2,3.3,16.1,1.8c5.6-1.7,7-5.8,7.9-10L369.9,155.1z M425.8,149
	c2,8.8,3.9,17.6,5.6,26.4l-14.5-5.5L425.8,149z M430.8,147.4l-9.8-4l-14.4,31.9l8.3,3l2.2-4.4c4.7,1.6,9.1,3.4,13.4,5.3l1.1,5.5
	l8.3,3.7C437.2,174.7,434.1,161.1,430.8,147.4z M263.7,136.8c8.2-0.7,9.7,5.1,9.8,13.5c0.1,8.4-3.4,12.7-10.1,13.4
	c-6.7,0.7-9.6-6.1-9.6-13C253.8,144,256,137.5,263.7,136.8z M263.6,131.1c-9.5,1.5-18.3,9.6-17.9,23.7c0.3,11.3,6.7,16.3,17.6,14.6
	c12.1-1.9,18.5-9.5,18.2-21.6C281.1,135.2,274.7,129.4,263.6,131.1z M215.3,165.3l-0.6-13.1l7.1-2.5c4.3-1.5,7.4-0.1,8.2,3
	c1.1,3.9-0.8,8.1-6.7,10.1L215.3,165.3z M207.9,186.2l9.1-3.6l-0.3-11.7l7-2.5c6.7-2.4,11.2-5.6,12.8-11.4c1.2-4.4,1.5-9.5-2.3-13
	c-2.1-2-6-2.2-11.1-0.2l-16.6,6.4L207.9,186.2z"/>
<path class="st4" d="M341.3,213.9c-1.8,0.4-2.2,2.5,0.2,2.4c0.3,1.8,1.5,2.7,2.7,0.3c1.7,0.1,3-0.7,1.1-2.4c0.9-1.6-0.3-3.4-2-1.8
	C341.9,210.8,339.9,211.5,341.3,213.9 M343.1,215.9c-0.6,0-1.2-0.5-1.2-1.2s0.6-1.2,1.2-1.2c0.7,0,1.3,0.5,1.3,1.2
	S343.8,215.9,343.1,215.9z M349.8,227.7c-0.7,0-1.2-0.5-1.2-1.2c0-0.7,0.5-1.2,1.2-1.2c0.7,0,1.2,0.5,1.2,1.2
	C351,227.2,350.5,227.7,349.8,227.7z M347.8,226.7c-1.3,1.3-0.4,3.2,1.7,1.8c0.9,1.6,2.7,1.5,2.3-1.1c1.7-0.6,2-2.3-0.4-2.5
	c0.2-1.8-1.7-2.9-2.4-0.6C347.1,223.7,345.5,225.3,347.8,226.7z M342.9,224.3c-0.7,0-1.2-0.6-1.2-1.3c0-0.6,0.5-1.2,1.2-1.2
	c0.7,0,1.3,0.6,1.3,1.2C344.1,223.7,343.6,224.3,342.9,224.3z M340.8,222.6c-1.7,0.8-1.4,2.9,1,2.2c0.4,1.8,2.2,2.2,2.5-0.3
	c1.8-0.1,2.6-1.7,0.3-2.5c0.8-1.7-0.7-3.2-2.1-1.3C341,219.5,339.1,220.5,340.8,222.6z M337.1,210.8c-0.6,0-1.2-0.6-1.2-1.3
	c0-0.6,0.6-1.2,1.2-1.2c0.7,0,1.3,0.6,1.3,1.2C338.4,210.2,337.8,210.8,337.1,210.8z M335.6,208.5c-1.9,0-2.7,2-0.3,2.4
	c-0.1,1.8,0.8,3,2.5,0.8c1.6,0.5,3-0.1,1.6-2.2c1.1-1.3,0.4-3.3-1.7-2.2C336.8,205.6,334.8,205.8,335.6,208.5z M339.9,203.3
	c-0.7,0-1.2-0.6-1.2-1.3c0-0.6,0.5-1.2,1.2-1.2c0.7,0,1.3,0.6,1.3,1.2C341.1,202.7,340.6,203.3,339.9,203.3z M339.3,200.3
	c-1.6-1-3.4,0.1-1.6,1.8c-1,1.3-0.8,2.8,1.7,2c1,1.3,2.5,1.6,2.4-0.9c1.7-0.4,2.2-2.4-0.2-2.6C341.8,198.6,340.1,197.7,339.3,200.3z
	 M348.8,205.4c-0.7,0-1.3-0.5-1.3-1.2s0.6-1.2,1.3-1.2c0.6,0,1.2,0.5,1.2,1.2S349.5,205.4,348.8,205.4z M347.4,202.6
	c-1.8-0.4-2.9,1.3-0.6,2.3c-0.9,1.6,0.2,3,2.1,1.3c1.5,1,3,0.4,1.8-1.7c1.7-0.8,1.5-2.9-0.8-2.3C349.4,200.4,347.2,200,347.4,202.6z
	 M355.3,213.3c-0.7,0-1.3-0.6-1.3-1.2c0-0.7,0.6-1.3,1.3-1.3c0.6,0,1.3,0.6,1.3,1.3C356.6,212.7,355.9,213.3,355.3,213.3z
	 M353.8,210.5c-1.8-0.4-2.9,1.4-0.6,2.4c-0.8,1.7,0.3,3.2,2.2,1.4c1.4,1,3,0.4,1.8-1.8c1.7-0.8,1.5-2.9-0.8-2.3
	C355.9,208.3,353.7,207.8,353.8,210.5z"/>
<path class="st5" d="M244.2,306.3c-0.9,0-1.6,0.8-1.6,1.7c0,0.9,0.7,1.7,1.6,1.7c1,0,1.7-0.8,1.7-1.7
	C245.9,307,245.2,306.3,244.2,306.3 M245,300.7c-1,0-1.7,0.8-1.7,1.7c0,1,0.7,1.7,1.7,1.7c0.9,0,1.7-0.7,1.7-1.7
	C246.7,301.5,245.9,300.7,245,300.7z M245.8,310.5c-0.9,0-1.7,0.8-1.7,1.7c0,0.9,0.8,1.7,1.7,1.7c0.9,0,1.6-0.8,1.6-1.7
	C247.4,311.3,246.7,310.5,245.8,310.5z M250.8,312.4c-0.9,0-1.7,0.8-1.7,1.7c0,0.9,0.8,1.7,1.7,1.7c1,0,1.7-0.8,1.7-1.7
	C252.4,313.1,251.7,312.4,250.8,312.4z M255.3,312.9c-0.9,0-1.7,0.7-1.7,1.7c0,0.9,0.8,1.7,1.7,1.7s1.7-0.8,1.7-1.7
	C256.9,313.6,256.2,312.9,255.3,312.9z M249.3,307.8c-0.9,0-1.7,0.8-1.7,1.7c0,0.9,0.8,1.7,1.7,1.7c1,0,1.7-0.8,1.7-1.7
	C251,308.5,250.2,307.8,249.3,307.8z M253.6,308.8c-1,0-1.7,0.8-1.7,1.7c0,0.9,0.8,1.7,1.7,1.7c0.9,0,1.7-0.8,1.7-1.7
	C255.3,309.6,254.5,308.8,253.6,308.8z M248.6,303.8c-1,0-1.7,0.8-1.7,1.7c0,1,0.8,1.7,1.7,1.7c0.9,0,1.7-0.7,1.7-1.7
	C250.3,304.6,249.5,303.8,248.6,303.8z M252.9,304.5c-0.9,0-1.7,0.7-1.7,1.7c0,0.9,0.8,1.7,1.7,1.7c0.9,0,1.7-0.8,1.7-1.7
	C254.6,305.2,253.8,304.5,252.9,304.5z M250.5,299.5c-0.9,0-1.7,0.7-1.7,1.7c0,0.9,0.8,1.7,1.7,1.7c1,0,1.7-0.8,1.7-1.7
	C252.1,300.2,251.4,299.5,250.5,299.5z M266.2,326.6c-1.1,0-2,1-2,2c0,1.1,0.9,2.1,2,2.1s2-1,2-2.1
	C268.3,327.6,267.4,326.6,266.2,326.6z M262.1,331.8c-1,0-1.8,0.8-1.8,1.8c0,1,0.8,1.8,1.8,1.8c1,0,1.8-0.8,1.8-1.8
	C263.9,332.6,263.1,331.8,262.1,331.8z M264.9,335.7c-1.1,0-2,0.9-2,2c0,1.1,0.9,2,2,2c1.1,0,2-0.9,2-2
	C266.9,336.6,266,335.7,264.9,335.7z M267.4,335.3l0.6-3.4v-0.4c-0.3-0.1-0.5-0.1-0.8-0.1c-1.1,0-2,0.9-2,2s0.9,2,2,2
	C267.2,335.3,267.3,335.3,267.4,335.3z M313.6,366.6v8.9h14.6v-8.9h-6.9l1.1,2.7l3.2,0.3l-2.5,2.2l0.8,3.2l-2.8-1.7l-2.8,1.7
	l0.8-3.2l-2.5-2.2l3.3-0.3l1.1-2.7H313.6z M269.3,228.8c-1,0-1.7,0.7-1.7,1.7c0,1,0.8,1.7,1.7,1.7c1,0,1.7-0.8,1.7-1.7
	C271,229.5,270.2,228.8,269.3,228.8z M271.2,233.1c-1.1,0-2,0.9-2,2c0,1.1,0.9,2,2,2c1,0,1.9-0.9,1.9-2
	C273.1,233.9,272.2,233.1,271.2,233.1z M275.2,231.9c-0.8,0-1.5,0.6-1.5,1.5s0.6,1.5,1.5,1.5c0.8,0,1.5-0.6,1.5-1.5
	S276,231.9,275.2,231.9z M275.3,235.8c-0.7,0-1.3,0.6-1.3,1.4c0,0.8,0.6,1.4,1.3,1.4c0.8,0,1.4-0.6,1.4-1.4
	C276.7,236.4,276.1,235.8,275.3,235.8z M273.3,293.8c-0.2-1.2-0.4-2.4-0.4-3.7l-30-29.1l41.3-5.6c0.8-1,1.6-1.8,2.4-2.7l-48.1,6.8
	L273.3,293.8z M355.3,253.3c0.8,0.9,1.6,1.8,2.3,2.7l41.5,6l-30.8,29.3c-0.1,1.3-0.3,2.5-0.5,3.7l35.7-34.4L355.3,253.3z
	 M311.9,333.6c-1.2-0.2-2.4-0.5-3.6-0.8l-36.2,18.8l7.7-40.1c-0.6-1-1.2-2-1.7-3l-8.8,46.8L311.9,333.6z M362.7,309.5
	c-0.6,1-1.1,2-1.8,2.9l7.6,39.1l-36-18.6c-1.2,0.3-2.4,0.6-3.6,0.8l42.3,21.5L362.7,309.5z M299.3,243.6c1.3-0.7,2.7-1.3,4.1-1.8
	l17.7-36.3l17.7,36.6c1.4,0.6,2.8,1.2,4.1,1.9L321,201.2L299.3,243.6z M217.7,161.9l4.7-1.5c2.2-0.8,4.6-2,5.2-4.5
	c0.2-1,0.1-2.1-0.3-3c-0.9-1.6-2.9-1.2-4.4-0.8l-5.6,2L217.7,161.9z M219.4,172.7l0.3,11.7l-14.1,5.6l-1.7-41.5l18.3-7
	c2.2-1,4.3-1.4,6.7-1.6c2.7-0.2,5.1,0.6,7.1,2.4c2.3,2.2,3.6,4.7,3.8,7.9c0.2,2.7,0,5-0.8,7.6c-1,3.7-3,6.6-6.2,8.9
	c-2.7,1.9-5.1,3.2-8.3,4.2L219.4,172.7z M427.1,166.8c-0.7-3.1-1.3-6.3-2-9.5l-4.8,11.1l7.7,2.9
	C427.7,169.9,427.4,168.3,427.1,166.8z M421.4,178.2c-1-0.3-2-0.7-3-1.1l-2.2,4.4l-13.1-4.8l16.5-36.7l13.4,5.5
	c2.9,11.9,5.5,23.9,8.1,35.9l2.3,11.3l-14.1-6.2l-1.1-5.6C426.1,180,423.7,179.1,421.4,178.2z M385.6,172.4l3.8-41.3l14.2,4.1
	l-3.7,41.4L385.6,172.4z M364.6,157.5c0.9-0.3,1.6-0.8,2-1.7c0.6-1.3,1.1-2.4,1.5-3.7l13,2.5c-0.4,2.5-0.7,4.1-1.6,6.6
	c-1.4,4.1-4.4,6.9-8.6,7.9c-3.4,1-6.4,1.2-9.8,0.6c-3-0.4-5.5-1.3-8.1-2.6c-3.4-1.6-5.8-3.7-7.9-6.8c-1.8-2.9-2.8-5.6-3.2-9
	c-1.1-7.4,0-14.8,5.7-20.6c2.9-3,6.5-4.5,10.7-4.6c3.6-0.1,6.7,0.4,10.1,1.6c3,1.1,5.5,2.8,7.6,5.2c2.2,2.2,3.5,4.6,4.1,7.6
	c0.4,2.4,0.6,4.4,0.7,6.8l-13.2-2.2c-0.3-1.6-0.6-3.3-1.5-4.7c-1-1.7-3.9-2.5-5.9-2.1c-2.4,0.5-3.3,3.3-3.6,5.4
	c-0.4,2.9-0.4,5.4,0.1,8.4c0.2,1.1,0.6,2,1.3,2.9C359.8,157.3,362.1,158,364.6,157.5z M322.7,122.8h14.4v6.7l-7.2,2.7l-7.2-2.7
	V122.8z M322.7,131.8l7.2,2.7l7.2-2.7v35.5h-14.4V131.8z M302.6,125.8v29l15.8-0.3l0.2,12.4l-30.5,1.3l0.2-41.8L302.6,125.8z
	 M260.8,140.2c-1,0.5-1.8,1.2-2.5,2.2c-0.8,1.1-1.2,2.2-1.5,3.6c-0.6,3-0.7,5.7-0.1,8.7c0.6,3.4,2.5,6.9,6.4,6.5
	c1.3-0.1,2.3-0.4,3.4-0.9c2.2-1,3.6-2.9,4-5.3c0.4-1.6,0.5-2.9,0.4-4.6c-0.1-2.9-0.1-6-1.4-8.7c-0.4-0.9-1-1.5-1.9-1.8
	C265.3,139.1,263,139.2,260.8,140.2z M263.2,128.6c3-0.6,5.7-0.5,8.7,0.2c3,0.7,5.3,2.1,7.4,4.4c2,2.3,3.2,4.6,3.8,7.6
	c0.6,2.4,0.9,4.4,1,6.9c0.1,3.3-0.2,6.2-1.2,9.3c-1.8,6.1-5.9,10.5-11.8,12.9c-2.5,1-4.7,1.7-7.4,2c-2.8,0.5-5.3,0.5-8.1,0
	c-5.7-1-10-4.9-11.4-10.5c-1.4-5.5-1.4-10.5,0.1-15.9C246.8,136.5,253.9,130.1,263.2,128.6z M196.4,143.4v59.1
	c20.5-10.7,41.7-18.7,62.7-24c36.9-9.4,88.3-9.3,125.2,0c21,5.3,42.2,13.3,62.7,24v-59.1c-19.2-9.1-40.5-15.8-62.7-20.3
	c-35.9-7.5-89.2-7.5-125.2,0C236.8,127.6,215.7,134.2,196.4,143.4z M206.5,404.7l-21.8-41.2l-7,42l-25.4,6.3l29.9,38.4v-43.6
	L206.5,404.7z M437.1,404.7l24.4,2v43.6l30-38.4l-25.4-6.3l-7.1-42L437.1,404.7z M208.1,420.4v-12.1l-21.8,1.6L208.1,420.4z
	 M435.6,420.4l21.8-10.5l-21.8-1.6V420.4z M478.6,183.6c-9.1-5.2-18.1-10.3-27.2-15.4V208l-25,6.2c14.2,9.3,27.9,19.2,42.1,28.6
	l-8-37.7L478.6,183.6z M221.5,210.5v-14.9l-22.1,9.8L221.5,210.5z M164.7,183.6l18.1,21.5l-8,37.7c14.2-9.3,27.9-19.2,42.1-28.6
	l-25-6.2v-39.8C182.8,173.3,173.8,178.4,164.7,183.6z M421.8,210.5l22.1-5l-22.1-9.8V210.5z M196.9,425.8
	c7.7,3.5,15.6,6.9,23.4,10.2v12.5c-1.7-0.6-3.4-1.3-5.1-1.9c-3.9-1.5-7.8-3.1-11.7-4.7v2.4l13.4,5.8v12.3l-13.3-5.5v17.3l-14.4-7.2
	v-44.6C191.7,423.5,194.3,424.7,196.9,425.8z M236.1,440.7c6.6,1.9,13.2,3.7,19.8,5.5v12.1c-6-1.5-11.9-2.9-17.8-4.4v3.3l15.1,4.1
	v12l-14.9-4v4.6l18.8,5.2v12c-2-0.4-3.9-0.8-5.8-1.3c-8.4-2-16.7-4.3-24.9-7.1l-2.6-0.9l-0.3-44.8L236.1,440.7z M334.8,497.7h-33.2
	v-45.1h32v12.8h-17.5v3h14.7v12.1h-14.7v4.9h18.5L334.8,497.7z M443.7,470.2c-5.5,2.6-11.1,5.1-16.7,7.5l-4.4,1.8v-45l14.5-5.9
	l0.2,31.2c5.6-2.5,11.1-5.4,16.6-8.1v13.4C450.4,466.9,447.1,468.6,443.7,470.2z M403.1,470.9l-3.9-13l-4.3,15.2L403.1,470.9z
	 M392.1,489.1l-14.4,3.1l14.6-48.2l13.9-3.7l13.8,40.3l-14,4.8l-1.8-5.1l-10.5,2.9L392.1,489.1z M350.9,470.4l6-0.7
	c1.8-0.3,4.3-0.8,4.9-2.7c0.5-1.7,0.7-3.8-0.4-5.2c-1-1-2.7-1-4-0.9l-6.5,0.9L350.9,470.4z M352.3,480.9l-0.1,15l-14.5,1.3v-45.1
	l18.8-1.9c5.7-0.6,14.2-1.5,16.6,5.5c1,2.9,0.8,6.7,0.1,9.6c-0.3,1.5-0.9,2.8-1.8,4c-0.7,1-1.4,1.8-2.2,2.7c2.1,0.7,3.6,2.4,4.1,4.5
	c0.6,1.8,0.8,3.5,0.8,5.5l0.2,6.1c0.1,0.4,0.1,0.8,0.3,1.3l1.1,2.9l-13.2,2.5l-0.9-1.5c-0.9-1.7-1.3-3.2-1.2-5.1l-0.1-5
	c0-0.8-0.2-2-0.8-2.4c-0.4-0.3-0.8-0.4-1.3-0.4C357.4,480.2,358.3,480.1,352.3,480.9z M273.2,482.5l3.5,0.6c2,0.3,4.3,0.4,6-0.8
	c1.2-0.9,1.7-2.2,2.1-3.6c0.5-2.7,0.8-5.3,0.5-8.1c-0.3-2-0.7-4.1-1.6-6c-0.5-1-1.1-1.7-2.1-2.3c-2.4-1.6-5.6-1.8-8.4-2.2V482.5z
	 M273.6,494.3l-13.5-2.2v-45.1l18.4,2.9c3.4,0.4,6.1,1.3,9.1,2.7c3,1.4,5.2,3.4,6.9,6.3c4.8,8.6,5.3,18,1.7,27.1
	c-1.8,4.6-5.6,7.7-10.5,8.6C281.4,495.1,277.8,495,273.6,494.3z M185.6,415v57.5c22,10.7,44.7,18.1,68.1,22.8
	c43.4,8.8,92.7,8.8,136,0c23.4-4.8,46.1-12.2,68.1-22.8V415c-21.6,11.2-44.5,19.4-68.1,25.3c-41.4,10.3-94.6,10.3-136,0
	C230,434.3,207.2,426.2,185.6,415z"/>
<path class="st6" d="M314.9,410.2h11.6l1.5-7.7h-14.6L314.9,410.2 M312.5,389.8l-0.5,9.1l4.4,0.3l0.1-1.8l-1.9-0.1l0.1-2l1.6,0.1
	l0.1-1.7l-1.6-0.1l0.1-1.8l1.7,0.1l0.1-1.8L312.5,389.8z M256.3,345.8c1-0.1,1.9-0.3,2.7-0.4l2.4-2.2c-0.8,0-1.6,0-2.4,0.1
	L256.3,345.8z M273.2,368.1c-0.4-0.1-0.8-0.3-1.1-0.5l-0.4,0.8L273.2,368.1z M284.8,377.3c-0.7,0-1.3-0.1-2,0
	c0.6,0.3,1.2,0.4,1.8,0.7L284.8,377.3z M290.6,375.8c-1.1,0.7-2.1,1.2-3,1.4c-0.3,0-0.4,0-0.6,0.1l-0.4,1.3c1,0.4,2,0.7,3,1
	L290.6,375.8z M296.2,381.3c0.8,0.2,1.6,0.3,2.4,0.5l0.1-0.1l0.4-2.7l-2.6,1.1v-0.3L296.2,381.3z M302,377.8l-0.6,0.3l-0.4,2.3
	l0.6-0.4L302,377.8z M296,372.2c-1,0.6-1.9,1.2-2.9,1.8l-1.5,6.1c0.9,0.3,1.7,0.4,2.5,0.7L296,372.2z M351,379.6
	c0.9-0.3,1.8-0.6,2.6-0.8l-0.5-1.7c-1.1-0.2-2.2-0.4-3.2-0.9L351,379.6z M346.2,380.9c1-0.2,1.9-0.4,2.9-0.8l-1.7-5.1
	c-0.6-0.4-1.2-0.8-1.7-1.3v5.4L346.2,380.9z M342.9,381.6c0.4-0.1,0.9-0.2,1.3-0.3l-0.8-2.2l-2.2-0.9l0.9,3L342.9,381.6z
	 M227.8,282.4c-0.4-1-0.8-2-1.1-2.9l-5.3-0.6l2.9,3.3L227.8,282.4z M362.4,374.1c-0.6,0.4-1.1,1-1.4,1.7c0.3-0.1,0.6-0.3,0.9-0.4
	L362.4,374.1z M355.6,378c0.8-0.3,1.5-0.6,2.2-0.8c-0.8,0.1-1.6,0.1-2.4,0.1L355.6,378z M367,366.1c-0.3,0.3-0.6,0.4-0.9,0.6
	c0.5,0.1,1.3,0.4,2.1,0.8L367,366.1z M230.5,287c-0.6-0.8-1.2-1.6-1.7-2.5l-2.9-0.1l2.3,2.6L230.5,287z M230.7,290
	c0-0.3-0.1-0.6-0.1-0.9h-0.7L230.7,290z M245,319.9c0.5,0.3,1,0.4,1.5,0.6c-0.1-0.3-0.3-0.6-0.4-1L245,319.9z M237.5,320.6
	c-0.3-0.6-0.6-1.3-0.9-1.9l-2.9,0.9l2.6,1.5L237.5,320.6z M239.1,324.2c-0.3-0.6-0.5-1.2-0.8-1.8l-0.4,0.2l-1,2.5L239.1,324.2z
	 M350.5,222c0.1,0,0.2,0,0.3,0.1c0.6,0.2,1.1,0.6,1.4,1.3l1.4-3.2c-0.7-0.4-1.3-0.8-2-1.1L350.5,222z M354.1,224.2l1.8,0.2l0.6-1.1
	c-0.4-0.6-0.8-1.3-1.2-1.8L354.1,224.2z M355.8,220.2c0.1,0.1,0.1,0.1,0.1,0.1c0-0.1,0.1-0.2,0.1-0.3L355.8,220.2z M374.7,215.3
	c0.1,0.3,0.3,0.4,0.4,0.6l0.6-0.8L374.7,215.3z M366,216.9c0.1,0.1,0.1,0.3,0.2,0.5c0.4,0.1,1.2,0.3,1.9,0.4l0.9-1.3
	c-0.1,0-0.1-0.1-0.2-0.1L366,216.9z M277.3,215.4c0.3-0.3,0.5-0.6,0.8-0.9l0.4-0.7l-0.3-0.7L277.3,215.4z M259.2,232.9
	c0.1,0.3,0.2,0.5,0.3,0.8c0.1-0.1,0.1-0.1,0.3-0.2L259.2,232.9z M253.3,235.8c0.1-0.1,0.1-0.2,0.2-0.3c0.1-0.4-0.1-1.1-0.2-1.6
	c0-0.1,0-0.1,0-0.2V235.8z M315.4,377.5l-1.5,6.5h14.5l-1-6.5H315.4z M370.8,402.5l-1.5,0.4c-0.3,0.9-1,1.7-2,2.2l0.5,1l0.2-0.1
	c0.6-0.2,1-0.3,1.1-0.3c0.2,0.1,0.3,0.1,0.4,0.3c0.1,0.1,0.3,0.4,0.6,1.1l2.1,4.4l2.4-0.8L370.8,402.5z M377.3,406.4l0.6,1
	c0.2,0.4,0.3,0.6,0.3,0.8c0,0.1-0.1,0.2-0.3,0.3c-0.2,0.1-0.3,0.1-0.4,0c-0.1-0.1-0.3-0.3-0.5-0.6l-0.5-1.1
	c-0.2-0.3-0.3-0.6-0.3-0.7c0-0.1,0.1-0.2,0.3-0.3c0.2-0.1,0.3-0.1,0.4,0C377,405.8,377.2,406,377.3,406.4z M375.5,402.9l0.3,0.6
	c0.2,0.3,0.2,0.5,0.2,0.6c0,0.1-0.1,0.3-0.2,0.3c-0.2,0.1-0.3,0.1-0.4,0c-0.1-0.1-0.3-0.2-0.4-0.4l-0.3-0.6
	c-0.1-0.3-0.2-0.4-0.2-0.6c0-0.1,0.1-0.3,0.3-0.3c0.1,0,0.3,0,0.4,0C375.3,402.5,375.4,402.7,375.5,402.9z M377.7,404.2
	c0.3-0.3,0.5-0.6,0.5-0.9c0.1-0.3-0.1-0.6-0.3-1.1c-0.3-0.6-0.8-1.1-1.4-1.3c-0.6-0.3-1.5-0.1-2.5,0.3c-0.9,0.3-1.5,0.8-1.8,1.3
	c-0.3,0.6-0.2,1.1,0.1,1.8c0.3,0.4,0.4,0.8,0.8,1c0.3,0.2,0.6,0.3,1,0.3c-0.4,0.4-0.5,0.8-0.4,1.2c0.1,0.4,0.3,0.8,0.6,1.3
	c0.3,0.8,0.7,1.3,1.1,1.5c0.3,0.3,0.8,0.4,1.3,0.4c0.5,0,1.1-0.1,1.8-0.4c0.7-0.3,1.2-0.6,1.5-1c0.4-0.4,0.5-0.7,0.5-1.1
	c0-0.4-0.2-0.9-0.5-1.5c-0.5-1-0.9-1.5-1.2-1.7C378.5,404.3,378.2,404.2,377.7,404.2z M225.3,372.8l-1-1c-1,0-2-0.3-3-1l-1,0.6
	l0.2,0.2c0.4,0.4,0.6,0.7,0.6,0.8c0,0.2,0,0.3-0.1,0.4c-0.1,0.1-0.5,0.4-1.1,0.8l-4.2,3l1.6,1.8L225.3,372.8z M229.4,377.1l-3.5-3.7
	l-3.9,2.9l1.6,1.7c0.3-0.2,0.4-0.3,0.4-0.3c0.1,0,0.2,0,0.3,0c0.1,0,0.1,0.1,0.3,0.1c0.1,0.1,0.1,0.3,0.1,0.4c0,0.1-0.2,0.3-0.5,0.6
	l-1.5,1.1c-0.5,0.4-0.8,0.6-1,0.7c-0.1,0.1-0.1,0.1-0.3,0.1c-0.1,0-0.2-0.1-0.3-0.1c-0.2-0.2-0.2-0.4,0-0.6c0.2-0.2,0.5-0.4,1-0.8
	l0.4-0.4L221,377l-0.4,0.3c-0.7,0.6-1.1,1-1.4,1.4c-0.2,0.4-0.2,0.8-0.1,1.3c0.1,0.4,0.4,0.9,0.8,1.3c0.4,0.4,0.8,0.7,1.1,0.9
	c0.4,0.2,0.7,0.3,1.1,0.3c0.4,0,0.7-0.1,1-0.3c0.3-0.1,0.7-0.4,1.3-0.8l1.1-0.8c0.9-0.6,1.3-1.2,1.4-1.7c0.1-0.4-0.1-0.9-0.6-1.4
	c-0.4-0.4-0.9-0.6-1.5-0.6l1.3-1l2,2.1L229.4,377.1z M232.3,384.8l-2.7,2.4c-0.4,0.3-0.6,0.4-0.7,0.4c-0.1,0.1-0.3,0.1-0.3-0.1
	c-0.1-0.1-0.1-0.2-0.1-0.3c0.1-0.1,0.2-0.3,0.4-0.5l2.8-2.5c0.3-0.2,0.4-0.3,0.5-0.3c0.1-0.1,0.3,0,0.3,0.1c0.1,0.1,0.2,0.3,0.1,0.3
	C232.6,384.4,232.5,384.6,232.3,384.8z M236.9,383.9l-1.8-1.6l-1.7,1.5c0-0.3,0-0.5-0.1-0.8c-0.1-0.3-0.3-0.4-0.5-0.6
	c-0.3-0.3-0.6-0.4-0.9-0.4c-0.4-0.1-0.7-0.1-0.9,0.1c-0.3,0.1-0.6,0.4-1.1,0.8l-2.7,2.5c-0.4,0.4-0.7,0.7-0.8,0.9
	c-0.1,0.3-0.2,0.5-0.1,0.8c0.1,0.3,0.2,0.6,0.5,0.8c0.2,0.2,0.4,0.3,0.7,0.4c0.3,0.1,0.6,0.1,1,0.1l-0.4,0.4l1.8,1.6L236.9,383.9z
	 M281.3,408.4l-2.3-0.8l-2.9,6.9l2.3,0.8l1.1-2.7c0.3-0.6,0.5-1,0.6-1.2c0.1-0.2,0.3-0.3,0.5-0.3c0.3-0.1,0.6,0.1,1.1,0.2l1-2.5
	c-0.6-0.1-1.3,0-1.9,0.6L281.3,408.4z M274.9,408.6l-1.2,2.9c-0.2,0.4-0.3,0.6-0.4,0.8c-0.1,0.1-0.2,0.1-0.3,0.1
	c-0.2-0.1-0.3-0.1-0.3-0.3c0-0.1,0.1-0.4,0.3-0.8l1.3-2.9c0.1-0.4,0.3-0.6,0.4-0.7c0.1-0.1,0.2-0.1,0.3-0.1c0.1,0.1,0.3,0.1,0.3,0.3
	S275,408.3,274.9,408.6z M275.7,404.9l-2.3-0.8l-3.6,8.4l2.2,0.8l0.4-0.4c0.1,0.3,0.3,0.5,0.4,0.7c0.2,0.2,0.4,0.3,0.7,0.4
	c0.4,0.1,0.8,0.1,1.1,0.1c0.3-0.1,0.6-0.3,0.8-0.5c0.2-0.2,0.4-0.6,0.6-1l1.3-3.1c0.2-0.5,0.3-0.9,0.4-1c0-0.2,0-0.4,0-0.6
	c-0.1-0.2-0.2-0.4-0.4-0.6c-0.2-0.2-0.4-0.3-0.8-0.4c-0.3-0.1-0.6-0.1-0.8-0.1c-0.3,0-0.6,0.1-0.8,0.2L275.7,404.9z M285.3,411.8
	L284,415c-0.1,0.3-0.2,0.4-0.3,0.6c-0.1,0.1-0.3,0.1-0.4,0c-0.1,0-0.2-0.1-0.2-0.2c0-0.1,0.1-0.4,0.1-0.7l1.3-3.1
	c0.1-0.4,0.3-0.6,0.3-0.7c0.1-0.1,0.2-0.1,0.3-0.1c0.1,0.1,0.2,0.2,0.3,0.3C285.5,411.2,285.4,411.4,285.3,411.8z M287.4,413
	c0.2-0.5,0.3-0.9,0.3-1.1s-0.1-0.6-0.2-0.8c-0.1-0.3-0.3-0.6-0.6-0.8c-0.3-0.3-0.8-0.5-1.3-0.6c-0.6-0.2-1.2-0.3-1.7-0.2
	c-0.5,0.1-0.9,0.3-1.2,0.6c-0.3,0.3-0.6,0.8-0.8,1.5l-0.7,1.8c-0.2,0.6-0.3,1.1-0.4,1.4c0,0.3,0,0.6,0.1,0.9
	c0.1,0.3,0.4,0.5,0.7,0.7c0.3,0.2,0.8,0.4,1.3,0.6c0.5,0.1,1,0.3,1.3,0.2c0.4,0,0.8-0.1,1.1-0.3c0.3-0.2,0.6-0.4,0.8-0.7
	c0.1-0.3,0.4-0.7,0.6-1.3L287.4,413z M266.5,403l-2.3-0.9l-3.5,6.7l2.2,0.9l2.4-4.6c0.2-0.3,0.3-0.5,0.4-0.6
	c0.1-0.1,0.1-0.2,0.2-0.3c0.1,0,0.3,0,0.3,0c0.2,0.1,0.3,0.2,0.3,0.3c-0.1,0.2-0.3,0.6-0.6,1.2l-2.2,4.3l2.2,1l2.2-4.4
	c0.3-0.6,0.6-0.9,0.6-1c0.1-0.1,0.3-0.2,0.4-0.1c0.1,0,0.3,0.2,0.2,0.3c-0.1,0.1-0.2,0.5-0.5,1.1l-2.2,4.4l2.2,0.9l2.4-4.8
	c0.3-0.6,0.5-1,0.6-1.2c0-0.3,0-0.6-0.2-0.8c-0.2-0.3-0.4-0.5-0.8-0.6c-0.3-0.1-0.6-0.2-1-0.2c-0.3,0.1-0.6,0.1-0.9,0.3
	c-0.1-0.6-0.4-1.1-1.1-1.3c-0.3-0.1-0.6-0.2-1-0.2c-0.3,0.1-0.6,0.1-0.9,0.3L266.5,403z M260.3,403.3l-0.6-0.3l0.3-0.4
	c0.3-0.4,0.4-0.6,0.4-0.7c0.1-0.1,0.3-0.1,0.4,0c0.1,0.1,0.2,0.2,0.2,0.3c0,0.1-0.2,0.4-0.3,0.7L260.3,403.3z M261.9,405.4l0.5-0.9
	c0.4-0.6,0.6-1.1,0.6-1.5c0.1-0.4-0.1-0.9-0.3-1.3c-0.3-0.4-0.8-0.8-1.4-1.1c-0.5-0.2-1-0.3-1.5-0.3c-0.5,0-1,0.1-1.3,0.3
	c-0.4,0.3-0.7,0.7-1.1,1.2l-1.1,1.9c-0.3,0.5-0.4,0.9-0.5,1.1c-0.1,0.3-0.1,0.6,0,1c0.1,0.3,0.3,0.6,0.5,0.9
	c0.3,0.3,0.7,0.5,1.2,0.8c0.4,0.2,0.9,0.4,1.3,0.4s0.8,0,1.1-0.2c0.4-0.1,0.6-0.3,0.8-0.5c0.2-0.2,0.4-0.5,0.6-0.9l0.3-0.4l-2.1-1
	l-0.5,0.8c-0.2,0.4-0.3,0.6-0.5,0.6c-0.1,0.1-0.3,0.1-0.4,0c-0.1-0.1-0.1-0.1-0.1-0.3s0.1-0.3,0.3-0.6l0.8-1.5L261.9,405.4z
	 M258.9,399.6l-2-1c-0.6,0.6-1.1,1.3-1.6,2c-1,1.3-1.7,2.1-1.9,2.4l2.4-5l-2-1.1l-3,7l2.8,1.5L258.9,399.6z M250.4,397.6l-2,2.9
	c-0.2,0.3-0.3,0.4-0.4,0.5c-0.1,0.1-0.3,0.1-0.4,0c-0.1-0.1-0.2-0.2-0.1-0.3c0-0.1,0.1-0.4,0.3-0.6l2-2.9c0.3-0.3,0.4-0.4,0.5-0.6
	c0.1-0.1,0.2-0.1,0.3,0.1c0.1,0.1,0.2,0.1,0.2,0.3C250.8,397,250.7,397.3,250.4,397.6z M252.2,399.2c0.3-0.4,0.5-0.8,0.6-1
	c0.1-0.3,0.1-0.6,0.1-0.9c-0.1-0.3-0.2-0.6-0.4-0.9c-0.3-0.4-0.6-0.6-1.1-0.9c-0.6-0.3-1.1-0.5-1.6-0.5c-0.5,0-1,0.1-1.3,0.4
	c-0.3,0.3-0.8,0.6-1.1,1.2l-1.1,1.6c-0.3,0.6-0.6,1-0.7,1.3c-0.1,0.3-0.1,0.6-0.1,0.9c0.1,0.3,0.2,0.6,0.4,0.8
	c0.3,0.3,0.6,0.5,1.1,0.8c0.4,0.2,0.9,0.4,1.3,0.4c0.4,0.1,0.8,0,1.1-0.1c0.4-0.1,0.7-0.3,1-0.5c0.2-0.3,0.6-0.6,1-1.2L252.2,399.2z
	 M249.8,392.8l-1.8-1.1l-2.7,3.3l1.5-4.1l-1.8-1.1l-5.9,7.2l1.8,1.2l2.7-3.4l-1.6,4.1l1.9,1.2L249.8,392.8z M236.5,389l-0.6-0.4
	l0.4-0.4c0.3-0.3,0.5-0.5,0.6-0.5c0.1-0.1,0.2-0.1,0.3,0.1c0.1,0.1,0.2,0.2,0.1,0.3c-0.1,0.1-0.3,0.3-0.5,0.6L236.5,389z
	 M237.5,391.4l0.7-0.8c0.6-0.5,0.9-1,1-1.4c0.2-0.4,0.1-0.8,0-1.3c-0.2-0.4-0.5-0.9-1.1-1.3c-0.4-0.3-0.9-0.6-1.3-0.6
	c-0.5-0.1-1-0.1-1.4,0.1c-0.4,0.2-0.8,0.5-1.3,1l-1.6,1.6c-0.4,0.4-0.7,0.8-0.8,1c-0.1,0.3-0.2,0.6-0.2,0.9c0,0.3,0.1,0.6,0.3,1
	c0.2,0.4,0.4,0.7,0.9,1c0.4,0.3,0.8,0.5,1.2,0.6c0.4,0.1,0.7,0.1,1.1,0.1c0.3-0.1,0.6-0.2,0.9-0.4c0.3-0.1,0.5-0.4,0.8-0.7l0.4-0.4
	l-1.8-1.4l-0.7,0.8c-0.3,0.3-0.5,0.4-0.6,0.5c-0.1,0.1-0.3,0.1-0.4-0.1c-0.1-0.1-0.1-0.2-0.1-0.3c0.1-0.1,0.2-0.3,0.4-0.5l1.1-1.2
	L237.5,391.4z M256.8,369.8l-5.3,7.6l3.7,2.3l1.1-1.5l-1.6-1l1.2-1.7l1.3,0.8l1-1.4l-1.3-0.8l1.1-1.5l1.4,0.9l1.1-1.5L256.8,369.8z
	 M262.1,374.8c0.3,0.1,0.4,0.3,0.4,0.4c0.1,0.1,0,0.3-0.2,0.6l-0.4,0.6c-0.2,0.3-0.4,0.4-0.5,0.5c-0.1,0.1-0.3,0-0.5-0.1l-0.1-0.1
	L262.1,374.8z M260.8,372.2l-5,7.8l2.2,1.2l2-3.1l0.6,0.3c0.5,0.3,0.9,0.4,1.3,0.5c0.3,0.1,0.6-0.1,0.9-0.2c0.3-0.2,0.6-0.5,0.9-1
	l0.4-0.7c0.3-0.4,0.5-0.8,0.6-1.1c0.1-0.3,0.2-0.6,0.1-0.8c-0.1-0.2-0.3-0.4-0.5-0.8c-0.3-0.3-0.7-0.6-1.3-0.9L260.8,372.2z
	 M252.8,368.9c0.3,0.2,0.4,0.3,0.4,0.4s0,0.3-0.2,0.6l-0.3,0.4c-0.3,0.3-0.4,0.4-0.6,0.4c-0.2,0-0.4-0.1-0.6-0.2L252.8,368.9z
	 M251.7,366.3l-5.6,7.4l2,1.4l2.5-3.4c0.3,0.2,0.4,0.4,0.4,0.5s-0.2,0.4-0.4,0.8l-1.9,2.5l2,1.3l1.5-2c0.4-0.6,0.7-1,0.8-1.1
	c0.1-0.2,0.1-0.4,0.1-0.6c0-0.3-0.2-0.6-0.5-1c0.4,0.3,0.9,0.4,1.1,0.3c0.3-0.1,0.7-0.4,1.1-1c0.5-0.6,0.7-1.1,0.7-1.6
	c0-0.4-0.1-0.8-0.4-1.1c-0.3-0.3-1-0.8-1.9-1.5L251.7,366.3z M270.9,377.6l-2.2-1.1l-3.5,5.8c-0.3,0.4-0.4,0.6-0.5,0.7
	c-0.1,0.1-0.2,0.1-0.4,0.1c-0.1-0.1-0.1-0.2-0.1-0.3s0.1-0.3,0.3-0.7l3.6-6l-2.2-1.1l-2.8,4.7c-0.6,0.9-0.9,1.5-1,1.8
	c-0.1,0.3-0.2,0.6-0.1,1c0.1,0.3,0.2,0.7,0.5,1.1c0.3,0.3,0.7,0.6,1.2,0.9c0.4,0.3,0.9,0.4,1.3,0.4c0.4,0.1,0.8,0,1.1-0.1
	c0.4-0.2,0.6-0.3,0.8-0.6c0.2-0.2,0.4-0.6,0.8-1.2L270.9,377.6z M271.1,375.7l-1.8-1l-1.7,0.9l1.1,0.6L271.1,375.7z M271.1,383.4
	c0.3,0.1,0.5,0.3,0.6,0.4c0,0.1-0.1,0.3-0.2,0.7l-0.4,0.8c-0.2,0.4-0.3,0.6-0.4,0.6c-0.1,0.1-0.4,0-0.7-0.1L271.1,383.4z
	 M272.6,380.2c0.3,0.1,0.4,0.2,0.5,0.3c0,0.1,0.1,0.2,0.1,0.3s-0.1,0.3-0.2,0.6c-0.2,0.4-0.4,0.8-0.5,0.8c-0.1,0.1-0.3,0.1-0.5,0
	c-0.1-0.1-0.1-0.1-0.3-0.1L272.6,380.2z M271,377.8l-4,8.3l2.7,1.1c1,0.4,1.6,0.6,1.9,0.6c0.4,0.1,0.6-0.1,1-0.3
	c0.3-0.2,0.5-0.6,0.8-1.1l0.4-0.8c0.3-0.6,0.4-1,0.3-1.3c-0.1-0.4-0.3-0.7-0.8-1c0.5,0.1,1,0.1,1.1-0.1c0.3-0.1,0.5-0.4,0.8-1
	c0.3-0.7,0.5-1.3,0.4-1.7c-0.1-0.4-0.3-0.8-0.6-1c-0.3-0.3-0.9-0.6-1.6-0.9L271,377.8z M279.4,381.4l-2.3-1l-3.9,8.4l3.7,1.5
	l0.8-1.7l-1.4-0.6L279.4,381.4z M283.2,382.9l-2.3-0.8l-3.4,8.6l2.4,0.8L283.2,382.9z M288.1,388.9l0.3-0.8c0.3-0.8,0.4-1.5,0.4-1.8
	c0-0.4-0.2-0.9-0.6-1.3c-0.4-0.4-0.9-0.7-1.6-1c-0.6-0.1-1-0.2-1.5-0.2c-0.4,0.1-0.8,0.2-1.1,0.4c-0.4,0.3-0.6,0.5-0.8,0.8
	c-0.1,0.3-0.3,0.8-0.6,1.3l-0.8,2.5c-0.3,0.9-0.4,1.5-0.4,2c0,0.5,0.1,0.9,0.5,1.3c0.4,0.4,1,0.7,1.7,1c0.6,0.2,1.3,0.3,1.8,0.1
	c0.6-0.2,1-0.4,1.3-0.8c0.3-0.3,0.6-0.9,0.9-1.8l0.1-0.4l-2.3-0.8l-0.4,1.1c-0.1,0.5-0.3,0.8-0.4,0.9c-0.1,0.1-0.3,0.1-0.4,0.1
	c-0.2,0-0.3-0.1-0.3-0.3c0-0.1,0.1-0.4,0.2-0.8l1.4-4c0.2-0.4,0.3-0.7,0.4-0.8c0.1-0.1,0.3-0.1,0.4-0.1c0.2,0.1,0.3,0.2,0.3,0.3
	c0,0.1-0.1,0.4-0.2,0.8l-0.6,1.5L288.1,388.9z M291.1,391.7l-0.9-0.2c0.3-0.8,0.8-2,1.6-3.6C291.4,389.5,291.2,390.7,291.1,391.7z
	 M294,386.4l-3.6-0.9l-3.8,8.4l2.5,0.7l0.6-1.6l0.9,0.3l-0.4,1.7l2.5,0.6L294,386.4z M308.5,390.9c0.3,0,0.4,0.1,0.6,0.1
	c0.1,0.1,0.1,0.2,0.2,0.3c0,0.1,0,0.4-0.1,0.8l-0.3,3.6c-0.1,0.6-0.1,1-0.3,1.1s-0.3,0.2-0.7,0.1L308.5,390.9z M306.2,389.1
	l-0.9,9.1l3.2,0.3c0.6,0,1.1,0.1,1.4,0c0.3,0,0.6-0.1,0.8-0.3c0.3-0.1,0.4-0.3,0.5-0.6c0.1-0.3,0.2-0.8,0.3-1.6l0.3-3.2
	c0.1-0.9,0.1-1.5,0.1-1.8c-0.1-0.3-0.2-0.6-0.4-0.8c-0.2-0.3-0.5-0.4-1-0.6c-0.4-0.1-1.2-0.3-2.4-0.3L306.2,389.1z M333.3,389.2
	l-5.5,0.6l0.3,1.8l1.5-0.1l1,7.2l2.5-0.3l-0.9-7.2l1.5-0.2L333.3,389.2z M335.9,388.9l-2.5,0.4l1.7,9l2.5-0.4L335.9,388.9z
	 M326.6,395.8l-0.8,0.1c0-0.8,0.1-2.2,0.2-3.9C326.2,393.5,326.4,394.7,326.6,395.8z M327.5,389.8l-3.7,0.2l-0.6,9.2l2.6-0.1
	l0.1-1.7l0.9-0.1l0.3,1.7l2.6-0.1L327.5,389.8z M342.5,387.7l-2.6,0.5l0.2,1.7c0.2,1.3,0.3,2.9,0.6,4.7c-0.5-1.7-1.2-3.7-2.1-6.2
	l-2.6,0.4l3.4,8.8l3.8-0.8L342.5,387.7z M346.8,392.7l-0.9,0.2c-0.1-0.8-0.3-2.1-0.5-3.8C345.9,390.5,346.4,391.7,346.8,392.7z
	 M346.5,386.7l-3.6,0.9l1.3,9.1l2.5-0.6l-0.3-1.7l0.9-0.3l0.6,1.6l2.5-0.6L346.5,386.7z M385.5,372.1l-0.2-0.3
	c-0.4-0.6-0.8-1-1.1-1.2c-0.3-0.2-0.7-0.2-1.3-0.2c-0.5,0.1-1,0.3-1.5,0.6c-0.6,0.3-0.9,0.6-1.2,1c-0.3,0.3-0.3,0.7-0.3,1.1
	c0.1,0.4,0.3,0.8,0.6,1.5c0.3,0.4,0.6,0.7,0.9,0.9c0.3,0.2,0.6,0.3,0.8,0.4c0.3,0,0.8,0.1,1.5,0.1c0.8,0,1.3,0.1,1.5,0.1
	c0.3,0.1,0.5,0.3,0.8,0.8c0.1,0.3,0.2,0.4,0.2,0.6c0,0.1-0.1,0.3-0.2,0.3c-0.2,0.1-0.3,0.1-0.4,0.1c-0.1-0.1-0.3-0.3-0.4-0.5l-0.7-1
	l-2,1.2l0.3,0.4c0.4,0.6,0.8,1,1.1,1.3c0.3,0.3,0.8,0.3,1.3,0.3c0.5-0.1,1.1-0.3,1.7-0.6c0.5-0.3,0.9-0.7,1.2-1.1
	c0.3-0.4,0.4-0.8,0.3-1.1c-0.1-0.3-0.3-0.8-0.6-1.3c-0.5-0.8-1-1.2-1.5-1.5c-0.5-0.1-1.4-0.3-2.7-0.2c-0.4,0-0.7-0.1-0.9-0.1
	c-0.2-0.1-0.3-0.3-0.5-0.5c-0.1-0.2-0.2-0.4-0.2-0.5c0-0.1,0-0.3,0.1-0.3c0.1-0.1,0.3-0.1,0.4-0.1c0.1,0.1,0.2,0.2,0.4,0.4l0.4,0.6
	L385.5,372.1z M386.6,368l-2.1,1.3l5.6,7.6l2.1-1.3L386.6,368z M389,366.1l-2.1,1.4l5.8,7.4l3.3-2.3l-1.1-1.5l-1.3,0.9L389,366.1z
	 M380.1,378.9l-0.8,0.4c-0.4-0.8-0.9-1.9-1.7-3.6C378.7,377,379.5,378.1,380.1,378.9z M378.1,373.2l-3.2,1.7l3.9,8.5l2.3-1.2
	l-0.8-1.5l0.8-0.4l1,1.3l2.2-1.2L378.1,373.2z M311.8,372.3v-1.5l-12.3,4.9v-10.4l12.3,4.8v-1.4l-13.6-5.4v14.4L311.8,372.3z
	 M307.2,357.1c-0.1-0.1-0.1-0.1-0.1-0.1c0,0-0.1,0-0.1-0.1l-1.1,8l0.3,0.1L307.2,357.1z M305,356.9c-0.1,0.1-0.1,0.1-0.1,0.1h-0.1
	l-1.1,7l0.3,0.1L305,356.9z M304.5,376.7l-0.3,0.1l-0.3,1.9l0.3-0.3L304.5,376.7z M310.2,383.4c0.5,0,1.1,0.1,1.6,0.1l1.1-6.2h-1.1
	v-3.7l-1.5,0.6l-1,8.1L310.2,383.4z M311.2,367.2l0.6,0.3v-1.2c-0.2-0.1-0.3-0.1-0.5-0.1L311.2,367.2z M308.2,375.1l-1.5,0.6l-0.4,3
	l1.3,1.5L308.2,375.1z M309.4,365.1c-0.3-0.2-0.5-0.4-0.7-0.6c-0.1-0.1-0.3-0.3-0.3-0.4l-0.3,1.8l1.1,0.4L309.4,365.1z M330,368.8
	v1.4l12.3-4.8v10.4l-12.3-4.8v1.4l13.6,5.4v-14.4L330,368.8z M334.2,360.9c0,0.1,0,0.2-0.1,0.3c-0.1,1-0.4,1.8-1,2.5l0.5,2.2
	l1.7-0.8L334.2,360.9z M336.3,356.8c-0.3-0.1-0.8-0.1-1.1-0.1l2.2,7.7l1.2-0.5L336.3,356.8z M329.4,377.3h-0.7l1.4,6v0.2
	c0.1-0.1,0.3-0.1,0.4-0.1L329.4,377.3z M338.9,377.2L336,376l0.4,2l3.2,1.8L338.9,377.2z M331.5,365.5c-0.4,0.3-1,0.5-1.5,0.7v1.4
	l1.8-0.8L331.5,365.5z M333.6,375l-2.7-1.1l1.5,8.3l2.3-2.7L333.6,375z M320.7,238.5c5.4,0,10.5,0.9,15.4,2.5l-15.4-31.5V238.5z
	 M320.7,318.8c-17.8,0-32.3-14.5-32.3-32.3c0-17.8,14.5-32.3,32.3-32.3c17.8,0,32.3,14.5,32.3,32.3
	C353,304.3,338.5,318.8,320.7,318.8z M320.7,319.9c18.4,0,33.4-15.1,33.4-33.5c0-18.4-15-33.4-33.4-33.4s-33.4,15-33.4,33.4
	C287.3,304.9,302.3,319.9,320.7,319.9z M320.7,331.8c-25,0-45.3-20.3-45.3-45.3c0-25,20.4-45.3,45.3-45.3c25,0,45.3,20.4,45.3,45.3
	C366,311.5,345.7,331.8,320.7,331.8z M320.7,333.3c25.8,0,46.9-21,46.9-46.9c0-25.8-21.1-46.9-46.9-46.9
	c-25.8,0-46.9,21.1-46.9,46.9C273.8,312.3,294.9,333.3,320.7,333.3z M293.2,247.2c1.5-1,3-2,4.7-2.9l23.1-46.7l23,46.9
	c1.6,1,3.2,2,4.7,3L321,193.4L293.2,247.2z M338.2,212.9c-0.6,0.6-1.3,1.1-2.2,1.1l-0.5,2.9l1.1,2.1L338.2,212.9z M334.3,212.6
	c-0.1-0.3-0.2-0.5-0.2-0.8c-1-0.4-1.7-1.2-1.5-2.3c0.1-0.9,0.8-1.6,1.7-1.9c-0.1-0.6,0.1-1.2,0.3-1.6c0.1-0.1,0.2-0.3,0.3-0.4
	l-1.6-2l-1,7.1l1.7,3.2L334.3,212.6z M275,272c1.7-5.2,4.2-10,7.4-14.3l-35.9,4.6h-0.1L275,272z M274.7,300.1
	c-0.4-1.4-0.8-2.9-1.1-4.3l-38.2-37.2l53-7.6c1.1-1,2.2-1.9,3.4-2.7l-60.8,8.9L274.7,300.1z M366.7,272.7c1.3,4.4,2,9,2,13.7
	c0,0.8,0,1.7-0.1,2.5c0.4-0.4,27.1-25.7,27-25.7L366.7,272.7z M350.2,248.7c1.1,0.9,2.2,1.8,3.3,2.8l53.2,8.1L367.5,297
	c-0.3,1.5-0.7,2.9-1.1,4.2l-0.1,0.3l44.8-43.2L350.2,248.7z M292.3,325c-4.3-3.1-7.9-6.9-10.9-11.2l-6.9,34.6l-0.1,0.1L292.3,325z
	 M318.2,334.3c-1.5-0.1-2.9-0.2-4.4-0.4l-46.5,23.9l9.7-51.7c-0.6-1.3-1.1-2.6-1.5-3.9l-10.9,59.3L318.2,334.3z M348.7,325.5
	c-4.2,3-8.8,5.3-13.8,6.9c6.9,3.5,31.4,16.2,31.4,16.1L348.7,325.5z M365.5,303.7c-0.5,1.3-1,2.5-1.6,3.7l9.4,50.5L327,334
	c-1.5,0.2-2.9,0.3-4.4,0.4l53.5,27.1L365.5,303.7z M340.1,345.8c1.2,0.6,2.3,1.2,3.5,1.9l-0.1-0.4l-3.4-1.7L340.1,345.8z
	 M334.5,344.5c0.3,0,0.6,0,0.9,0c0.7,0.1,1.4,0.2,2.2,0.4l-0.2-0.6l-3.6-1.8L334.5,344.5z M341.1,210.3c0,0,0,0.1,0,0.1
	c0.7-0.2,1.4,0,2,0.3l0.8-3.2c-0.6-0.6-1.1-1.2-1.7-1.8L341.1,210.3z M344.5,201.9c-0.1,0.9-0.7,1.7-1.5,2.1c0,0.2-0.1,0.4-0.1,0.6
	c0.4,0.5,0.9,1,1.3,1.5l0.4-1.4c-0.3-0.5-0.4-1.1-0.3-1.8c0.2-0.5,0.6-0.9,1-1.1l0.1-0.5L344.5,201.9z M338.8,223.2
	c0.1-0.3,0.3-0.6,0.5-0.8c-0.4-0.9-0.4-2,0.3-2.7c0.4-0.4,0.8-0.6,1.3-0.6l0.2-0.6c-0.3-0.3-0.4-0.6-0.5-1c-0.5-0.1-0.9-0.3-1.3-0.6
	l-1.3,4.9L338.8,223.2z M346.1,221.2c-0.1,0.1-0.1,0.1-0.1,0.1c0.6,0.4,1.2,1.1,1.2,1.8c0.2,0,0.4-0.1,0.6-0.1l1.9-5
	c-0.8-0.3-1.5-0.6-2.3-0.9L346.1,221.2z M347.9,216c0.8,0.3,1.6,0.6,2.3,1l0.6-1.5c-0.6-0.8-1.3-1.5-1.9-2.2L347.9,216z
	 M345.3,229.8l-0.4-0.4c0.2,0,0.4-0.1,0.6-0.1l0.5-1.3c0.1-0.4,0.1-0.7,0.3-1c-0.4-0.4-0.6-1-0.7-1.5c-0.1,0-0.1,0-0.2,0.1
	c-0.2,0.8-0.7,1.5-1.5,1.8l-1.2,3.6l1.3,2.5L345.3,229.8z M348.2,232.6l-1.3-1.2l-1.7,4.4l0.9,1.8L348.2,232.6z M348.5,199.5
	c1,0.1,1.7,0.7,2.2,1.5c0.1,0,0.3,0,0.4,0.1l1.3-3.7L348.5,199.5z M345.1,217.8c-0.1,0-0.2,0-0.3,0.1c-0.3,0.3-0.4,0.6-0.7,0.8
	c0.2,0.1,0.4,0.1,0.6,0.2L345.1,217.8z M345.2,210.7c0.3,0.1,0.4,0.3,0.7,0.4c0.6,0.6,0.8,1.4,0.8,2.2l0.7-1.9
	c-0.6-0.7-1.2-1.4-1.8-2L345.2,210.7z M345.9,207.9c0.6,0.7,1.3,1.4,2,2.2l0.6-1.8l-0.1-0.3c-0.8,0.4-1.7,0.4-2.3-0.2
	c-0.1-0.1-0.1-0.1-0.1-0.1L345.9,207.9z M341.9,227c-0.3-0.2-0.5-0.4-0.7-0.7l-0.3,1.1l0.4,1L341.9,227z M350.7,235.1l-0.9-1
	l-2.5,5.8l0.5,1L350.7,235.1z M340.1,206c-0.4-0.1-0.7-0.4-1-0.6c-0.5,0.2-0.8,0.2-1,0.2l-0.1,0.1c0.1,0.1,0.1,0.1,0.2,0.3
	c0.7-0.2,1.4-0.1,1.9,0.2L340.1,206z M324.3,194.9l2.7,5.3l0.4-3.6l-3.1-3.7V194.9z M328.8,203.6l1.9,3.8l0.8-5.9l-2.2-2.7
	L328.8,203.6z M296.8,225.4c-0.1,0-0.1,0-0.2,0l-2.1,0.3l0.1,0.4l1.1,0.3c-0.3,0.2-0.5,0.5-0.8,0.7l1.5,4.1c0.4,0.2,0.9,0.4,1.3,0.6
	c-0.3,0.1-0.6,0.3-1,0.4l1,2.5l1.3-2.5L296.8,225.4z M295,233c-0.6,0.2-1.1,0.4-1.6,0.7l2.2,5.5l1-1.8L295,233z M300.8,225
	c-0.1,0-0.2,0.1-0.3,0.1c-0.6,0-1.1,0-1.7,0.1l1.6,4.4l1.1-2.1L300.8,225z M293.9,210.5c0.1,0,0.1,0,0.1-0.1
	c0.6-0.1,1.1-0.4,1.3-0.4c0.4-0.1,0.7-0.1,1-0.3l-2.9-9.8l-3.9-2.3L293.9,210.5z M291.6,234.7c-0.1,0.1-0.2,0.2-0.3,0.3
	c-0.2,0.1-0.4,0.3-0.6,0.5l3.2,6.9l0.4-0.8L291.6,234.7z M293.3,228.5c-0.4,0.3-0.7,0.7-1,1c0.5,0.1,1,0.3,1.6,0.5L293.3,228.5z
	 M303.7,205.9c-0.4,1.1-0.8,2.2-1.1,3.2l0.7,2.9c0.1,0,0.2-0.1,0.3-0.1c0.4-0.4,1-0.7,1.4-0.8c0.1-0.1,0.3-0.1,0.4-0.3l-1-4.6
	L303.7,205.9z M301.6,205.6l0.7-0.5l-1-0.6L301.6,205.6z M307.2,209.9c0.5-0.3,1-0.5,1.3-0.7c0,1.7-0.5,2.9-0.6,3.7l0.3,1.4l1.5-3
	l-1.1-8.3l-2.3,2.7L307.2,209.9z M311.3,208.1l1.8-3.6l-0.6-6.1l-2.1,2.5L311.3,208.1z M314.8,201.2l2.5-5.1v-3.5l-3.1,3.7
	L314.8,201.2z M298,208.2c0.2-0.3,0.4-0.5,0.7-0.6l1.1-0.8l-1-3.8l-2.9-1.6L298,208.2z M303.8,222.3c-0.4,0.5-0.9,1-1.3,1.3l0.3,1.1
	l1.1-2L303.8,222.3z M250.1,278.9L250.1,278.9l-4-0.8c0.1,0.5,0.2,1,0.3,1.5l2.9,0.3C249.6,279.6,249.8,279.3,250.1,278.9z
	 M233.8,278.3c0-0.1,0-0.2,0-0.3v-2.2l-14.5-2.7l-2,1.1l2,2.4L233.8,278.3z M233.8,273.8l0.1-2.4l-8.6-1.6l-3.2,1.8L233.8,273.8z
	 M245.2,274.1c0.2,0.6,0.4,1.3,0.5,1.9l1.7,0.3L245.2,274.1z M235.8,271.7l1,1.5c0-0.4,0-0.9,0.1-1.3L235.8,271.7z M233.8,269.3
	v-0.5l0.4,0.6l2.7,0.5c0-0.6,0.1-1.1,0.1-1.8l-6.2-1.4l-2.7,1.5L233.8,269.3z M266.9,300.1c-0.3,0.6-0.6,1-0.8,1.3l-0.1,0.8l6.5-1.3
	l-1.6-1.5L266.9,300.1z M261.7,291.4c0,0.1,0,0.3,0,0.4l1.3-0.1l-0.4-0.3L261.7,291.4z M231.5,295.2c-0.1-0.3-0.1-0.5-0.2-0.8
	c0-0.1-0.1-0.2-0.1-0.3l-1.1,1.3L231.5,295.2z M246.5,281.7c0.1,0.4,0.1,0.9,0.1,1.3h0.3c0.3-0.4,0.6-0.8,0.9-1.2L246.5,281.7z
	 M231.8,280.1c0.7,0.3,1.4,0.7,2.1,1.1c-0.1-0.3-0.1-0.6-0.1-1L231.8,280.1z M268,296.6c-0.1,0.4-0.2,0.8-0.3,1.3l1.5-0.3L268,296.6
	z M232.8,299c-0.3-0.6-0.5-1.2-0.7-1.8l-3.9,0.4l-2,2.2L232.8,299z M236.9,266l-1.7-1.7l-1.7,0.9L236.9,266z M239.1,248.3
	c0.1-0.1,0.1-0.2,0.1-0.3c0.3-0.7,0.6-1.3,1-1.9l-9.7-5.8l-0.7,0.1l1.5,4L239.1,248.3z M238.5,252.9c-0.1-0.9,0-1.7,0.1-2.5l-6.2-3
	l1.5,3.9L238.5,252.9z M235.1,254.7l1.7-0.3l-2-0.7L235.1,254.7z M407,276.4c-0.1,0.9-0.2,1.8-0.2,2.6l15.5-2.5l1.8-2.2l-1.8-1
	L407,276.4z M408,271.3c-0.2,0.8-0.4,1.7-0.6,2.5c0,0.1,0,0.3,0,0.4l12.2-2.5l-3.6-2.1L408,271.3z M375.3,303.1
	c0.2-0.4,0.4-0.7,0.5-1.1c0.1-0.3,0.3-0.5,0.4-0.8l-6.3-1.1l-1.5,1.5l0.1,0.2L375.3,303.1z M407.1,281c0,0.2,0.1,0.4,0.1,0.6
	c0.1,0.3,0.3,0.6,0.4,1c1.7-0.9,3.6-1.8,5.3-2.4c0.1,0,0.3-0.1,0.4-0.1L407.1,281z M379,296.2c0.4-0.6,1-1.2,1.5-1.7
	c0.4,0.4,0.4,1.5,0.9,2l0.1,0.1c0.5-1-0.3-2.7-1.1-4.1l-2.1-0.3l-3.7,3.5L379,296.2z M410.2,297.3c-0.6,0.8-1.1,1.7-1.7,2.5l7.6,1
	l-2.5-2.9L410.2,297.3z M377.1,299.3c0.1-0.1,0.1-0.3,0.3-0.4c0.1-0.3,0.3-0.5,0.4-0.8l-5-0.6l-1,0.9L377.1,299.3z M408.2,265.2
	c0,1.3,0,3,0,3.9l5.1-1.1L408.2,265.2z M395.2,249.1c0.1,0.4,0.2,0.8,0.3,1.2c0.1,0.6,0.1,1.1,0.1,1.7l15-8.7l1.1-2.9l-1.7-0.3
	L395.2,249.1z M400.4,254.5l7.4-3.7l1.6-4.3l-12.8,7.4L400.4,254.5z M403.9,255l2.2,0.3l0.7-1.8L403.9,255z M271.4,306.1
	c0,0.1,0,0.1,0,0.1l1-0.3l0.1-0.1L271.4,306.1z M271.4,303.3c0,0.2,0,0.4,0,0.7l1.5-0.4l0.1-0.6L271.4,303.3z M266,304.3l-0.1,1
	l0.3-0.1c0.3-0.4,0.7-0.9,1.1-1.2L266,304.3z M270.9,360.7c0.3,0.2,0.5,0.4,0.8,0.5c0.9-0.6,1.8-1.2,2.7-1.8l0.3-0.6L270.9,360.7z
	 M277.4,358.2c1-0.2,2-0.3,3.2-0.3l1.1-2.6l-3.7,1.8L277.4,358.2z M282.9,357.8c0.6-0.1,1.1-0.1,1.7-0.1l1.3-4.4l-1.3,0.7
	L282.9,357.8z M286.7,357.5h0.2c-0.1-0.1-0.1-0.2-0.1-0.3L286.7,357.5z M293.7,350.1L293.7,350.1c1-0.5,1.8-1,2.7-1.6
	c0.4-0.3,0.8-0.4,1.2-0.7l0.1-0.7l-3.7,1.9L293.7,350.1z M308.8,344.8c0.1,0,0.1,0,0.2,0.1l0.5-3.6l-0.2,0.1L308.8,344.8z
	 M303.9,344.9c0.3-0.1,0.5-0.1,0.8-0.2l0.1-1.1l-0.7,0.4L303.9,344.9z M302.5,358.2l-1.6,0.8l-0.3,1.4v0.1c0.1,0.1,0.1,0.1,0.1,0.2
	l1,2.4L302.5,358.2z M300.1,346.5c0.5-0.3,1-0.6,1.6-0.8l0.1-0.5l-1.6,0.8L300.1,346.5z M314.8,338.8h-0.2l-1.4,11.4
	c0.1,0.5,0.2,1.1,0.3,1.6c0.1,1,0.3,1.6,0.7,2c0.2,0.3,0.4,0.4,0.6,0.6V338.8z M310.9,346c0.3,0.2,0.5,0.4,0.7,0.7l0.8-6.9l-0.7,0.4
	L310.9,346z M271.8,309.6l0.3-1.4l-0.5,0.1C271.6,308.8,271.7,309.2,271.8,309.6z M371.3,308.6c0.3-0.3,0.6-0.6,0.8-0.9l-2.9-0.7
	l0.2,1.1L371.3,308.6z M373.5,305.8c0.3-0.3,0.4-0.6,0.6-0.9l-5.4-1l0.1,0.8L373.5,305.8z M377.8,348.8l2.8,0.1l-5.2-4.5l0.4,2.5
	L377.8,348.8z M340,361.7c0.3-0.9,0.6-1.7,1-2.5l-0.1-0.1l-2-1L340,361.7z M329.5,347c0.1-0.2,0.3-0.4,0.6-0.6l-2-6.8l-0.3-0.1
	L329.5,347z M327.4,353.8c0.3-0.4,0.5-1.1,0.6-2c0.1-0.4,0.1-1,0.2-1.4l-1.5-7v6.2L327.4,353.8z M331.8,345.1
	c0.2-0.1,0.4-0.2,0.6-0.3l-1.2-3.7l-0.6-0.3L331.8,345.1z M346.2,349.3c0.5,0.3,1,0.6,1.5,0.8l0.4,0.2c0.2-0.1,0.4-0.3,0.6-0.4
	l-2.6-1.3L346.2,349.3z M235.6,316.8l8.4-2.5c-0.4-0.3-0.8-0.8-1.1-1.3l-14.5,3.6l2.8,1.6L235.6,316.8z M242.7,311
	c0.1-0.3,0.1-0.4,0.3-0.6c-0.7-0.4-1.2-0.8-1.5-1.3l-19.9,3.7l4.1,2.4L242.7,311z M239.4,317.8c0.4,0.1,0.7,0.2,1.1,0.3
	c0.6,0.2,1.2,0.4,1.8,0.6l3.2-1.2c-0.2-0.4-0.3-0.9-0.4-1.3L239.4,317.8z M239.6,307.2c-0.8-0.6-1.7-1.3-2.5-2.1l-18.1,3.1l-1.8,2.1
	l1.6,0.8L239.6,307.2z M255,349.2c-0.5-0.1-1.1-0.3-1.6-0.4v1.8L255,349.2z M253.3,356.1c0.1,0.1,0.1,0.3,0.2,0.4l5.8-6
	c-0.4-0.2-1.1-0.4-1.9-0.6l-4.1,3.7V356.1z M254.3,358.5c0.4,1,0.8,2,1.1,3l7.4-8.9c-0.5-0.4-1.1-0.9-1.7-1.3L254.3,358.5z
	 M257,362.9c0.8,0.6,1.5,1.1,2.3,1.7l3.9-5.6l0.8-4.4L257,362.9z M261,365.7c0.9,0.6,1.8,1.2,2.7,1.8l2.3-4
	c-0.1-0.1-0.2-0.1-0.3-0.2l-3.6,1.8l0.2-1.3L261,365.7z M265.5,368.6c0.4,0.3,0.8,0.5,1.2,0.8l2.3-0.4l1.3-2.3
	c-1-0.6-1.8-1.1-2.7-1.8L265.5,368.6z M417.9,279.2c0,0.5,0.1,1.3,0.1,2.2l2.2-2.5L417.9,279.2z M403.2,305.7
	c-0.6,0.4-1.3,0.9-2.1,1.2c-0.5,0.2-1,0.3-1.5,0.5l22.4,4.1l2.1-1.1l-1.2-1.4L403.2,305.7z M396.1,308.9c-0.6,0.2-1.1,0.3-1.8,0.4
	l0.1-0.8l-0.8-0.2c-1,0.1-1.6,0.6-2.1,1.6l4.3,1c2.2,0,4.3-0.1,6.5-0.1c2.3,0.3,3,1,5,2.2c-0.1,0.1-0.3,0.3-0.4,0.4l8.1,1.9l4.3-2.4
	L396.1,308.9z M407.1,301.8c-0.6,0.8-1.2,1.5-1.8,2.2l15.7,2.6l-2.9-3.4L407.1,301.8z M405.1,315.2c-0.8,0.6-1.7,1-2.9,0.9
	c-0.1,0-0.4,0.1-0.7,0.1l8.3,2.1l2.5-1.4L405.1,315.2z M397.4,317.3c-0.3,0.3-0.4,0.5-0.6,0.9c1.3,0.3,3.9,1,5.9,1.3l-0.1,1.1l2,0.6
	l2.7-1.5L397.4,317.3z M235.4,303.4c-0.4-0.5-0.8-1.1-1.1-1.6c-0.2-0.3-0.4-0.5-0.5-0.8l-9.6,1.3l-3,3.4L235.4,303.4z M378.7,342.5
	c-0.8,0.1-1.5,0.1-2.2,0.1l7.2,6.4h0.6c-0.1,0.1-0.2,0.1-0.3,0.3l4.1,3.6v-3.2L378.7,342.5z M383.6,341.8c-0.6,0.1-1.3,0.3-1.9,0.4
	l7.6,5.7l2.8-0.4L383.6,341.8z M387.8,339.7c-0.4,0.4-1,0.8-1.7,1.2l8.1,5.3c0.2-0.2,0.4-0.4,0.6-0.5c0.4-0.4,0.9-0.6,1.3-0.9
	L387.8,339.7z M382.6,350.7c-0.5,0.5-1,1-1.5,1.5l5.2,5.1c0.4-0.8,0.8-1.7,1.1-2.4L382.6,350.7z M393.7,338.3c-0.3,0-0.6,0-1,0.1
	c-1.1,0-2.3,0-3.6-0.3l10.1,6.1c0.4,0.1,0.8,0.4,1.1,0.6l1.3,0.8l3.8-0.6L393.7,338.3z M399.6,336.3c-1,0.6-1.9,1-2.9,1.4l11.9,6.9
	l3-0.5l-1-2.5L399.6,336.3z M392.1,327.3c-0.3,0.4-0.4,0.7-0.8,1c1.2,0.9,2.3,2.4,3.7,2.6c2.5,0.2,5,1.6,7.7,2.9
	c-0.4,0.4-0.9,0.8-1.3,1.2l8.3,3.9l-1.4-3.7L392.1,327.3z M380.3,364.8c0.8-0.6,1.7-1.1,2.5-1.8l-5.3-5.4l0.9,5.3L380.3,364.8z
	 M379.8,353.7c-0.5,0.6-1,1.2-1.5,1.8l6.2,6.3c0.1-0.1,0.2-0.2,0.3-0.3c0.3-0.7,0.5-1.5,0.8-2.2L379.8,353.7z M373.2,362.2
	c-0.4,0.3-0.8,0.4-1.1,0.7l4.1,4.7c0.8-0.5,1.7-1.1,2.5-1.6l-2-2.1L373.2,362.2z M370.2,364c-0.5,0.3-1,0.6-1.5,1l3.2,3.7l1.8,0.4
	c0.2-0.1,0.4-0.3,0.5-0.4L370.2,364z M393.9,324.3c-0.1,0-0.1,0.1-0.2,0.1c-0.3,0.3-0.5,0.7-0.8,1.1l14.3,6.9l-1.2-3.2L393.9,324.3z
	 M402.4,322.7l-0.1,0.4c-1.5,0.1-3.4,0-5,0.2l7.8,3.1l-1.2-3.3L402.4,322.7z M240.6,327.8l-0.1-0.3c-0.2-0.5-0.4-1-0.6-1.5l-3.9,1.7
	l-1.1,3L240.6,327.8z M243.5,331.4c-0.5-0.6-1.1-1.3-1.6-2l-8.2,4.2l-1.5,4L243.5,331.4z M243.2,333.9l2.2-0.1
	c-0.2-0.3-0.4-0.5-0.6-0.7L243.2,333.9z M243.4,336.7c-0.9-0.5-1.9-0.9-2.8-1.3l-9.6,5.3l-1.3,3.5l0.8,0.1L243.4,336.7z
	 M246.7,339.7c-0.4-0.7-0.8-1.4-1.3-1.9l-11.7,6.9l5.1,0.9L246.7,339.7z M243.7,344.6c0.5,0.3,1.1,0.6,1.7,1.1
	c0.1,0.1,0.3,0.2,0.4,0.3l4.1-3.2c-0.7-0.3-1.4-0.8-2-1.4L243.7,344.6z M247.6,347.1c1.2-0.2,3-0.4,5.1-0.8l3.2-3
	c-0.9,0-1.8,0.1-2.7,0.1c-0.3,0-0.4,0-0.7,0L247.6,347.1z M352.8,202.3c0,0,0,0.1,0,0.1c0.3,0.9,0,1.8-0.7,2.5
	c0.3,0.9,0.2,1.9-0.6,2.5c-0.2,0.2-0.4,0.3-0.8,0.4l-0.7,2l0.4,2.9c-0.1,0,0.3,0.5,0.8,1.3l0.3-0.7c-0.7-0.6-1.1-1.5-0.8-2.5
	c0.3-0.8,1.1-1.3,1.9-1.5c0.1-0.6,0.4-1.2,0.9-1.5l3.9-10.2l-1-2.7l-1.5,0.8L352.8,202.3z M355.9,207.8c0.5,0.3,0.9,0.7,1.2,1.1
	c0.4,0,0.8,0.1,1.1,0.2l1.9-4.4l-1.5-4.1L355.9,207.8z M359.4,211.6c-0.1,0.3-0.2,0.5-0.3,0.7l-0.4,1c0.2,0.8,0.1,1.7-0.6,2.2
	c-0.1,0.1-0.3,0.2-0.4,0.3l-0.6,1.5c0.1,0.4,0.2,0.8,0.2,1.1c0.1,1.1,0,2.2-0.2,3.2c0.1,0.1,0.1,0.1,0.1,0.2l3.1-6.5
	c0.4-2.2,0.8-4.3,1.5-6.1l-0.6-1.7L359.4,211.6z M352.1,217.8c0.3,0.1,0.6,0.3,0.8,0.4c-0.2-0.3-0.4-0.6-0.6-0.9L352.1,217.8z
	 M352.8,216c0.5,0.8,1.1,1.5,1.6,2.2l0.9-2.3c0-0.1,0-0.1-0.1-0.1C354.5,216.2,353.6,216.4,352.8,216L352.8,216z M355.2,225.6
	l-1-0.1c0,0.1,0.1,0.3,0.1,0.4c0.1,0.9-0.5,1.8-1.3,2.3c0,0.7-0.3,1.6-0.8,2.1c0.3,0.1,0.5,0.1,0.7,0.1L355.2,225.6z M355.1,230.6
	c1.8,0.1,3.4,0.1,4.8-0.6l0.4-0.6c-0.3-0.6-0.7-1.1-0.9-1.8c0,0,0,0,0-0.1l-0.1,0.1c-0.3-0.5-0.6-1-1.1-1.5l-0.8-0.1L355.1,230.6z
	 M354.9,237.5l-1.8-0.4l-0.8-0.4l-3.2,6.7l0.8,1.7L354.9,237.5z M358.3,224c0.3,0.4,0.6,0.9,1,1.3c0-0.7,0-1.5,0.1-2
	c0.1-0.6,0.1-1.2,0.2-1.8L358.3,224z M379.4,222.1c0.5,0.8,1,1.6,1.5,2.4l7.3-8.3v-3.2l-1.5,0.3L379.4,222.1z M382,226.4
	c0.4,0.8,1,1.7,1.2,2.4l5-5v-4.4L382,226.4z M376.3,217.7c0.3,0.4,0.6,0.9,1,1.4c0.3,0.4,0.5,0.8,0.8,1.2l5.4-6.5l-4.9,0.8
	L376.3,217.7z M385.3,229.6l1.3,0.1c0.4,0.3,0.8,0.6,1.2,1l0.3-0.3l0.1-3.6L385.3,229.6z M393.9,244.9c0.1,0.8,0.3,1.6,0.4,2.4
	l12.5-7.6l-4.3-0.8L393.9,244.9z M392.8,240.2c0.1,0.3,0.2,0.6,0.3,1c0.1,0.5,0.3,1,0.4,1.5l6.2-4.3l-3.6-0.6L392.8,240.2z
	 M357.4,243.3c0.7-0.1,1.4-0.1,2-0.1l0.5-0.6c-0.4-0.3-1-0.8-1.1-1.1L357.4,243.3z M353.5,243.3c0.4,0.1,0.9,0.1,1.3,0.1l2.8-3.7
	l-0.7-1.4L353.5,243.3z M356.3,247c-0.4-0.3-0.7-0.6-1-0.8l-0.6,0.8l1.5,0.3L356.3,247z M353.7,244.7c-0.2-0.3-0.4-0.6-0.6-0.8
	l-1.8,2.6l1,0.1L353.7,244.7z M289.6,212.4c0.8-0.6,1.5-0.9,2.3-1.2l-5.1-15.1l-2-1.1l-0.8,2.2L289.6,212.4z M286,215.6
	c0.3-0.3,0.6-0.5,1-0.8c0.3-0.4,0.6-0.7,1-1l-5-13.8l-1.5,4.2L286,215.6z M279.6,211.3l0.4-0.7l1.8,3.6c0.6,1.1,0.9,1.8,1,3.2
	c0,0.3,0.1,0.5,0.1,0.8l0.3,0.8c0.8-0.1,0.9,0.1,1.8-0.7l-4.6-11.2l-1.2,3.2L279.6,211.3z M289.1,236.7c-0.4,0.2-0.7,0.4-1.1,0.6
	c-0.6,0.3-1.2,0.4-1.8,0.6l5.8,8.4l0.8-1.6L289.1,236.7z M285.9,245.9c-0.3,0.3-0.6,0.4-1.1,0.6l0.9,1.1l1.3-0.2L285.9,245.9z
	 M283.8,238.1c-0.4,0-0.9-0.1-1.3-0.1l6.9,9.1l0.6-0.1L283.8,238.1z M272.8,218.6c0.7-0.6,1.5-1.1,2.5-1.7l-4.2-0.8L272.8,218.6z
	 M270.2,221.8c0.1-0.1,0.1-0.1,0.1-0.2c0.3-0.6,0.6-1.1,1-1.5l-3-4.4L265,215L270.2,221.8z M280.8,239.2v0.3
	c-0.3,0.4-0.6,0.9-0.8,1.3l2.4,2.9c0.9,0.1,1.6,0.4,2.3,0.8L280.8,239.2z M268.1,226.6h0.7c0.1-0.9,0.3-1.7,0.4-2.5l-7.2-9.6
	l-4.8-0.9L268.1,226.6z M263.4,228L263.4,228l-0.4-4.4l-8.8-10.5l-0.9-0.1v4.1L263.4,228z M261.2,232c0.5-0.6,1-1.1,1.5-1.7
	l-9.5-10.3v4.3L261.2,232z M282.8,247.3c-0.4,0.2-0.8,0.4-1,0.7l0.1,0.1l1.5-0.2L282.8,247.3z M278.9,242.8
	c-0.1,0.2-0.2,0.4-0.3,0.6c0.2,0,0.5,0,0.8,0L278.9,242.8z M253.3,228.7l2.5,1l-2.5-2.5V228.7z M250.3,239.5
	c0.6-0.9,1.2-1.6,1.8-2.4c0.1-0.2,0.3-0.3,0.4-0.5l-4.9,0.8L250.3,239.5z M248.6,243.6c0.3-0.8,0.4-1.5,0.8-2.2l-4.5-3.4l-3.6,0.6
	L248.6,243.6z M241.5,244.5c0.5-0.5,1.1-1,1.7-1.3c0.2-0.1,0.4-0.3,0.6-0.4l-5.4-3.7l-4.8,0.8L241.5,244.5z M372,378.4
	c0.3-0.1,0.4-0.1,0.6-0.1c0.1,0.1,0.3,0.2,0.4,0.4l0.3,0.4c0.3,0.4,0.3,0.6,0.3,0.7c-0.1,0.1-0.3,0.3-0.5,0.4L372,378.4z
	 M368.9,378.2l4.7,8l2.2-1.1l-2.1-3.7c0.3-0.1,0.5-0.2,0.6-0.1c0.1,0.1,0.3,0.3,0.6,0.8l1.6,2.7l2-1l-1.3-2.2
	c-0.3-0.6-0.6-1-0.7-1.1c-0.1-0.1-0.3-0.3-0.6-0.3c-0.3-0.1-0.6-0.1-1.1,0c0.5-0.3,0.7-0.6,0.8-0.9c0.1-0.3-0.1-0.7-0.5-1.3
	c-0.4-0.7-0.8-1.1-1.2-1.3c-0.4-0.2-0.8-0.3-1.2-0.1c-0.4,0.1-1.2,0.4-2.2,1L368.9,378.2z M367.7,384.3c0.4-0.2,0.6-0.2,0.7-0.2
	c0.1,0.1,0.3,0.3,0.4,0.6l0.4,0.7c0.2,0.4,0.3,0.6,0.2,0.8c0,0.1-0.2,0.3-0.5,0.4L367.7,384.3z M366,381.2c0.3-0.1,0.4-0.2,0.5-0.2
	c0.1,0,0.2,0.1,0.3,0.1c0.1,0.1,0.2,0.3,0.4,0.5c0.3,0.5,0.4,0.8,0.4,1s-0.1,0.2-0.4,0.3c0,0.1-0.1,0.1-0.2,0.1L366,381.2z
	 M363.1,380.9l4.4,8.2l2.6-1.2c0.9-0.4,1.5-0.8,1.8-1c0.2-0.3,0.3-0.5,0.3-0.8c0-0.4-0.2-0.8-0.4-1.3l-0.4-0.8
	c-0.3-0.5-0.6-0.9-0.9-1.1c-0.3-0.2-0.8-0.2-1.3-0.1c0.4-0.3,0.6-0.6,0.7-0.9c0.1-0.3-0.1-0.6-0.3-1.1c-0.4-0.7-0.8-1.1-1.1-1.4
	c-0.4-0.2-0.8-0.3-1.3-0.2c-0.4,0.1-1,0.3-1.7,0.6L363.1,380.9z M359.7,384.8l1.6,3.9c0.3,0.5,0.4,0.8,0.4,1c0,0.2-0.1,0.3-0.2,0.3
	c-0.2,0.1-0.3,0.1-0.4-0.1c-0.1-0.1-0.2-0.4-0.4-0.9l-1.7-4c-0.2-0.4-0.3-0.7-0.3-0.8c0.1-0.2,0.1-0.3,0.3-0.3c0.1,0,0.3,0,0.3,0.1
	C359.4,384.2,359.5,384.4,359.7,384.8z M363.2,386.8l-0.6-1.5c-0.4-0.9-0.7-1.5-0.9-1.8c-0.2-0.3-0.4-0.6-0.8-0.8
	c-0.3-0.2-0.8-0.3-1.2-0.3c-0.4,0-0.9,0.1-1.4,0.3c-0.5,0.2-1,0.4-1.3,0.7c-0.3,0.3-0.5,0.7-0.6,1c0,0.4,0,0.8,0,1.1
	c0.1,0.4,0.4,1,0.8,1.8l0.6,1.5c0.4,0.9,0.7,1.5,0.9,1.8c0.2,0.3,0.4,0.6,0.8,0.8c0.4,0.2,0.8,0.3,1.2,0.3c0.4,0,1-0.1,1.4-0.3
	c0.5-0.2,1-0.4,1.3-0.8c0.3-0.3,0.5-0.6,0.6-1c0.1-0.4,0.1-0.7,0-1.1C363.8,388.3,363.6,387.6,363.2,386.8z M352.6,386.5
	c0.3-0.1,0.4-0.1,0.6-0.1c0,0,0.2,0.1,0.3,0.2c0,0.1,0.2,0.4,0.3,0.8l1.3,3.4c0.3,0.6,0.3,0.9,0.3,1.1c0,0.1-0.2,0.3-0.5,0.4
	L352.6,386.5z M349.6,385.8l3.3,8.6l3-1c0.6-0.2,1-0.4,1.3-0.5c0.3-0.1,0.4-0.3,0.6-0.5c0.2-0.3,0.3-0.5,0.2-0.8
	c0-0.3-0.2-0.8-0.4-1.6l-1.2-3c-0.3-0.8-0.5-1.3-0.7-1.6c-0.1-0.3-0.3-0.5-0.6-0.6c-0.3-0.2-0.7-0.3-1.1-0.2c-0.4,0-1.2,0.3-2.4,0.6
	L349.6,385.8z M383.4,403.7l0.6,1c0.2,0.4,0.3,0.6,0.3,0.8s-0.1,0.3-0.3,0.3c-0.1,0.1-0.3,0.1-0.4,0c-0.1,0-0.3-0.3-0.5-0.6
	l-0.6-1.1c-0.1-0.3-0.3-0.5-0.3-0.6c0.1-0.1,0.1-0.3,0.3-0.3c0.2-0.1,0.3-0.1,0.4,0C383.1,403.2,383.3,403.4,383.4,403.7z
	 M381.4,400.4l0.3,0.6c0.2,0.3,0.3,0.4,0.3,0.6c0,0.1-0.1,0.2-0.2,0.3c-0.2,0.1-0.3,0.1-0.4,0c-0.1-0.1-0.3-0.2-0.4-0.4l-0.4-0.6
	c-0.1-0.3-0.2-0.4-0.2-0.6c0-0.1,0.1-0.2,0.2-0.3c0.2-0.1,0.3-0.1,0.4,0C381.1,400,381.2,400.2,381.4,400.4z M383.7,401.7
	c0.3-0.4,0.4-0.7,0.4-1c0.1-0.3-0.1-0.6-0.3-1c-0.4-0.7-0.9-1.1-1.5-1.3c-0.6-0.2-1.4-0.1-2.4,0.4c-0.9,0.4-1.5,0.8-1.7,1.4
	c-0.3,0.5-0.1,1.1,0.3,1.8c0.2,0.4,0.5,0.8,0.8,1c0.3,0.2,0.6,0.3,1,0.3c-0.3,0.4-0.4,0.8-0.3,1.2c0.1,0.4,0.3,0.9,0.6,1.3
	c0.4,0.7,0.8,1.2,1.1,1.5c0.4,0.3,0.8,0.4,1.3,0.4c0.5,0,1.1-0.1,1.8-0.4c0.7-0.3,1.2-0.6,1.5-1c0.3-0.4,0.4-0.8,0.4-1.1
	c0-0.3-0.2-0.9-0.6-1.5c-0.5-0.9-1-1.4-1.3-1.6C384.5,401.7,384.1,401.6,383.7,401.7z M363.6,409.5l-0.7,0.2l-0.2-0.5
	c-0.2-0.4-0.3-0.6-0.3-0.7c0-0.1,0.1-0.2,0.3-0.3c0.1-0.1,0.3,0,0.3,0.1c0.1,0.1,0.2,0.3,0.4,0.7L363.6,409.5z M366.6,409.9l-0.4-1
	c-0.3-0.6-0.6-1.1-0.9-1.5c-0.4-0.3-0.8-0.5-1.3-0.6c-0.6-0.1-1.1,0-1.8,0.2c-0.6,0.2-1,0.4-1.4,0.8c-0.3,0.3-0.5,0.6-0.6,1.1
	c-0.1,0.4,0.1,0.9,0.3,1.5l0.8,2c0.3,0.5,0.4,0.9,0.6,1.1c0.2,0.3,0.4,0.4,0.8,0.6c0.3,0.1,0.7,0.2,1.1,0.2c0.4,0,1-0.1,1.5-0.2
	c0.5-0.2,1-0.4,1.3-0.6c0.3-0.3,0.5-0.5,0.6-0.8c0.1-0.3,0.1-0.6,0.1-0.9c-0.1-0.3-0.2-0.6-0.4-1l-0.2-0.5l-2.3,0.7l0.4,1
	c0.1,0.3,0.2,0.6,0.2,0.7s-0.1,0.3-0.3,0.3c-0.1,0-0.3,0-0.3-0.1c-0.1-0.1-0.3-0.3-0.4-0.6l-0.6-1.5L366.6,409.9z M356.9,410.7
	l1.3,3.2c0.2,0.4,0.3,0.6,0.3,0.8c0,0.1-0.1,0.2-0.3,0.3c-0.1,0-0.3,0-0.3-0.1c-0.1-0.1-0.2-0.3-0.3-0.6l-1.5-3.4
	c0-0.3-0.1-0.4-0.1-0.6c0-0.1,0.1-0.1,0.3-0.2c0.1-0.1,0.2-0.1,0.4,0.1C356.7,410.3,356.8,410.4,356.9,410.7z M358,406.7l-2.5,0.8
	l0.9,2c-0.3-0.1-0.6-0.2-0.9-0.3c-0.3,0-0.6,0.1-0.9,0.1c-0.4,0.1-0.7,0.3-0.9,0.6c-0.3,0.3-0.3,0.5-0.3,0.8c0,0.3,0.1,0.6,0.3,1.1
	l1.4,3.2c0.3,0.6,0.4,0.9,0.6,1.1c0.2,0.3,0.4,0.4,0.8,0.4c0.3,0.1,0.7,0.1,1.1-0.1c0.3-0.1,0.5-0.2,0.8-0.4
	c0.2-0.2,0.4-0.4,0.5-0.7l0.2,0.5l2.5-0.8L358,406.7z M387.4,399.6l-1-1.4c-0.3-0.4-0.4-0.6-0.3-0.8c0.1-0.1,0.1-0.3,0.2-0.3
	c0.2-0.1,0.3-0.1,0.4,0c0.2,0,0.4,0.3,0.6,0.6l1,1.4c0.2,0.3,0.3,0.5,0.3,0.6c0,0.1-0.1,0.3-0.3,0.3c-0.1,0.1-0.2,0.1-0.4,0
	C387.8,400.1,387.6,400,387.4,399.6z M386.8,403.2c0.3,0.5,0.7,0.8,1.1,1.1c0.4,0.3,0.8,0.3,1.4,0.3c0.5,0,1.1-0.2,1.7-0.5
	c0.5-0.3,0.9-0.6,1.2-0.9c0.3-0.4,0.4-0.7,0.4-1.1c0.1-0.4,0-0.8-0.2-1.1c-0.2-0.3-0.6-1-1.2-1.8l-0.8-1.1c-0.6-0.8-1-1.5-1.3-1.7
	c-0.2-0.3-0.5-0.4-1-0.6c-0.4-0.2-0.8-0.3-1.3-0.2c-0.4,0.1-1,0.3-1.6,0.5c-0.4,0.3-0.9,0.6-1.1,0.9c-0.3,0.3-0.4,0.6-0.5,1
	c0,0.3,0,0.6,0.1,1c0.1,0.3,0.4,0.7,0.8,1.2l0.4,0.6c0.3,0.4,0.6,0.8,0.9,1c0.3,0.3,0.6,0.4,1,0.4c0.4,0.1,0.9-0.1,1.3-0.3
	c0.3-0.2,0.6-0.4,0.7-0.6c0.1-0.3,0.2-0.4,0.2-0.8l0.8,1.3c0.3,0.3,0.4,0.5,0.4,0.6c0.1,0.1,0.1,0.2,0.1,0.3
	c-0.1,0.1-0.1,0.2-0.2,0.2c-0.2,0.1-0.3,0.1-0.4,0.1c-0.1-0.1-0.2-0.1-0.3-0.2c0-0.1-0.2-0.3-0.4-0.6L386.8,403.2z M319.7,391.6
	c0.3,0,0.5,0.1,0.6,0.1c0.1,0.1,0.2,0.3,0.2,0.6v0.5c0,0.4-0.1,0.6-0.2,0.7c-0.1,0.1-0.3,0.1-0.6,0.1V391.6z M317.2,390v9.1h2.5
	l0.1-4.1c0.3,0,0.6,0.1,0.6,0.2c0.1,0.1,0.1,0.4,0.1,0.9v3l2.3,0.1v-2.4c0-0.8,0-1.2,0-1.4c-0.1-0.1-0.2-0.3-0.3-0.5
	c-0.2-0.2-0.6-0.4-1-0.5c0.5-0.1,0.9-0.2,1.1-0.4c0.2-0.2,0.3-0.7,0.3-1.4c0-0.8-0.1-1.3-0.4-1.7c-0.3-0.3-0.6-0.6-1-0.6
	c-0.4-0.1-1.2-0.2-2.4-0.2H317.2z M301.4,390.1L301.4,390.1l0.2-1.8h0.3L301.4,390.1z M301.9,388.3l-4.2-1l-2.2,8.9l2.5,0.6l1-3.7
	l1.5,0.4l0.4-1.7l-1.5-0.3l0.4-1.7l1.7,0.4l-1.1,7.2l4.3,0.6l0.3-1.8l-1.8-0.3l0.3-2l1.6,0.3l0.3-1.7l-1.5-0.3l0.3-1.7l1.7,0.3
	l0.3-1.8L301.9,388.3z"/>
</svg>
