<?xml version="1.0" encoding="UTF-8"?>
<svg id="Camada_2" data-name="Camada 2" xmlns="http://www.w3.org/2000/svg" viewBox="0 0 538.58 538.58">
  <defs>
    <style>
      .cls-1, .cls-2 {
        fill: #007e3c;
      }

      .cls-1, .cls-2, .cls-3, .cls-4 {
        stroke-width: 0px;
      }

      .cls-1, .cls-3, .cls-4 {
        fill-rule: evenodd;
      }

      .cls-3 {
        fill: #fff;
      }

      .cls-4 {
        fill: #f39200;
      }
    </style>
  </defs>
  <g id="Layer_1" data-name="Layer 1">
    <g>
      <g>
        <path class="cls-3" d="m269.28,520.76c138.52,0,251.48-112.97,251.48-251.48S407.8,17.82,269.28,17.82,17.82,130.78,17.82,269.28s112.96,251.48,251.46,251.48h0Z"/>
        <path class="cls-3" d="m459.55,459.55c-24.82,24.84-54.49,44.87-87.46,58.56-31.73,13.19-66.47,20.47-102.81,20.47s-71.06-7.28-102.79-20.47c-32.97-13.68-62.64-33.72-87.48-58.56-24.82-24.82-44.86-54.49-58.54-87.46C7.28,340.36,0,305.62,0,269.28s7.28-71.06,20.47-102.79c13.68-32.97,33.72-62.64,58.54-87.48,24.84-24.82,54.5-44.86,87.48-58.54C198.22,7.28,232.96,0,269.28,0s71.08,7.28,102.81,20.47c32.97,13.68,62.64,33.72,87.46,58.54,24.84,24.84,44.87,54.5,58.56,87.48,13.19,31.74,20.47,66.47,20.47,102.79s-7.28,71.08-20.47,102.81c-13.68,32.97-33.72,62.64-58.56,87.46h0Z"/>
        <path class="cls-1" d="m269.28,515.11c67.69,0,129.15-27.62,173.69-72.14,44.52-44.54,72.14-106,72.14-173.69s-27.62-129.15-72.14-173.67c-44.54-44.54-106-72.14-173.69-72.14s-129.13,27.6-173.67,72.14c-44.54,44.52-72.14,105.98-72.14,173.67s27.6,129.15,72.14,173.69c44.54,44.52,105.98,72.14,173.67,72.14h0Zm181.69-64.14c-46.59,46.57-110.87,75.46-181.69,75.46s-135.1-28.88-181.67-75.46c-46.57-46.59-75.46-110.87-75.46-181.69s28.88-135.1,75.46-181.67C134.18,41.04,198.48,12.15,269.28,12.15s135.1,28.88,181.69,75.46c46.57,46.57,75.46,110.87,75.46,181.67s-28.88,135.1-75.46,181.69h0Z"/>
        <path class="cls-2" d="m269.28,437.01c-92.47,0-167.71-75.24-167.71-167.73s75.23-167.71,167.71-167.71,167.73,75.23,167.73,167.71-75.25,167.73-167.73,167.73Zm0-324.12c-86.24,0-156.39,70.16-156.39,156.39s70.16,156.41,156.39,156.41,156.41-70.16,156.41-156.41-70.17-156.39-156.41-156.39Z"/>
        <path class="cls-4" d="m264.27,344.36c4.65-50.02,12.65-111.58,40.39-115.01,14.27-1.75,37.7,23.52,45.51,48.87-5.45-28-18.59-70.74-48.46-70.63-6.55.03-12.84,3.3-18.12,10.6-18.28,25.25-20.89,84.56-23.25,126.16h3.93Z"/>
        <path class="cls-1" d="m220.14,231.79c-4.28-2.32-19.6-9.03-33.87-9.03-9.8,0-16.75,5.4-16.75,13.65,0,25.92,60.06,27.47,60.06,68.56,0,28.82-19.97,39.39-46.34,39.39-14.8,0-28.87-4.62-33.32-5.97v-23.42c9.45,6.34,23.17,14.22,37.07,14.22,7.83,0,19.24-3.65,19.24-16.16,0-29.95-58.26-29.37-58.26-71.26,0-21.32,14.95-34.19,41.5-34.19,13.02,0,26.04,2.7,30.67,3.65v20.55Zm41.34,35c-3.37-23.1-7.75-51.99-16.02-72.31-16.25-39.74-47.11-47.94-57.61,5.3,15.04-29.75,29.2-22.48,43.46-3.87,14.37,18.77,22.57,59.67,27.82,90.84.76-6.92.2-5.32,2.35-19.97h0Z"/>
        <path class="cls-1" d="m365.83,271.6v-.38c10.25-2.99,23.02-11.9,23.02-31.34,0-27.15-22.25-32.29-44.12-32.29h-20.24c6.07,3.67,13.67,13.75,14.25,14.45h1.75c2.5,0,2.42.09,4.62.29,11.79,1.07,18.8,5.68,18.8,20.73,0,9.35-3.12,14.59-7.9,17.5l-1.45.84s1.35,2.93,2.9,9.25c1.33,5.3,1.51,11.55,1.75,11.67,7.53,3.78,11.35,10.62,11.35,21.6,0,22-16.15,23.97-32.52,23.97h-5.12v-49.36h9.17c-1.47-12.03-19.62-36.22-34.09-38.2v104.03h36.72c19.97,0,50.79-2.38,50.79-37.47,0-24.99-16.19-32.32-29.69-35.29h0Z"/>
      </g>
      <g>
        <path class="cls-2" d="m121.48,150.76c.56.36,1.02.69,1.39.97.37.28.68.55.91.8.24.25.43.49.55.74.13.24.25.57.35.98.1.41.12,1.1.08,2.07-.05.97-.22,2.08-.51,3.34-.29,1.26-.73,2.63-1.33,4.1-.6,1.47-1.39,2.97-2.37,4.5-1.92,2.99-4.12,5.39-6.58,7.19-2.46,1.81-5.15,2.97-8.07,3.48-2.91.5-6.03.33-9.35-.53-3.32-.86-6.8-2.47-10.43-4.81-3.71-2.38-6.68-4.99-8.92-7.83-2.24-2.84-3.77-5.77-4.58-8.8-.82-3.03-.93-6.11-.34-9.24.59-3.13,1.84-6.19,3.76-9.18.78-1.21,1.63-2.32,2.56-3.31.92-.99,1.85-1.86,2.8-2.61.94-.74,1.87-1.36,2.79-1.85.91-.49,1.62-.79,2.12-.9.5-.11.89-.15,1.16-.14s.59.1.95.23c.36.14.76.32,1.21.56.45.24.99.56,1.61.97.68.43,1.23.82,1.68,1.17.44.35.77.67.99.97.22.3.35.57.38.81.04.25-.01.47-.14.67-.22.34-.69.64-1.41.9-.73.27-1.59.65-2.6,1.16-1.01.51-2.07,1.21-3.19,2.09-1.13.88-2.19,2.11-3.2,3.68-1.12,1.73-1.75,3.5-1.92,5.31-.17,1.82.1,3.62.8,5.42.7,1.8,1.83,3.55,3.37,5.24,1.55,1.69,3.49,3.29,5.82,4.79,2.56,1.65,4.95,2.81,7.17,3.49s4.24.92,6.08.72c1.84-.2,3.5-.8,4.99-1.8,1.48-1,2.78-2.36,3.89-4.09,1.01-1.58,1.7-3.05,2.07-4.44.36-1.38.59-2.63.66-3.74.08-1.11.11-2.04.09-2.8s.06-1.29.25-1.58c.14-.23.3-.38.48-.45.18-.08.43-.07.75.01s.75.26,1.26.52c.51.27,1.17.66,1.98,1.18Z"/>
        <path class="cls-2" d="m149.42,127.78c.55.54.99,1.02,1.31,1.44.32.41.55.78.69,1.1.13.32.18.6.15.85-.04.25-.14.45-.3.63l-18.29,18.53c-.62.63-1.33.97-2.12,1.04-.79.06-1.61-.32-2.44-1.15l-32.16-31.74c-.84-.82-1.23-1.63-1.18-2.43.05-.8.39-1.51,1.01-2.13l18.17-18.41c.17-.17.37-.28.59-.31.23-.04.51.01.84.15.33.14.71.37,1.13.69.42.32.91.76,1.48,1.32.53.53.96,1,1.28,1.41.33.41.55.78.69,1.1.13.32.19.6.16.84-.03.24-.13.44-.3.61l-13,13.17,9.01,8.89,11-11.15c.17-.17.38-.28.62-.32.24-.04.52,0,.83.12.31.12.68.34,1.1.66.42.32.89.74,1.43,1.26.55.55.99,1.02,1.3,1.42.31.4.53.76.66,1.07.13.31.16.59.12.82-.04.24-.15.44-.32.61l-11,11.15,10.4,10.27,13.11-13.29c.17-.17.38-.28.62-.32.25-.04.53,0,.85.14.32.13.69.35,1.11.67.42.32.9.75,1.45,1.29Z"/>
        <path class="cls-2" d="m187.69,105.19c.16.25.25.48.27.71.02.23-.1.51-.37.84-.26.33-.7.73-1.32,1.2-.62.47-1.49,1.07-2.61,1.8-.94.61-1.71,1.08-2.29,1.4-.59.32-1.09.53-1.49.61-.4.09-.73.08-.99-.02-.26-.1-.52-.26-.78-.47l-10.22-7.15c-1.18-.79-2.28-1.46-3.28-2.02-1-.56-1.96-.94-2.88-1.16-.92-.21-1.83-.23-2.74-.05-.91.18-1.83.57-2.76,1.19l-2.75,1.79,10.8,16.53c.15.23.2.47.18.75-.03.28-.17.58-.43.91-.26.33-.65.71-1.16,1.14-.52.44-1.21.94-2.09,1.5-.85.55-1.58.98-2.2,1.29-.61.3-1.12.51-1.53.62-.41.11-.74.12-.99.03-.25-.09-.45-.25-.59-.47l-25.73-39.41c-.64-.98-.85-1.86-.64-2.62.22-.76.7-1.39,1.44-1.87l11.23-7.34c1.14-.75,2.09-1.34,2.86-1.77.77-.44,1.48-.82,2.12-1.15,1.91-.89,3.75-1.49,5.55-1.8,1.79-.31,3.49-.29,5.1.04,1.6.34,3.1,1,4.49,2,1.38.99,2.64,2.35,3.76,4.08.95,1.45,1.63,2.9,2.04,4.34.41,1.44.56,2.86.46,4.27-.1,1.41-.45,2.8-1.05,4.18-.6,1.38-1.43,2.72-2.49,4.02.85-.11,1.71-.13,2.57-.05.86.07,1.75.26,2.67.57.92.31,1.87.73,2.85,1.25.98.52,2.02,1.16,3.11,1.91l9.24,6.17c.89.63,1.52,1.11,1.89,1.42.36.32.63.59.77.81Zm-30.6-22.02c-.94-1.43-2.05-2.43-3.34-2.99-1.29-.56-2.8-.56-4.55,0-.52.18-1.09.42-1.7.73s-1.42.78-2.43,1.44l-3.96,2.59,8.04,12.31,4.49-2.93c1.25-.82,2.25-1.69,2.99-2.6.74-.91,1.24-1.85,1.51-2.81.27-.96.31-1.92.13-2.88-.19-.96-.59-1.92-1.19-2.86Z"/>
        <path class="cls-2" d="m206.52,48.93c.28.72.48,1.35.61,1.89.13.54.2.98.19,1.34,0,.36-.07.65-.2.87-.13.22-.31.38-.53.46l-12.12,4.64,14.94,39.02c.09.25.1.5.01.76-.09.26-.29.53-.62.79-.33.27-.79.56-1.4.88-.61.32-1.39.66-2.34,1.02-.95.36-1.75.63-2.41.8-.67.17-1.21.26-1.63.28-.42.02-.75-.04-.99-.18-.24-.14-.41-.33-.5-.58l-14.94-39.02-12.12,4.64c-.25.09-.49.1-.72.02-.24-.08-.47-.26-.72-.52-.24-.26-.49-.64-.75-1.13s-.53-1.09-.8-1.82c-.28-.75-.5-1.4-.64-1.95-.13-.55-.2-1-.2-1.36,0-.36.07-.64.19-.84.12-.2.31-.36.55-.45l34.12-13.06c.22-.09.46-.1.69-.03.24.07.48.23.73.5.24.26.5.64.76,1.14.26.5.54,1.13.83,1.88Z"/>
        <path class="cls-2" d="m236.44,89.98c.06.26.02.51-.1.76-.12.25-.37.48-.73.69s-.87.43-1.5.65c-.63.22-1.46.44-2.48.65-.99.21-1.83.35-2.51.41-.68.06-1.23.08-1.65.03-.42-.05-.74-.16-.95-.33-.21-.17-.35-.39-.41-.65l-10.25-47.86c-.05-.26-.02-.51.11-.76.12-.24.38-.48.75-.69.38-.22.88-.44,1.52-.65.64-.22,1.45-.43,2.45-.65,1.02-.22,1.86-.36,2.53-.42.67-.06,1.21-.07,1.63-.02.42.05.74.16.95.33.22.17.35.39.41.65l10.24,47.86Z"/>
        <path class="cls-2" d="m270.61,40.45c.05.8.06,1.47.03,2.02-.03.55-.11.99-.24,1.32-.13.33-.28.58-.46.75-.18.17-.38.27-.62.28l-16.91,1.08.89,13.91,15.87-1.02c.24-.01.46.04.65.16.2.12.38.34.54.65.17.31.3.73.4,1.26.1.53.18,1.19.23,1.99.05.8.06,1.47.03,2.01-.04.54-.11.99-.24,1.34-.12.35-.28.61-.45.77-.18.16-.39.25-.62.26l-15.87,1.01,1.24,19.27c.02.29-.05.55-.19.78-.14.22-.42.42-.83.6-.4.17-.94.32-1.6.44-.66.13-1.51.22-2.55.29-1.01.06-1.86.08-2.55.04-.69-.04-1.23-.11-1.64-.24-.41-.12-.71-.28-.89-.48-.19-.2-.29-.45-.31-.74l-3.01-46.89c-.08-1.17.17-2.04.74-2.59.56-.56,1.29-.86,2.17-.92l24.34-1.56c.24-.02.46.04.65.18.2.14.38.36.54.69.17.33.3.76.41,1.32.11.55.18,1.23.23,2.03Z"/>
        <path class="cls-2" d="m289.68,88.09c-.03.27-.13.5-.32.7-.19.2-.49.35-.9.45-.41.1-.95.16-1.62.19-.68.03-1.53,0-2.57-.09-1.01-.08-1.85-.19-2.53-.32-.67-.14-1.2-.28-1.59-.45-.39-.16-.66-.36-.82-.59-.16-.23-.23-.47-.2-.74l3.95-48.79c.02-.27.13-.5.32-.7.19-.2.5-.35.93-.45.42-.1.97-.16,1.64-.19.67-.03,1.51,0,2.53.08,1.04.09,1.88.19,2.54.33.66.13,1.19.28,1.58.45.39.17.66.36.82.59.15.23.23.47.2.74l-3.95,48.79Z"/>
        <path class="cls-2" d="m334.04,90.85c-.16.65-.31,1.19-.47,1.64-.15.44-.3.82-.46,1.12-.16.31-.33.56-.52.76-.18.2-.46.42-.81.65-.36.23-1.01.48-1.94.74-.93.27-2.04.47-3.33.61s-2.73.16-4.31.08c-1.58-.09-3.26-.35-5.02-.78-3.45-.85-6.43-2.15-8.94-3.89s-4.48-3.92-5.91-6.51-2.27-5.6-2.52-9.02c-.26-3.42.13-7.23,1.16-11.43,1.05-4.28,2.56-7.93,4.52-10.97,1.95-3.04,4.24-5.43,6.84-7.18,2.6-1.75,5.48-2.86,8.63-3.32,3.15-.46,6.45-.27,9.9.58,1.4.35,2.72.79,3.95,1.35,1.24.55,2.37,1.15,3.38,1.8,1.01.65,1.89,1.33,2.66,2.04.76.71,1.27,1.28,1.53,1.72.27.43.43.79.5,1.05.07.26.1.59.09.97-.01.38-.06.83-.14,1.33-.08.5-.21,1.11-.39,1.84-.19.78-.38,1.43-.57,1.96-.19.53-.39.95-.6,1.26-.21.3-.43.51-.65.62s-.45.14-.68.08c-.39-.1-.83-.45-1.31-1.04-.48-.6-1.13-1.3-1.94-2.09-.81-.79-1.82-1.57-3.01-2.35s-2.7-1.39-4.52-1.83c-2-.49-3.88-.52-5.65-.09-1.77.43-3.39,1.27-4.87,2.51-1.48,1.25-2.77,2.88-3.86,4.89-1.1,2.01-1.99,4.37-2.65,7.06-.73,2.95-1.05,5.59-.98,7.91.08,2.31.51,4.31,1.29,5.99.78,1.68,1.89,3.06,3.31,4.14s3.14,1.86,5.13,2.36c1.81.45,3.43.62,4.86.51,1.43-.1,2.68-.29,3.75-.58,1.08-.29,1.97-.56,2.68-.82.71-.26,1.23-.36,1.58-.27.25.06.45.17.58.31.13.14.21.38.23.71.03.34,0,.79-.09,1.36-.08.57-.24,1.32-.47,2.26Z"/>
        <path class="cls-2" d="m374.78,115.67c-.15,1-.33,1.77-.51,2.3-.19.54-.48.86-.86.98-.39.11-.93.03-1.63-.25-.7-.28-1.63-.73-2.79-1.33-1.21-.63-2.15-1.13-2.8-1.51s-1.14-.72-1.43-1.01c-.3-.29-.47-.56-.52-.83-.04-.26-.03-.57.03-.93l1.67-10.85-17.3-8.92-7.56,7.5c-.27.29-.54.5-.8.65-.28.15-.61.2-1.03.15-.41-.05-.95-.21-1.6-.49-.65-.28-1.49-.68-2.51-1.2-1.09-.56-1.93-1.04-2.51-1.43s-.92-.78-1.01-1.18c-.1-.4.02-.83.35-1.29.33-.46.84-1.04,1.56-1.72l35.27-33.55c.35-.33.69-.57,1-.72.32-.15.72-.18,1.2-.1.48.09,1.1.3,1.85.64s1.74.83,2.95,1.45c1.4.72,2.5,1.31,3.32,1.78.81.46,1.41.88,1.81,1.25.39.37.63.74.69,1.1.07.37.05.81-.03,1.34l-6.81,48.18Zm-3.73-44.69l-.04-.02-16.61,16.22,13.06,6.74,3.58-22.94Z"/>
        <path class="cls-2" d="m424.83,129.81c-3.17,3.54-6.34,6.16-9.52,7.85-3.18,1.69-6.35,2.56-9.5,2.6-3.16.04-6.31-.67-9.46-2.14-3.15-1.47-6.43-3.74-9.86-6.79l-9.22-8.25c-.66-.59-1.04-1.28-1.14-2.06-.1-.79.24-1.62,1.03-2.49l30.12-33.68c.78-.88,1.57-1.31,2.36-1.3.8.01,1.52.31,2.18.9l9.91,8.87c3.45,3.08,6,6.09,7.68,9.05,1.68,2.95,2.63,5.95,2.85,9,.23,3.05-.28,6.12-1.5,9.22s-3.21,6.18-5.95,9.24Zm-8.36-6.99c1.64-1.83,2.95-3.72,3.93-5.68.98-1.95,1.51-3.93,1.6-5.93.08-2-.33-3.99-1.23-5.96-.9-1.97-2.56-4.04-4.97-6.19l-3.98-3.55-23.49,26.27,4.09,3.66c2.15,1.92,4.21,3.26,6.18,4.02,1.97.76,3.95,1.02,5.95.78,1.99-.24,3.97-.98,5.96-2.22,1.98-1.24,3.97-2.97,5.96-5.2Z"/>
        <path class="cls-2" d="m457.08,177.47c-3.62,2.33-7.13,3.97-10.56,4.92-3.43.94-6.71,1.17-9.83.68-3.13-.49-6.06-1.7-8.79-3.64-2.73-1.94-5.21-4.62-7.43-8.06-2.19-3.39-3.65-6.63-4.4-9.72-.74-3.09-.75-6.07-.02-8.93.73-2.86,2.22-5.61,4.48-8.26,2.26-2.65,5.31-5.22,9.15-7.7,3.52-2.28,6.98-3.88,10.37-4.8,3.39-.93,6.65-1.14,9.77-.64,3.11.5,6.05,1.71,8.79,3.64,2.75,1.93,5.23,4.62,7.47,8.08,2.13,3.29,3.58,6.49,4.33,9.58.76,3.09.78,6.07.05,8.93-.72,2.86-2.19,5.63-4.4,8.28s-5.2,5.2-8.96,7.64Zm-6.48-8.98c2.28-1.48,4.25-3,5.89-4.57,1.64-1.57,2.85-3.21,3.63-4.94.78-1.73,1.06-3.54.87-5.45-.2-1.91-1-3.94-2.39-6.09-1.41-2.18-2.99-3.73-4.75-4.65s-3.61-1.4-5.56-1.41c-1.95-.01-3.95.39-6.02,1.2s-4.12,1.88-6.16,3.19c-2.38,1.54-4.4,3.1-6.06,4.68s-2.89,3.24-3.68,4.96c-.8,1.72-1.08,3.53-.86,5.42s1.04,3.93,2.44,6.1,2.98,3.73,4.73,4.67c1.75.94,3.61,1.4,5.58,1.4,1.97,0,4-.41,6.09-1.24,2.09-.83,4.18-1.92,6.26-3.26Z"/>
      </g>
      <g>
        <path class="cls-2" d="m74.18,301.71c-2.85.19-5.4-.08-7.65-.82-2.25-.74-4.19-1.91-5.8-3.5-1.62-1.6-2.9-3.61-3.85-6.02-.95-2.42-1.54-5.29-1.76-8.63l-.29-4.23-16.18,1.1c-.26.02-.5-.06-.72-.21-.22-.16-.41-.43-.57-.81-.16-.38-.3-.9-.42-1.55-.12-.64-.22-1.48-.29-2.49-.07-1-.09-1.83-.05-2.5s.1-1.21.21-1.61.25-.69.45-.86c.2-.17.43-.27.69-.28l45.6-3.09c1.23-.08,2.17.18,2.83.77.66.6,1.02,1.42,1.09,2.46l.81,11.95c.08,1.2.11,2.34.09,3.43-.02,1.09-.13,2.4-.32,3.93s-.65,3.11-1.35,4.72-1.64,3-2.81,4.18c-1.16,1.18-2.56,2.12-4.18,2.8-1.62.69-3.46,1.1-5.52,1.24Zm-1.47-10.72c1.78-.13,3.22-.53,4.32-1.24,1.11-.7,1.9-1.53,2.39-2.48.49-.95.77-1.93.84-2.95.08-1.01.08-2.06,0-3.13l-.3-4.38-17.2,1.16.31,4.63c.11,1.64.43,3.01.95,4.08.52,1.08,1.2,1.95,2.05,2.6.84.65,1.83,1.12,2.97,1.41s2.35.39,3.66.31Z"/>
        <path class="cls-2" d="m53.27,353.56c-.28.08-.53.1-.74.05s-.44-.24-.68-.58c-.24-.34-.48-.87-.75-1.58-.26-.72-.58-1.7-.94-2.96-.31-1.05-.53-1.9-.66-2.55-.13-.65-.18-1.17-.15-1.57.03-.4.13-.71.3-.93.17-.22.39-.42.66-.6l9.63-7.53c1.08-.89,2.02-1.72,2.83-2.5.81-.78,1.44-1.57,1.91-2.37.46-.8.74-1.65.83-2.55.09-.9-.01-1.88-.32-2.93l-.9-3.09-18.59,5.4c-.25.07-.5.05-.75-.05-.25-.1-.49-.33-.73-.67-.24-.34-.48-.82-.74-1.42-.26-.61-.53-1.4-.81-2.38-.28-.96-.47-1.77-.58-2.43s-.16-1.2-.14-1.61.1-.73.26-.93c.16-.21.36-.35.61-.43l44.3-12.86c1.11-.32,1.99-.27,2.64.15.66.42,1.1,1.05,1.34,1.88l3.67,12.63c.37,1.28.65,2.34.84,3.19.19.85.35,1.62.47,2.32.29,2.04.33,3.95.11,5.71s-.72,3.36-1.5,4.77c-.78,1.41-1.83,2.62-3.16,3.63s-2.96,1.8-4.89,2.36c-1.63.48-3.18.7-4.65.68s-2.84-.29-4.13-.78c-1.29-.5-2.49-1.23-3.62-2.18-1.12-.95-2.14-2.12-3.05-3.49-.14.83-.37,1.64-.69,2.43-.32.78-.75,1.57-1.3,2.34-.55.78-1.21,1.55-1.99,2.32-.77.77-1.67,1.56-2.68,2.37l-8.42,6.9c-.85.65-1.47,1.11-1.87,1.36s-.73.42-.98.49Zm29.39-22.39c1.61-.47,2.86-1.23,3.75-2.28.89-1.05,1.33-2.47,1.3-4.26-.02-.54-.09-1.14-.2-1.8-.11-.66-.33-1.56-.66-2.69l-1.29-4.45-13.84,4.02,1.47,5.05c.41,1.41.94,2.59,1.58,3.55.65.96,1.38,1.7,2.2,2.23.82.52,1.71.84,2.66.94s1.96,0,3.02-.3Z"/>
        <path class="cls-2" d="m102.54,393.02c-3.65,2.1-7.18,3.54-10.58,4.29-3.4.75-6.62.81-9.66.18s-5.85-1.97-8.43-4c-2.58-2.03-4.87-4.78-6.87-8.26-1.98-3.42-3.25-6.67-3.83-9.73s-.44-5.98.42-8.74c.85-2.76,2.45-5.38,4.8-7.87,2.34-2.49,5.45-4.85,9.33-7.08,3.56-2.05,7.02-3.45,10.39-4.18,3.37-.73,6.57-.78,9.59-.14,3.03.64,5.84,1.97,8.43,4,2.59,2.03,4.89,4.78,6.91,8.28,1.92,3.33,3.18,6.53,3.77,9.59.59,3.06.46,5.98-.39,8.75-.85,2.77-2.42,5.4-4.72,7.89s-5.35,4.83-9.16,7.03Zm-5.89-9.11c2.31-1.34,4.31-2.73,5.99-4.18,1.68-1.45,2.95-3.01,3.79-4.66.85-1.65,1.22-3.42,1.12-5.29s-.78-3.9-2.03-6.08c-1.27-2.2-2.74-3.8-4.42-4.79-1.68-1-3.47-1.55-5.38-1.65-1.91-.11-3.89.18-5.95.87-2.06.7-4.13,1.63-6.19,2.83-2.4,1.39-4.46,2.81-6.16,4.28-1.71,1.47-2.99,3.02-3.85,4.67-.86,1.65-1.23,3.4-1.11,5.26.12,1.86.82,3.89,2.09,6.09,1.27,2.2,2.74,3.8,4.4,4.8,1.66,1,3.46,1.55,5.39,1.65,1.93.1,3.94-.21,6.02-.92,2.09-.7,4.18-1.66,6.29-2.88Z"/>
        <path class="cls-2" d="m138.44,430.06c-3.31,3.28-6.58,5.64-9.79,7.11-3.21,1.46-6.36,2.12-9.45,1.97-3.09-.15-6.13-1.03-9.12-2.66s-6.07-4.04-9.23-7.25l-8.53-8.63c-.61-.62-.94-1.31-.99-2.09-.05-.78.33-1.57,1.15-2.38l31.5-31.12c.82-.81,1.62-1.18,2.39-1.13.78.06,1.47.4,2.08,1.01l9.16,9.27c3.18,3.22,5.5,6.33,6.97,9.31,1.46,2.99,2.21,5.98,2.25,8.98.04,3-.64,5.97-2.02,8.93-1.39,2.95-3.52,5.85-6.38,8.68Zm-7.76-7.35c1.71-1.69,3.11-3.47,4.18-5.32s1.71-3.75,1.92-5.7c.21-1.95-.07-3.92-.84-5.9-.77-1.99-2.26-4.1-4.49-6.36l-3.67-3.71-24.58,24.28,3.78,3.83c1.99,2.01,3.92,3.45,5.8,4.31,1.88.86,3.8,1.23,5.77,1.12s3.95-.72,5.97-1.81c2.01-1.09,4.07-2.66,6.15-4.72Z"/>
        <path class="cls-2" d="m177.45,462.98c-1.6,2.67-3.43,4.82-5.48,6.46-2.05,1.64-4.28,2.73-6.68,3.27-2.4.54-4.95.52-7.66-.06-2.7-.58-5.51-1.75-8.43-3.5-2.74-1.64-4.99-3.46-6.75-5.45-1.77-1.99-2.98-4.13-3.65-6.43-.67-2.29-.78-4.72-.33-7.27.45-2.55,1.51-5.22,3.18-8l15.9-26.49c.14-.23.32-.39.57-.49.24-.1.57-.1.99,0,.41.1.92.28,1.53.55.6.27,1.34.67,2.21,1.19.85.51,1.54.97,2.06,1.37s.92.77,1.19,1.08c.27.32.42.6.46.87s-.01.51-.14.74l-15.44,25.72c-1.04,1.73-1.73,3.35-2.06,4.88-.34,1.52-.35,2.94-.06,4.25s.88,2.5,1.74,3.59c.86,1.08,1.98,2.03,3.35,2.85,1.39.83,2.76,1.37,4.12,1.6,1.35.23,2.66.17,3.92-.19s2.45-1.02,3.59-1.97c1.14-.95,2.16-2.19,3.08-3.72l15.74-26.22c.14-.23.32-.39.57-.48.24-.1.56-.1.97-.02.4.09.91.28,1.53.55s1.34.67,2.2,1.18c.85.51,1.53.97,2.04,1.36.51.4.9.75,1.17,1.07.27.32.42.6.44.86.03.26-.03.5-.16.73l-15.68,26.12Z"/>
        <path class="cls-2" d="m230.37,451.92c-.23.72-.47,1.33-.69,1.82-.23.49-.45.87-.68,1.14-.23.27-.46.45-.69.54s-.46.1-.69.03l-12.1-3.93-12.65,38.95c-.08.25-.23.45-.46.6s-.55.22-.96.23c-.41,0-.95-.06-1.61-.19-.66-.13-1.46-.35-2.41-.66-.95-.31-1.72-.6-2.33-.88-.61-.28-1.08-.54-1.42-.79-.33-.25-.55-.5-.64-.75-.1-.25-.11-.5-.03-.75l12.65-38.95-12.1-3.93c-.25-.08-.44-.23-.56-.43-.13-.2-.2-.48-.22-.83-.03-.35.02-.79.12-1.33.1-.53.27-1.15.51-1.88.24-.75.48-1.37.71-1.87.23-.5.46-.89.69-1.16.23-.27.45-.45.66-.53s.45-.08.7,0l34.06,11.06c.22.08.41.21.55.41.14.2.23.47.25.82.02.35-.02.8-.13,1.34-.11.55-.28,1.19-.53,1.94Z"/>
        <path class="cls-2" d="m273.57,476.86c-.4,4.2-1.27,7.9-2.63,11.11-1.35,3.21-3.17,5.87-5.44,7.98-2.28,2.11-4.99,3.63-8.14,4.55-3.15.93-6.72,1.2-10.71.83-3.93-.37-7.32-1.21-10.15-2.52s-5.13-3.11-6.88-5.4c-1.75-2.3-2.97-5.12-3.64-8.47-.67-3.35-.8-7.25-.38-11.71.39-4.09,1.25-7.72,2.61-10.89,1.35-3.17,3.16-5.8,5.44-7.91s4.99-3.62,8.14-4.55c3.15-.94,6.73-1.22,10.75-.84,3.83.36,7.16,1.19,10,2.48s5.14,3.09,6.91,5.38,3,5.1,3.7,8.41.85,7.16.43,11.53Zm-10.84-.47c.25-2.66.27-5.09.06-7.31-.21-2.21-.75-4.15-1.6-5.79-.86-1.64-2.08-2.97-3.67-3.97s-3.63-1.63-6.13-1.86c-2.53-.24-4.68.04-6.47.83s-3.27,1.93-4.46,3.43-2.1,3.28-2.73,5.36c-.63,2.08-1.06,4.31-1.28,6.68-.26,2.76-.29,5.26-.08,7.51.21,2.24.73,4.19,1.58,5.85.84,1.65,2.06,2.98,3.65,3.95,1.59.98,3.65,1.59,6.18,1.83,2.53.24,4.68-.03,6.46-.81,1.78-.78,3.27-1.93,4.47-3.44,1.2-1.52,2.11-3.33,2.74-5.44.63-2.11,1.06-4.38,1.29-6.8Z"/>
        <path class="cls-2" d="m330.44,491.61c-.02.46-.1.85-.24,1.17-.14.32-.42.6-.85.85s-1.03.49-1.8.72-1.8.5-3.08.8c-1.02.25-1.89.45-2.62.61s-1.35.28-1.88.35c-.52.07-.95.1-1.3.07-.34-.03-.64-.09-.89-.19-.25-.1-.46-.24-.63-.43-.17-.19-.34-.43-.52-.74l-25.27-40.22c-.53-.84-.88-1.52-1.08-2.04-.19-.52-.16-.95.09-1.3.25-.34.75-.64,1.5-.89.75-.25,1.81-.54,3.18-.87,1.17-.28,2.09-.48,2.76-.59.68-.11,1.2-.14,1.59-.1.39.04.68.18.88.4s.41.5.63.85l21.22,35.18h.04s2.64-40.75,2.64-40.75c0-.45.04-.84.13-1.14.09-.3.3-.58.63-.82s.84-.47,1.51-.69c.68-.22,1.61-.47,2.81-.76,1.17-.28,2.09-.46,2.75-.55.67-.08,1.16,0,1.47.23s.49.63.53,1.18c.04.55.01,1.32-.08,2.28l-4.15,47.37Z"/>
        <path class="cls-2" d="m382.8,467.92c.33.68.58,1.27.74,1.76s.25.9.28,1.24c.02.34-.03.62-.15.83-.11.22-.28.38-.49.48l-22.98,11.1c-.78.38-1.54.46-2.3.26-.75-.2-1.38-.83-1.88-1.86l-19.25-39.88c-.5-1.04-.6-1.91-.29-2.63s.85-1.26,1.63-1.64l22.84-11.03c.21-.1.43-.13.65-.1.22.04.46.18.72.42.26.24.53.57.81,1,.28.43.59,1,.93,1.71.32.66.56,1.23.72,1.72s.25.9.28,1.24c.02.34-.03.62-.13.83-.1.21-.26.36-.47.47l-16.33,7.88,5.39,11.17,13.82-6.67c.21-.1.44-.13.68-.09.24.05.48.18.73.39.25.21.52.54.8.97.28.43.58.98.9,1.64.33.68.57,1.26.73,1.74.16.48.24.88.26,1.2.01.33-.04.59-.16.8s-.29.36-.5.46l-13.83,6.68,6.23,12.91,16.48-7.96c.21-.1.44-.13.68-.09.24.04.49.18.74.4s.52.55.8.99c.28.43.59.99.92,1.67Z"/>
        <path class="cls-2" d="m402.14,405.72c.47.6.85,1.13,1.13,1.6.29.48.48.88.6,1.2.11.33.13.6.08.81-.05.21-.18.38-.36.53-.27.21-.85.36-1.73.46-.89.1-2,.31-3.33.65s-2.83.87-4.48,1.57c-1.66.7-3.4,1.76-5.21,3.18-1.94,1.52-3.43,3.22-4.47,5.12s-1.64,3.89-1.79,5.99c-.15,2.1.15,4.24.89,6.43.75,2.19,1.94,4.33,3.57,6.4,1.79,2.29,3.67,4.07,5.64,5.33,1.97,1.27,3.96,2.06,5.98,2.38,2.01.32,4.02.18,6.02-.43s3.93-1.63,5.79-3.08c.9-.71,1.72-1.52,2.45-2.42s1.31-1.85,1.75-2.86l-7.26-9.28-7.57,5.93c-.38.29-.84.28-1.41-.02-.57-.3-1.29-1.01-2.16-2.13-.45-.58-.81-1.08-1.06-1.51-.25-.43-.42-.8-.5-1.13-.08-.32-.1-.59-.04-.81.05-.23.18-.41.36-.56l13.51-10.58c.33-.26.67-.43,1.01-.52.35-.09.71-.09,1.08-.02.38.08.74.23,1.09.47.35.24.69.57,1.01.98l12.46,15.92c.48.62.8,1.25.95,1.88.15.63-.01,1.35-.47,2.14-.46.79-1.07,1.72-1.84,2.78-.76,1.06-1.59,2.11-2.49,3.15-.9,1.04-1.85,2.03-2.85,2.98s-2.05,1.85-3.14,2.7c-3.2,2.5-6.42,4.28-9.66,5.34s-6.42,1.4-9.53,1.03c-3.12-.37-6.12-1.45-9.01-3.22-2.89-1.78-5.57-4.25-8.06-7.43-2.57-3.28-4.38-6.6-5.43-9.99-1.05-3.38-1.39-6.69-1-9.93.39-3.25,1.48-6.35,3.29-9.33,1.8-2.98,4.29-5.7,7.44-8.17,1.73-1.35,3.4-2.47,5.01-3.35s3.08-1.56,4.4-2.05c1.33-.49,2.49-.82,3.5-.97,1.01-.16,1.76-.2,2.27-.13s1.03.32,1.56.75c.54.43,1.21,1.16,2.01,2.19Z"/>
        <path class="cls-2" d="m463.31,391.93c.94.33,1.65.64,2.13.92.48.28.74.61.78,1.01.04.4-.14.9-.54,1.52-.4.62-1,1.43-1.79,2.44-.82,1.05-1.48,1.86-1.97,2.42-.49.56-.9.96-1.24,1.2-.34.24-.63.35-.9.35s-.56-.07-.89-.2l-10.14-3.6-11.76,15.03,5.84,8.66c.23.31.38.61.47.89.09.29.08.63-.04,1.01-.12.39-.38.87-.76,1.45-.39.58-.93,1.31-1.62,2.2-.74.95-1.35,1.66-1.83,2.15-.48.49-.92.75-1.32.76-.4.02-.79-.17-1.18-.57-.38-.4-.84-1.01-1.37-1.82l-25.85-40.1c-.25-.4-.43-.77-.51-1.1s-.05-.73.13-1.18c.17-.45.49-1,.95-1.67.47-.67,1.12-1.52,1.94-2.58.95-1.21,1.73-2.17,2.32-2.87.6-.7,1.11-1.2,1.53-1.52.43-.31.83-.47,1.19-.47.36,0,.79.09,1.28.28l45.14,15.38Zm-43.71-4.59l-.03.03,12.58,18.96,8.88-11.35-21.44-7.65Z"/>
        <path class="cls-2" d="m487.01,342.3c.55.25,1,.56,1.35.94.35.38.59.8.74,1.25s.18.93.12,1.43-.2.98-.4,1.43l-1.78,4.03c-.37.84-.77,1.53-1.21,2.06-.44.54-.99.97-1.66,1.29-.67.32-1.49.55-2.45.7-.96.15-2.18.25-3.64.33l-26.84,1.98c-1.59.1-3.28.17-5.09.2-1.8.03-3.53.02-5.19-.06l-.03.07c1.77.67,3.52,1.35,5.25,2.06,1.73.71,3.51,1.46,5.33,2.27l24.32,10.73c.24.1.43.27.56.48s.19.51.18.9c-.01.38-.1.86-.28,1.45s-.45,1.3-.83,2.17c-.37.84-.71,1.52-1.03,2.03-.31.52-.6.91-.88,1.16-.27.25-.53.4-.77.43-.24.04-.48,0-.73-.1l-41.78-18.43c-1.13-.5-1.83-1.2-2.1-2.1s-.2-1.84.23-2.8l2.23-5.07c.4-.91.82-1.64,1.25-2.2.43-.55.93-1,1.51-1.33s1.28-.58,2.1-.73,1.8-.25,2.94-.29l20.99-1.56c1.26-.07,2.5-.15,3.72-.22,1.22-.08,2.43-.13,3.64-.18,1.2-.04,2.38-.08,3.54-.11,1.16-.03,2.31-.05,3.46-.06v-.04c-1.69-.67-3.47-1.38-5.3-2.15-1.84-.77-3.58-1.52-5.23-2.25l-21.8-9.62c-.24-.1-.43-.27-.55-.5-.13-.23-.19-.54-.19-.94,0-.4.1-.89.28-1.47.18-.58.47-1.3.85-2.16.36-.81.69-1.48.99-2.01.3-.52.6-.9.87-1.14.28-.24.53-.37.78-.41.25-.03.49,0,.73.1l41.78,18.43Z"/>
        <path class="cls-2" d="m476.78,276.8c4.17.63,7.81,1.72,10.94,3.25s5.68,3.5,7.66,5.89c1.98,2.4,3.34,5.19,4.09,8.39.75,3.2.82,6.78.21,10.73-.59,3.9-1.62,7.24-3.09,9.99-1.46,2.75-3.39,4.94-5.78,6.57-2.39,1.62-5.28,2.67-8.66,3.15-3.38.48-7.29.38-11.71-.29-4.06-.62-7.64-1.69-10.73-3.22-3.09-1.53-5.62-3.49-7.58-5.88-1.97-2.39-3.33-5.18-4.09-8.38-.76-3.2-.83-6.79-.23-10.78.58-3.8,1.6-7.08,3.05-9.84,1.45-2.76,3.38-4.95,5.77-6.59,2.39-1.64,5.26-2.71,8.61-3.22,3.35-.51,7.2-.43,11.54.23Zm-1.09,10.79c-2.64-.4-5.07-.56-7.29-.47-2.23.08-4.18.51-5.87,1.27s-3.08,1.9-4.18,3.43-1.83,3.53-2.2,6.02c-.38,2.51-.23,4.68.46,6.5s1.75,3.38,3.17,4.65,3.15,2.29,5.2,3.03c2.04.75,4.24,1.3,6.6,1.66,2.74.42,5.24.58,7.49.5,2.25-.08,4.23-.5,5.93-1.25,1.7-.75,3.08-1.88,4.15-3.42s1.79-3.55,2.18-6.06c.38-2.51.23-4.68-.44-6.5-.68-1.83-1.74-3.38-3.18-4.65-1.45-1.28-3.21-2.29-5.28-3.05-2.07-.75-4.31-1.31-6.72-1.68Z"/>
      </g>
    </g>
  </g>
</svg>